<?xml version="1.0" standalone="no"?>
<!DOCTYPE svg PUBLIC "-//W3C//DTD SVG 1.1//EN" "http://www.w3.org/Graphics/SVG/1.1/DTD/svg11.dtd" >
<svg xmlns="http://www.w3.org/2000/svg" xmlns:xlink="http://www.w3.org/1999/xlink" version="1.1">
<metadata>
Created by FontForge 20170731 at Mon Oct 23 15:56:07 2017
 By Aleksey,,,
Copyright 2011 The Alegreya Project Authors (https://github.com/huertatipografica/Alegreya)
</metadata>
<defs>
<font id="Alegreya-Italic" horiz-adv-x="0" >
  <font-face 
    font-family="Alegreya"
    font-weight="400"
    font-style="italic"
    font-stretch="normal"
    units-per-em="1000"
    panose-1="0 0 5 0 0 0 0 0 0 0"
    ascent="800"
    descent="-200"
    x-height="456"
    cap-height="646"
    bbox="-391 -293 1273 1004"
    underline-thickness="55"
    underline-position="-268"
    slope="-7"
    unicode-range="U+000D-FB02"
  />
<missing-glyph horiz-adv-x="641" 
d="M336 228l321 -321l-16 -16l-321 321l-321 -321l-16 16l321 321l-321 321l16 16l321 -321l321 321l16 -16z" />
    <glyph glyph-name="Idieresis" unicode="&#xa8;I" horiz-adv-x="346" 
d="M276 586.5q-15 -11.5 -20 -40.5q-70 -406 -70 -461q0 -24 8.5 -33.5t28.5 -9.5q18 0 32 1t19 2l2 -4l-14 -44q-13 1 -49.5 2t-75.5 1q-30 0 -65 -5t-46 -7l12 43q46 9 64.5 27t23.5 60l52 424q2 18 2 23q0 18 -7 24.5t-24 6.5q-12 0 -24.5 -1t-16.5 -1l-1 3l12 43
q2 0 42 -2t71 -2q28 0 63.5 4t46.5 6l-10 -43q-41 -5 -56 -16.5zM130 736q-9 11 -9 27q0 22 16 38.5t39 16.5q17 0 26.5 -11t9.5 -27q0 -22 -16.5 -38.5t-39.5 -16.5q-17 0 -26 11zM290 736q-9 11 -9 27q0 22 16.5 38.5t38.5 16.5q17 0 26.5 -11t9.5 -27q0 -22 -16.5 -38.5
t-39.5 -16.5q-17 0 -26 11z" />
    <glyph glyph-name="Odieresis" unicode="&#xa8;O" horiz-adv-x="665" 
d="M167 22.5q-57 34.5 -89.5 95t-32.5 136.5q0 108 46 198.5t124.5 143t171.5 52.5q73 0 131.5 -34.5t92 -95t33.5 -136.5q0 -108 -46.5 -198.5t-126.5 -143t-175 -52.5q-72 0 -129 34.5zM437 75q56 40 88 110.5t32 157.5q0 75 -23.5 131.5t-66.5 87.5t-99 31
q-68 0 -123 -40t-86.5 -110.5t-31.5 -157.5q0 -75 23 -131.5t64.5 -87.5t96.5 -31q70 0 126 40zM283 736q-9 11 -9 27q0 22 16 38.5t39 16.5q17 0 26.5 -11t9.5 -27q0 -22 -16.5 -38.5t-39.5 -16.5q-17 0 -26 11zM443 736q-9 11 -9 27q0 22 16.5 38.5t38.5 16.5
q17 0 26.5 -11t9.5 -27q0 -22 -16.5 -38.5t-39.5 -16.5q-17 0 -26 11z" />
    <glyph glyph-name="Yacute" unicode="&#xb4;Y" horiz-adv-x="520" 
d="M584 634l-11 -35q-32 -6 -49.5 -16t-32.5 -28t-46 -65q-4 -7 -14 -21l-117 -175q-16 -22 -22.5 -47.5t-15.5 -92.5l-6 -44q-3 -19 -3 -32q0 -20 8 -28.5t28 -8.5q15 0 28.5 1t18.5 2l2 -4l-14 -43q-13 1 -48 2t-71 1q-30 0 -64.5 -5t-44.5 -7l11 43q36 8 52.5 19t24 31
t11.5 60l5 45q2 26 2 35q0 36 -16 80l-63 182l-7 20q-14 41 -22.5 58t-26 26.5t-51.5 12.5l-2 4l11 36q10 -1 42.5 -2.5t60.5 -1.5q34 0 78.5 3.5t58.5 5.5l2 -7l-8 -33q-49 -4 -66 -12t-17 -26q0 -16 17.5 -75.5t35.5 -115.5t24 -72h4l139 218q21 32 21 53q0 12 -12 19
t-40 9l-2 4l11 37q1 0 37.5 -4t66.5 -4q23 0 51.5 1.5t37.5 2.5zM370.5 738.5q-61.5 -21.5 -127.5 -46.5l-8 5l-6 24q59 31 120 65t79 44l9 -6l16 -48l-4 -10q-17 -6 -78.5 -27.5z" />
    <glyph glyph-name="idieresis" unicode="&#xa8;i" horiz-adv-x="264" 
d="M154.5 70.5q14.5 10.5 57.5 48.5l12 -1l13 -24q-106 -106 -140 -106q-16 0 -23 8.5t-7 26.5q22 130 36.5 228.5t14.5 114.5q0 23 -9.5 32.5t-32.5 9.5h-41l7 38q68 0 162 6l9 -12q-25 -81 -48.5 -188t-34.5 -188l3 -4q7 0 21.5 10.5zM65 559q-12 13 -12 32q0 20 14 34
t35 14q18 0 29 -12.5t11 -32.5t-14 -34t-34 -14q-17 0 -29 13zM225 559q-12 13 -12 32q0 20 14 34t35 14q18 0 29 -12.5t11 -32.5t-14 -34t-34 -14q-17 0 -29 13z" />
    <glyph glyph-name="odieresis" unicode="&#xa8;o" horiz-adv-x="406" 
d="M65 33q-31 45 -31 119q0 81 31.5 153t84 115.5t111.5 43.5q53 0 83.5 -39.5t30.5 -109.5q0 -87 -31 -162t-84 -120t-114 -45q-50 0 -81 45zM245 71q26 28 40.5 77.5t14.5 111.5q0 67 -21.5 105.5t-59.5 38.5q-32 0 -58 -26.5t-40.5 -72.5t-14.5 -103q0 -70 22.5 -114.5
t57.5 -44.5q33 0 59 28zM136 559q-12 13 -12 32q0 20 14 34t35 14q18 0 29 -12.5t11 -32.5t-14 -34t-34 -14q-17 0 -29 13zM296 559q-12 13 -12 32q0 20 14 34t35 14q18 0 29 -12.5t11 -32.5t-14 -34t-34 -14q-17 0 -29 13z" />
    <glyph glyph-name="yacute" unicode="&#xb4;y" horiz-adv-x="438" 
d="M388 464q16 -10 25.5 -30.5t9.5 -45.5q0 -98 -180 -367q-91 -135 -151.5 -195.5t-106.5 -60.5q-29 0 -50.5 10.5t-25.5 26.5q1 16 6 36.5t12 37.5h14q30 -33 64 -33q64 0 146 114q-12 209 -38 405q-4 23 -12.5 31.5t-28.5 8.5q-7 0 -52 -5l3 38l148 24l11 -10
q20 -146 20 -367v-34h10q139 218 139 298q0 22 -12.5 43t-35.5 36l4 17zM294 609q-50 -41 -103 -88l-9 2l-20 19q45 49 91 103t59 70l10 -2l38 -41l-1 -11q-15 -11 -65 -52z" />
    <glyph glyph-name="Itilde" unicode="&#x7e;I" horiz-adv-x="347" 
d="M287 586.5q-15 -11.5 -20 -40.5q-70 -406 -70 -461q0 -24 8.5 -33.5t28.5 -9.5q18 0 32 1t19 2l2 -4l-14 -44q-13 1 -49.5 2t-75.5 1q-30 0 -65 -5t-46 -7l12 43q46 9 64.5 27t23.5 60l52 424q2 18 2 23q0 18 -7 24.5t-24 6.5q-12 0 -24.5 -1t-16.5 -1l-1 3l12 43
q2 0 42 -2t71 -2q28 0 63.5 4t46.5 6l-10 -43q-41 -5 -56 -16.5zM117 736l1 5l84 89l15 4q18 0 74 -18q7 -2 29.5 -8.5t33.5 -6.5q10 0 25 12t27 25.5t15 17.5h6l20 -21l-1 -5l-84 -89l-16 -4q-19 0 -73 18q-9 3 -31 9t-32 6t-25 -12t-27 -25.5t-15 -17.5h-7z" />
    <glyph glyph-name="itilde" unicode="&#x7e;i" horiz-adv-x="264" 
d="M14 572l1 5l84 89l15 4q18 0 74 -18q7 -2 29.5 -8.5t33.5 -6.5q10 0 25 12t27 25.5t15 17.5h6l20 -21l-1 -5l-84 -89l-16 -4q-19 0 -73 18q-9 3 -31 9t-32 6t-25 -12t-27 -25.5t-15 -17.5h-7zM155.5 70.5q14.5 10.5 57.5 48.5l12 -1l13 -24q-106 -106 -140 -106
q-16 0 -23 8.5t-7 26.5q22 130 36.5 228.5t14.5 114.5q0 23 -9.5 32.5t-32.5 9.5h-41l7 38q68 0 162 6l9 -12q-25 -81 -48.5 -188t-34.5 -188l3 -4q7 0 21.5 10.5z" />
    <glyph glyph-name="Utilde" unicode="&#x7e;U" horiz-adv-x="652" 
d="M175 202q0 -78 35.5 -119.5t104.5 -41.5q80 0 127.5 44.5t57.5 129.5q6 44 18.5 165t16.5 162q1 8 1 21q0 20 -6 26.5t-24 6.5q-12 0 -25 -1t-18 -1v4l11 41q12 -1 43.5 -2t63.5 -1q26 0 55.5 4t38.5 6l-10 -43q-30 -4 -44 -9t-20 -15.5t-9 -32.5l-42 -340
q-13 -103 -82 -160.5t-182 -57.5q-90 0 -137.5 46.5t-47.5 132.5q0 21 3 43l41 332q2 18 2 24q0 17 -7 23.5t-25 6.5q-10 0 -20 -1t-13 -1l-1 4l12 41q11 -1 42.5 -2t63.5 -1q26 0 58.5 4t42.5 6l-9 -43q-36 -5 -50 -16.5t-19 -40.5l-44 -294q-3 -27 -3 -50zM254 736l1 5
l84 89l15 4q18 0 74 -18q7 -2 29.5 -8.5t33.5 -6.5q10 0 25 12t27 25.5t15 17.5h6l20 -21l-1 -5l-84 -89l-16 -4q-19 0 -73 18q-9 3 -31 9t-32 6t-25 -12t-27 -25.5t-15 -17.5h-7z" />
    <glyph glyph-name="utilde" unicode="&#x7e;u" horiz-adv-x="486" 
d="M462 94q-62 -58 -93.5 -82t-46.5 -24q-36 0 -36 28q0 17 42 210l-7 2q-89 -171 -182 -240q-40 0 -64 23t-24 61q0 20 11 61.5t30 105.5q13 42 23 80.5t10 52.5q0 19 -10 27.5t-32 8.5h-41l8 38q68 0 162 6l9 -12q-42 -117 -70.5 -214t-28.5 -124q0 -18 7 -26.5t23 -8.5
q28 0 82.5 81t112.5 209l17 96l9 3l60 -9l7 -8q-24 -80 -48.5 -186.5t-36.5 -188.5l3 -4q7 0 20 9.5t59 49.5l12 -1zM147 552l1 5l84 89l15 4q18 0 74 -18q7 -2 29.5 -8.5t33.5 -6.5q10 0 25 12t27 25.5t15 17.5h6l20 -21l-1 -5l-84 -89l-16 -4q-19 0 -73 18q-9 3 -31 9
t-32 6t-25 -12t-27 -25.5t-15 -17.5h-7z" />
    <glyph glyph-name="uni1EBC" unicode="&#x7e;E" horiz-adv-x="567" 
d="M199 48q14 -7 58 -7q82 0 117.5 8t52.5 32t32 83l41 5l2 -5q-5 -14 -20 -64t-27 -102l-5 -5q-32 1 -132.5 4t-156.5 3q-45 0 -83.5 -4t-48.5 -6l11 43q44 6 62 23.5t23 60.5l53 425q2 18 2 24q0 17 -7 23.5t-24 6.5q-10 0 -19.5 -1t-13.5 -1l-1 3l11 42q12 -1 49 -2
t82 -1q115 0 178 2.5t111 9.5l2 -5q-2 -6 -8.5 -26.5t-16 -58.5t-17.5 -79l-44 -4q2 6 5.5 27.5t3.5 37.5q0 23 -11 33.5t-39 13.5t-92 3q-35 0 -47.5 -2t-17.5 -9.5t-8 -27.5l-31 -199l99 -1q21 0 62.5 4.5t55.5 6.5l3 -4l-20 -56q-14 1 -53 2t-82 1q-37 0 -74 -7
q-6 -42 -17 -111q-14 -87 -14 -107q0 -25 14 -32zM196 720l1 5l83 79l15 4q18 0 74 -18q7 -2 29.5 -8.5t33.5 -6.5q10 0 24.5 10t26.5 21t15 14h6l19 -21v-5l-83 -79l-16 -4q-19 0 -73 18q-9 3 -31 9t-32 6t-25 -10t-26.5 -21t-14.5 -14h-6z" />
    <glyph glyph-name="uni1EBD" unicode="&#x7e;e" horiz-adv-x="359" 
d="M285 278q-55 -45 -183 -88q-4 -64 15.5 -103t54.5 -39q30 0 60 23.5t50 62.5l14 -1l15 -24q-29 -53 -73.5 -87t-87.5 -34q-54 0 -85 44t-31 121q0 75 33.5 147.5t86 118t107.5 45.5q38 0 58.5 -20.5t20.5 -57.5q0 -63 -55 -108zM177.5 382.5q-25.5 -23.5 -45 -63.5
t-26.5 -87q87 27 125 57t38 71q0 46 -40 46q-26 0 -51.5 -23.5zM114 552l1 5l84 89l15 4q18 0 74 -18q7 -2 29.5 -8.5t33.5 -6.5q10 0 25 12t27 25.5t15 17.5h6l20 -21l-1 -5l-84 -89l-16 -4q-19 0 -73 18q-9 3 -31 9t-32 6t-25 -12t-27 -25.5t-15 -17.5h-7z" />
    <glyph glyph-name="uni1EF8" unicode="&#x7e;Y" horiz-adv-x="512" 
d="M584 634l-11 -35q-32 -6 -49.5 -16t-32.5 -28t-46 -65q-4 -7 -14 -21l-117 -175q-16 -22 -22.5 -47.5t-15.5 -92.5l-6 -44q-3 -19 -3 -32q0 -20 8 -28.5t28 -8.5q15 0 28.5 1t18.5 2l2 -4l-14 -43q-13 1 -48 2t-71 1q-30 0 -64.5 -5t-44.5 -7l11 43q36 8 52.5 19t24 31
t11.5 60l5 45q2 26 2 35q0 36 -16 80l-63 182l-7 20q-14 41 -22.5 58t-26 26.5t-51.5 12.5l-2 4l11 36q10 -1 42.5 -2.5t60.5 -1.5q34 0 78.5 3.5t58.5 5.5l2 -7l-8 -33q-49 -4 -66 -12t-17 -26q0 -16 17.5 -75.5t35.5 -115.5t24 -72h4l139 218q21 32 21 53q0 12 -12 19
t-40 9l-2 4l11 37q1 0 37.5 -4t66.5 -4q23 0 51.5 1.5t37.5 2.5zM178 720l1 5l83 79l15 4q18 0 74 -18q7 -2 29.5 -8.5t33.5 -6.5q10 0 24.5 10t26.5 21t15 14h6l19 -21v-5l-83 -79l-16 -4q-19 0 -73 18q-9 3 -31 9t-32 6t-25 -10t-26.5 -21t-14.5 -14h-6z" />
    <glyph glyph-name="uni1EF9" unicode="&#x7e;y" horiz-adv-x="438" 
d="M388 464q16 -10 25.5 -30.5t9.5 -45.5q0 -98 -180 -367q-91 -135 -151.5 -195.5t-106.5 -60.5q-29 0 -50.5 10.5t-25.5 26.5q1 16 6 36.5t12 37.5h14q30 -33 64 -33q64 0 146 114q-12 209 -38 405q-4 23 -12.5 31.5t-28.5 8.5q-7 0 -52 -5l3 38l148 24l11 -10
q20 -146 20 -367v-34h10q139 218 139 298q0 22 -12.5 43t-35.5 36l4 17zM123 552l1 5l84 89l15 4q18 0 74 -18q7 -2 29.5 -8.5t33.5 -6.5q10 0 25 12t27 25.5t15 17.5h6l20 -21l-1 -5l-84 -89l-16 -4q-19 0 -73 18q-9 3 -31 9t-32 6t-25 -12t-27 -25.5t-15 -17.5h-7z" />
    <glyph glyph-name="fi" unicode="fi" horiz-adv-x="521" 
d="M411.5 70.5q14.5 10.5 57.5 48.5l12 -1l13 -24q-84 -84 -123 -102q-9 -4 -17 -4q-16 0 -23 8.5t-7 26.5q8 49 29.5 185t21.5 158q0 23 -9.5 32.5t-32.5 9.5h-143l-10 -6l-44 -404q-9 -83 -24.5 -134t-48.5 -78.5t-90 -27.5q-31 0 -57 13t-33 33q4 17 15 43.5t19 40.5h14
q-1 -37 18.5 -60t51.5 -23q26 0 47 22.5t25 56.5q6 52 10 141l30 372l-7 5l-69 3l-3 5l4 29l79 12l6 53q9 83 45.5 136.5t86 77.5t102.5 24q31 0 65.5 -7t55.5 -18l4 -11l-31 -63l-19 -3q-67 43 -119 43q-56 0 -82 -34.5t-35 -109.5l-11 -90h102q51 0 112.5 1t61.5 2l9 -12
q-4 -15 -19.5 -70.5t-33.5 -139t-30 -166.5l3 -4q7 0 21.5 10.5z" />
    <glyph glyph-name="fl" unicode="fl" horiz-adv-x="507" 
d="M469 118l13 -24q-106 -106 -140 -106q-31 0 -31 29q15 93 54.5 350t39.5 282v8q-64 26 -112 26q-79 0 -93 -114l-15 -120l145 1l4 -3l-8 -40l-136 1l-10 -6l-52 -477q-9 -79 -50 -123t-105 -44q-31 0 -57 13t-33 33q4 17 15 43.5t19 40.5h14q-1 -37 18.5 -60t51.5 -23
q26 0 47 22.5t25 56.5q5 40 9 116l3 57l28 340l-7 5l-69 3l-3 5l4 29l79 12l9 80q7 60 37 108t75.5 75.5t98.5 27.5q41 0 87 -12q25 1 42.5 2t22.5 1l9 -12q-7 -31 -30 -140.5t-50.5 -255.5t-42.5 -261l3 -4q7 0 21.5 10.5t57.5 48.5z" />
    <glyph glyph-name="f_j" unicode="fj" horiz-adv-x="502" 
d="M457 452l10 -12q-5 -20 -21.5 -91.5t-36 -164.5t-28.5 -163q-14 -101 -56 -162.5t-116 -99.5l-15 19l3 8q40 29 64.5 60t39.5 76t24 116q8 46 29 175.5t21 151.5q0 23 -10.5 33t-33.5 10h-141l-10 -6l-52 -477q-9 -79 -50 -123t-105 -44q-31 0 -57 13t-33 33
q4 17 15 43.5t19 40.5h14q-1 -37 18.5 -60t51.5 -23q26 0 47 22.5t25 56.5q5 40 9 116l3 57l28 340l-7 5l-69 3l-3 5l4 29l79 12l9 80q8 60 41 108t82.5 75.5t107.5 27.5q31 0 65.5 -7t55.5 -18l4 -11l-31 -63l-19 -3q-67 43 -119 43q-98 0 -113 -114l-15 -120h215z" />
    <glyph glyph-name="T_h.liga" unicode="Th" horiz-adv-x="901" 
d="M858 94q-107 -106 -140 -106q-31 0 -31 29q0 20 8.5 52.5t27.5 95.5q20 63 30 102t10 63q0 18 -9.5 29.5t-24.5 11.5q-31 0 -82.5 -75.5t-103.5 -197.5l-11 -84q-1 -5 -25.5 -14t-36.5 -9l-7 9q23 155 19 128q45 287 67 449q-28 13 -72.5 18.5t-125.5 5.5
q-16 -74 -47 -278.5t-31 -233.5q0 -28 12.5 -38t41.5 -10q21 0 48 3l2 -4l-14 -43q-18 0 -28 1l-112 2q-51 0 -129 -4l12 40q48 5 67.5 13.5t28 31.5t16.5 81l53 439q-85 -4 -115 -11t-42.5 -28.5t-29.5 -85.5l-44 -4q27 116 35 168l10 7l76 -11h348l49 4q8 67 8 79l10 11
l67 3l9 -12q-24 -100 -53 -246.5t-48 -272.5l5 -3q52 101 104.5 169.5t98.5 95.5q32 0 55.5 -28.5t23.5 -68.5q0 -27 -12 -69t-36 -109q-33 -93 -39 -125l3 -4q7 0 20 10t59 49l12 -1z" />
    <glyph glyph-name="gamma_gamma" unicode="&#x3b3;&#x3b3;" horiz-adv-x="803" 
d="M551 10q-10 -100 -29 -223l-54 -23l-15 2l-35 36q15 67 29.5 105t57.5 116q11 94 11 140q0 15 -2 49q-4 80 -15.5 113t-39.5 33q-12 0 -29 -6q-117 -167 -226 -342q-10 -100 -29 -223l-54 -23l-15 2l-35 36q15 67 29.5 105t57.5 116q11 94 11 140q0 15 -2 49
q-4 80 -15.5 113t-39.5 33q-24 0 -75 -27l-5 6q11 86 64 121q55 0 82 -56t32 -183q2 -57 1 -86h8q34 64 76 137.5l54 94.5l55 95l22 5q44 0 71 -24t41 -77.5t19 -144.5q2 -57 1 -86h8q34 64 76 137.5l54 94.5l55 95h16q29 -23 36 -70q-142 -203 -252 -380z" />
    <glyph glyph-name="lambda_lambda" unicode="&#x3bb;&#x3bb;" horiz-adv-x="766" 
d="M761 103q-17 -75 -75 -110q-27 0 -41.5 9t-23 31.5t-13.5 65.5l-30 250h-6q-35 -76 -72 -153t-50 -104q-31 -62 -45 -92l-59 -10q-31 2 -47 11t-24.5 31t-13.5 67l-30 250h-6q-36 -80 -124 -260l-46 -95l-10 -4l-61 22l-4 8l87 155q77 136 151 273l-12 102
q-7 51 -19 73.5t-35 22.5q-28 0 -89 -35l-7 9q17 83 81 118q47 0 77 -44.5t40 -127.5l50 -422q4 -31 12.5 -45t24.5 -14q10 0 25 6l36 63q105 187 163 294l-12 102q-7 51 -19 73.5t-35 22.5q-28 0 -89 -35l-7 9q17 83 81 118q47 0 77 -44.5t40 -127.5l50 -422
q4 -31 12.5 -45t24.5 -14q24 0 67 28z" />
    <glyph glyph-name="Gtilde" unicode="&#x7e;G" horiz-adv-x="640" 
d="M543 301q25 2 32 3l1 -20q-30 -20 -40 -89q-5 -32 -9.5 -70t-4.5 -52l1 -30l-6 -8q0 -1 -31.5 -13.5t-78 -23t-100.5 -10.5q-78 0 -137.5 32.5t-92 92.5t-32.5 140q0 110 49 200.5t134 142.5t189 52q35 0 73.5 -5t65.5 -10.5t34 -7.5l3 -6l-9.5 -28.5t-17.5 -59
t-18 -76.5l-43 -4q1 6 5 26.5t4 32.5q0 84 -131 84q-73 0 -130 -39t-89 -110t-32 -163q0 -114 51 -181.5t139 -67.5q35 0 65 8.5t50 19t20 11.5l15 126q1 8 1 20q0 21 -10 27.5t-38 6.5h-67l-1 4l14 47q1 0 36.5 -2t84.5 -2q26 0 51 2zM242 720l1 5l83 79l15 4q18 0 74 -18
q7 -2 29.5 -8.5t33.5 -6.5q10 0 24.5 10t26.5 21t15 14h6l19 -21v-5l-83 -79l-16 -4q-19 0 -73 18q-9 3 -31 9t-32 6t-25 -10t-26.5 -21t-14.5 -14h-6z" />
    <glyph glyph-name="gtilde" unicode="&#x7e;g" horiz-adv-x="444" 
d="M1.5 -222.5q-37.5 18.5 -60.5 48t-21 59.5l2 5q55 44 187 122l1 9q-24 14 -37.5 48t-13.5 80q0 73 32.5 145.5t83.5 119t102 46.5l102 -16l11 25l5 1l31 -15l8 -9q-70 -130 -79 -208q-3 -28 -10 -144q-4 -73 -6 -94q-7 -57 -48 -113t-99 -92t-112 -36q-41 0 -78.5 18.5z
M236 163q48 76 111 212q-62 31 -101 31q-29 0 -56.5 -30.5t-44.5 -79t-17 -100.5q0 -43 11.5 -76t26.5 -33q22 0 70 76zM222 -136.5q45 46.5 55 125.5l25 207l-8 2q-46 -85 -75 -124t-66 -66q-27 -19 -68 -46q-45 -29 -65.5 -44.5t-20.5 -24.5q0 -17 17.5 -34.5t44 -29.5
t52.5 -12q64 0 109 46.5zM141 584l1 5l84 89l15 4q18 0 74 -18q7 -2 29.5 -8.5t33.5 -6.5q10 0 25 12t27 25.5t15 17.5h6l20 -21l-1 -5l-84 -89l-16 -4q-19 0 -73 18q-9 3 -31 9t-32 6t-25 -12t-27 -25.5t-15 -17.5h-7z" />
    <glyph glyph-name=".notdef" horiz-adv-x="641" 
d="M336 228l321 -321l-16 -16l-321 321l-321 -321l-16 16l321 321l-321 321l16 16l321 -321l321 321l16 -16z" />
    <glyph glyph-name="uni0000" 
 />
    <glyph glyph-name="uni0000" 
 />
    <glyph glyph-name="nonmarkingreturn" unicode="&#xd;" horiz-adv-x="169" 
 />
    <glyph glyph-name="space" unicode=" " horiz-adv-x="169" 
 />
    <glyph glyph-name="exclam" unicode="!" horiz-adv-x="274" 
d="M156 676l84 18l8 -11l-109 -474l-29 -7l-10 8l47 456zM48.5 2.5q-12.5 14.5 -12.5 35.5q0 28 19.5 48.5t49.5 20.5q23 0 36 -14t13 -36q0 -29 -19.5 -49t-50.5 -20q-23 0 -35.5 14.5z" />
    <glyph glyph-name="quotedbl" unicode="&#x22;" horiz-adv-x="296" 
d="M124 429l-27 -14l-10 2q16 108 21 218l70 14l6 -8q-32 -127 -60 -212zM243 429l-27 -14l-10 2q16 108 21 218l70 14l6 -8q-32 -127 -60 -212z" />
    <glyph glyph-name="numbersign" unicode="#" horiz-adv-x="480" 
d="M83 409l103 -1l54 160l41 5l7 -6l-56 -160h50l50 -1l55 162l41 5l7 -6l-56 -161h103l3 -9l-23 -36l-100 1l-13 -39l-24 -71h102l3 -9l-22 -36l-98 1l-54 -165l-40 -8l-7 6l56 168l-66 1l-35 -1l-55 -166l-41 -8l-6 6l56 168l-106 -1l-2 10l19 37l104 -1l19 57l18 52
l-104 -1l-2 10zM178 253h50l52 -1l20 59l17 52l-64 1l-37 -1l-14 -40z" />
    <glyph glyph-name="dollar" unicode="$" horiz-adv-x="434" 
d="M312.5 248q24.5 -16 43 -39.5t18.5 -54.5q0 -45 -24.5 -81t-68.5 -57.5t-101 -24.5l-31 -142l-27 -3l-4 7l30 138q-30 1 -56 7t-41.5 11.5t-19.5 7.5l-3 9q3 11 12.5 50t15.5 85l41 4q-5 -38 -5 -58q0 -38 14.5 -54t50.5 -18l39 184q-58 32 -87.5 59.5t-29.5 69.5
q0 41 23 76t63.5 57t91.5 25l32 148l28 4l4 -9l-31 -142q29 -1 54.5 -5.5t41 -9t19.5 -5.5l2 -5q-4 -11 -14.5 -49.5t-19.5 -83.5l-36 -3l-5 4l4.5 22.5t3.5 30.5q0 27 -14 40t-46 15l-37 -170q45 -24 69.5 -40zM214 305l33 154q-41 -3 -68 -24.5t-27 -52.5
q0 -22 15.5 -39.5t44.5 -36.5zM265.5 60q29.5 24 29.5 61q0 24 -18.5 43.5t-51.5 38.5l-36 -169q47 2 76.5 26z" />
    <glyph glyph-name="percent" unicode="%" horiz-adv-x="647" 
d="M469 467.5q-89 -134.5 -144 -222.5q-71 -114 -132.5 -210.5t-82.5 -129.5l-38 19l-5 12q22 33 85 130t135 209l256 403l39 -19l5 -14q-29 -43 -118 -177.5zM96 363.5q-33 37.5 -33 95.5q0 53 20.5 96.5t57 68.5t83.5 25q56 0 87.5 -38t31.5 -91q0 -50 -19 -94.5
t-55.5 -72t-85.5 -27.5q-54 0 -87 37.5zM264.5 412.5q29.5 22.5 29.5 78.5q0 40 -23.5 66t-64.5 26q-43 0 -69 -28.5t-26 -73.5t25.5 -68t60.5 -23q38 0 67.5 22.5zM383 25.5q-33 37.5 -33 95.5q0 53 20.5 96.5t57 68.5t83.5 25q56 0 87.5 -38t31.5 -91q0 -50 -19 -94.5
t-55.5 -72t-85.5 -27.5q-54 0 -87 37.5zM550.5 74.5q29.5 22.5 29.5 78.5q0 41 -23 66.5t-64 25.5q-43 0 -69 -28.5t-26 -73.5t25.5 -68t60.5 -23q37 0 66.5 22.5z" />
    <glyph glyph-name="ampersand" unicode="&#x26;" horiz-adv-x="567" 
d="M211.5 391q37.5 -34 96.5 -34l261 17q50 1 87 37l18 -10l-23 -46q-12 -24 -27 -32.5t-44 -8.5h-98l-5 -8q11 -16 18 -37.5t7 -42.5q0 -63 -36.5 -118t-98 -87.5t-132.5 -32.5q-53 0 -96 19.5t-67.5 53.5t-24.5 76q0 61 43.5 110t118.5 72q-50 19 -78 56.5t-28 86.5
q0 51 30 94t81.5 68t111.5 25q32 0 74.5 -6.5t78.5 -17.5l2 -4q-12 -29 -23.5 -70.5t-16.5 -75.5l-46 -4q1 6 5 24t4 29q0 34 -24 52t-69 18q-64 0 -100.5 -30.5t-36.5 -84.5t37.5 -88zM423.5 285q-19.5 29 -48.5 29h-116q-76 -37 -105.5 -69t-29.5 -78q0 -53 37.5 -87
t95.5 -34q53 0 95.5 21.5t66.5 60t24 85.5q0 43 -19.5 72z" />
    <glyph glyph-name="quotesingle" unicode="'" horiz-adv-x="177" 
d="M124 429l-27 -14l-10 2q16 108 21 218l70 14l6 -8q-32 -127 -60 -212z" />
    <glyph glyph-name="parenleft" unicode="(" horiz-adv-x="297" 
d="M155.5 514.5q48.5 69.5 102.5 105t54 29.5h5l10 -29l-2 -4q0 5 -39.5 -25t-75.5 -89t-47 -151l-21 -173q-4 -29 -4 -62q0 -77 23 -128.5t51.5 -79.5t28.5 -23v-5l-25 -26h-4q0 -5 -39.5 24t-71.5 85.5t-32 143.5q0 16 4 56l21 173q13 109 61.5 178.5z" />
    <glyph glyph-name="parenright" unicode=")" horiz-adv-x="301" 
d="M148.5 -11.5q-48.5 -69.5 -102.5 -105t-54 -29.5h-4l-10 29l1 4q0 -5 39.5 25t75.5 89t48 151l21 173q4 28 4 60q0 78 -23 130t-52 80t-29 23l1 5l24 26h4q0 6 39.5 -24t71.5 -86.5t32 -144.5q0 -25 -3 -54l-22 -173q-13 -109 -61.5 -178.5z" />
    <glyph glyph-name="asterisk" unicode="*" horiz-adv-x="435" 
d="M296 684.5q-8 -35.5 -19 -68.5l-34 -5l-6 4q0 34 -2 67t-3 43q6 2 27 7t40 5l7 -7q-2 -10 -10 -45.5zM164.5 642.5q31.5 -18.5 59.5 -39.5l-6 -33l-6 -5q-32 11 -64.5 19t-41.5 10q0 6 1.5 27.5t7.5 40.5l9 4q9 -5 40.5 -23.5zM376 572q-36 -3 -71 -2l-14 29l1 8
q33 10 63.5 22.5t39.5 16.5q4 -5 15 -23.5t17 -36.5l-4 -9q-11 -2 -47 -5zM294.5 461q-14.5 33 -24.5 67l24 23l8 1q19 -28 40.5 -53.5t27.5 -32.5q-4 -5 -17.5 -21t-29.5 -28l-9 1q-5 10 -19.5 43zM163.5 505q27.5 24 56.5 44l29 -16l3 -7q-20 -27 -37.5 -55.5t-22.5 -36.5
q-6 2 -26 10.5t-36 19.5l-1 9q7 8 34.5 32z" />
    <glyph glyph-name="plus" unicode="+" horiz-adv-x="486" 
d="M293.5 407.5q-10.5 -66.5 -16.5 -116.5q48 0 111.5 2.5t83.5 3.5l5 -10l-14 -51l-193 -1q-8 -67 -14.5 -121.5t-8.5 -72.5l-51 -11l-8 6l26 199l-189 -1l-5 9l17 49l184 -1l25 201l53 8l9 -6q-4 -20 -14.5 -86.5z" />
    <glyph glyph-name="comma" unicode="," horiz-adv-x="228" 
d="M93 99q22 0 36.5 -20.5t14.5 -57.5q0 -52 -42 -98.5t-98 -79.5l-18 15v10q35 24 57 57t22 64q0 20 -9 38.5t-23 31.5l2 14q34 26 58 26z" />
    <glyph glyph-name="hyphen" unicode="-" horiz-adv-x="311" 
d="M274 236l-234 -26l-6 8l13 52l168 20q29 3 44.5 5.5t19.5 3.5l6 -9z" />
    <glyph glyph-name="period" unicode="." horiz-adv-x="303" 
d="M82.5 2.5q-12.5 14.5 -12.5 35.5q0 28 20 48.5t49 20.5q24 0 37 -14t13 -36q0 -28 -20 -48.5t-50 -20.5q-24 0 -36.5 14.5z" />
    <glyph glyph-name="slash" unicode="/" horiz-adv-x="316" 
d="M270 485.5q-51 -131.5 -103 -270.5l-121 -325h-48l-6 8q12 30 53 131.5t76 196.5l165 449h47l6 -10q-18 -48 -69 -179.5z" />
    <glyph glyph-name="zero" unicode="0" horiz-adv-x="510" 
d="M83 45.5q-48 57.5 -48 152.5q0 86 36 156t98 110.5t135 40.5q81 0 129.5 -57.5t48.5 -150.5q0 -85 -36 -156t-97.5 -112t-134.5 -41q-83 0 -131 57.5zM334 89q42 25 65.5 69.5t23.5 101.5q0 73 -41 118.5t-108 45.5q-52 0 -93.5 -25t-64.5 -70.5t-23 -103.5
q0 -72 40 -116.5t107 -44.5q52 0 94 25z" />
    <glyph glyph-name="one" unicode="1" horiz-adv-x="340" 
d="M204.5 204q-13.5 -96 -13.5 -115q0 -25 9 -35t32 -10q18 0 32 1t19 2l1 -4l-14 -46q-13 1 -50.5 2t-77.5 1q-31 0 -71.5 -5t-52.5 -7l11 46q37 3 56 13t29 33t15 68l28 228q1 7 1 19q0 24 -10.5 31t-34.5 7q-13 0 -30 -2.5t-22 -3.5l-2 3l9 42q10 1 40 5t68 10
q109 18 101 18l4 -17q-21 -17 -30 -33.5t-16 -50.5q-17 -104 -30.5 -200z" />
    <glyph glyph-name="two" unicode="2" horiz-adv-x="456" 
d="M85 94q190 194 190 283q0 29 -16.5 45t-46.5 16q-32 0 -67 -24t-61 -65h-9l-6 45q31 48 81.5 79.5t96.5 31.5q54 0 86.5 -28.5t32.5 -77.5q0 -34 -20 -71t-71 -96.5t-152 -163.5l3 -7h143q36 0 56 7t34 26t28 58l41 5q-5 -14 -20.5 -62.5t-26.5 -94.5l-12 -7
q-37 1 -147 4t-162 3l-54 -12l-7 18z" />
    <glyph glyph-name="three" unicode="3" horiz-adv-x="400" 
d="M70 -35q50 0 92.5 19t67.5 52t25 73q0 45 -39 67t-119 23l-5 5v35l64 16q44 21 72.5 55.5t28.5 69.5q0 28 -18.5 45t-47.5 17q-27 0 -58.5 -14t-56.5 -37h-10l-5 42q2 1 55 36.5t114 35.5q52 0 82.5 -27t30.5 -72q0 -44 -34 -85.5t-90 -69.5l-1 -5q57 -14 86.5 -42.5
t29.5 -69.5q0 -53 -46 -109t-115 -93t-132 -37q-29 0 -41.5 13t-12.5 42q0 11 1 18l6 6q39 -9 76 -9z" />
    <glyph glyph-name="four" unicode="4" horiz-adv-x="431" 
d="M-8 107.5q2 9.5 4 18.5l311 378l4 1l32 -10l-43 -352h89l5 -8l-15 -55l-86 3q-6 -51 -9.5 -102.5t-4.5 -66.5l-6 -7l-72 -12l-5 9q3 17 11 68.5t17 112.5q-148 4 -236 4q2 9 4 18.5zM231 143l28 224h-9l-180 -224h161z" />
    <glyph glyph-name="five" unicode="5" horiz-adv-x="413" 
d="M290.5 23.5q-49.5 -57.5 -121.5 -93t-133 -35.5q-27 0 -40 12t-13 44q0 11 1 17l6 6q39 -9 77 -9q53 0 97 18.5t70 51t26 74.5q0 44 -41.5 70t-143.5 45l-7 11q15 74 28.5 148t17.5 96l9 8l183 8q28 2 41.5 9.5t23.5 29.5l34 4l-38 -118l-7 -6q-17 1 -78 4.5t-130 3.5
l-22 -129q99 -21 154.5 -56.5t55.5 -95.5t-49.5 -117.5z" />
    <glyph glyph-name="six" unicode="6" horiz-adv-x="437" 
d="M356 533.5q-61 -33.5 -123 -93t-95 -146.5l3 -2q2 1 45 26.5t67 25.5q48 0 81 -21.5t49.5 -55.5t16.5 -71q0 -55 -28.5 -102.5t-78.5 -76.5t-110 -29q-70 0 -110 50t-40 129q0 143 82.5 239t185.5 148.5t103 43.5l6 -5l7 -30q0 4 -61 -29.5zM169.5 273
q-27.5 -12 -46.5 -25q-11 -46 -11 -77q0 -62 25 -98.5t71 -36.5q51 0 83 37t32 97q0 48 -27.5 81.5t-71.5 33.5q-27 0 -54.5 -12z" />
    <glyph glyph-name="seven" unicode="7" horiz-adv-x="404" 
d="M60 -87l-7 22l298 490l-164 -7q-33 -2 -50.5 -10t-28 -26.5t-21.5 -56.5l-39 -6q4 16 17 71t22 102l7 5q10 -1 44.5 -2.5t71.5 -1.5h203l19 -28q-120 -200 -242 -428l-31 -56l-35 -86h-7z" />
    <glyph glyph-name="eight" unicode="8" horiz-adv-x="466" 
d="M84 220q44 43 100 69q-41 25 -65 56t-24 75q0 45 26 86t71 66.5t98 25.5q57 0 96.5 -31t39.5 -88t-34 -96.5t-80 -63.5q45 -27 71 -59.5t26 -78.5q0 -51 -30 -95.5t-80.5 -71t-109.5 -26.5q-64 0 -106.5 32.5t-42.5 89.5q0 67 44 110zM183.5 409.5q14.5 -20.5 35 -35
t59.5 -37.5q71 41 71 123q0 44 -22.5 68t-58.5 24q-42 0 -70.5 -29t-28.5 -67q0 -26 14.5 -46.5zM274.5 46.5q27.5 15.5 44.5 42t17 58.5q0 28 -16 49.5t-38 36t-65 38.5q-39 -16 -70.5 -48.5t-31.5 -86.5q0 -43 28.5 -74t73.5 -31q30 0 57.5 15.5z" />
    <glyph glyph-name="nine" unicode="9" horiz-adv-x="437" 
d="M87.5 -41q61.5 33 123.5 92.5t94 146.5l-3 3q-6 -4 -27.5 -16.5t-46.5 -24t-37 -11.5q-48 0 -81 21.5t-49.5 55.5t-16.5 71q0 55 28.5 102.5t78.5 76.5t110 29q70 0 110 -50t40 -129q0 -143 -82.5 -239t-185.5 -148.5t-103 -43.5l-6 5l-8 30q0 -4 61.5 29zM321 245
q10 43 10 76q0 62 -25 99t-70 37q-51 0 -83 -37.5t-32 -98.5q0 -48 27 -80.5t72 -32.5q44 0 101 37z" />
    <glyph glyph-name="colon" unicode=":" horiz-adv-x="228" 
d="M42.5 2.5q-12.5 14.5 -12.5 35.5q0 28 20 48.5t49 20.5q24 0 37 -14t13 -36q0 -28 -20 -48.5t-50 -20.5q-24 0 -36.5 14.5zM76.5 282.5q-12.5 14.5 -12.5 35.5q0 28 20 48.5t49 20.5q24 0 37 -14t13 -36q0 -28 -20 -48.5t-50 -20.5q-24 0 -36.5 14.5z" />
    <glyph glyph-name="semicolon" unicode=";" horiz-adv-x="228" 
d="M88 99q22 0 36.5 -20.5t14.5 -57.5q0 -52 -42 -98.5t-98 -79.5l-18 15v10q35 24 57 57t22 64q0 20 -9 38.5t-23 31.5l2 14q34 26 58 26zM112.5 282.5q-12.5 14.5 -12.5 35.5q0 28 20 48.5t49 20.5q24 0 37 -14t13 -36q0 -28 -20 -48.5t-50 -20.5q-24 0 -36.5 14.5z" />
    <glyph glyph-name="less" unicode="&#x3c;" horiz-adv-x="484" 
d="M41 297l205 86q57 24 119.5 49t81.5 32l8 -5l2 -50q-19 -7 -81 -29.5t-114 -43.5l-153 -60l-1 -6l151 -70l163 -79v-11l-35 -40q-16 8 -69 35.5t-99 49.5q-56 27 -108 51t-71 33l-7 11z" />
    <glyph glyph-name="equal" unicode="=" horiz-adv-x="486" 
d="M473 316l-219 -1l-219 -1l-5 9l17 49l229 -1q48 0 116.5 2.5t89.5 3.5l5 -10zM453 159l-218 -1l-220 -1l-4 9l16 49l229 -1q48 0 116.5 2.5t90.5 3.5l4 -10z" />
    <glyph glyph-name="greater" unicode="&#x3e;" horiz-adv-x="484" 
d="M454 237l-204 -86q-57 -24 -120 -49t-82 -32l-8 5l-2 50q19 7 81 29.5t114 43.5l153 60l1 6l-151 70l-163 79v11l35 40q16 -8 69 -35.5t99 -49.5q56 -27 108.5 -51t71.5 -33l6 -11z" />
    <glyph glyph-name="question" unicode="?" horiz-adv-x="346" 
d="M97 337l123 76q66 42 66 98q0 53 -47 81.5t-132 33.5l-1 11l39 53l14 4q55 -2 100.5 -22.5t71.5 -54.5t26 -75q0 -47 -18 -79.5t-45 -54t-75 -50.5l-47 -30l-4 -9l8 -95l-4 -8l-63 -17l-8 4l-8 120zM73.5 2.5q-12.5 14.5 -12.5 35.5q0 28 19.5 48.5t49.5 20.5
q23 0 36 -14t13 -36q0 -29 -19.5 -49t-50.5 -20q-23 0 -35.5 14.5z" />
    <glyph glyph-name="at" unicode="@" horiz-adv-x="801" 
d="M432 17q0 12 18 95t25 113l-6 2q-48 -91 -93.5 -148t-93.5 -91q-39 0 -59.5 37t-20.5 99q0 82 34.5 160t88 127t106.5 49l100 -16l9 25l5 1l31 -15l8 -12q-5 -16 -20 -73.5t-33.5 -143t-30.5 -168.5l4 -4q106 0 161.5 61t55.5 165q0 87 -36.5 149.5t-103 95t-155.5 32.5
q-98 0 -173.5 -48t-116.5 -128t-41 -175q0 -100 38 -181.5t117 -132.5t198 -58v-7l-26 -36q-126 6 -216 60.5t-136 142.5t-46 194q0 110 53 208t150.5 157.5t223.5 59.5q98 0 175.5 -41t120.5 -111.5t43 -156.5q0 -83 -37.5 -155.5t-110 -116.5t-174.5 -44q-36 0 -36 29z
M351.5 108.5q32.5 39.5 72.5 109t77 155.5q-17 11 -45.5 22t-55.5 11q-31 0 -61 -32.5t-48.5 -86.5t-18.5 -114q0 -42 8.5 -73t20.5 -31q18 0 50.5 39.5z" />
    <glyph glyph-name="A" unicode="A" horiz-adv-x="556" 
d="M482.5 58.5q17.5 -14.5 59.5 -19.5l2 -3l-11 -39q-11 0 -41.5 1.5t-59.5 1.5q-46 0 -88.5 -4t-54.5 -6l-2 7l8 36q38 3 57.5 8t27 14.5t7.5 27.5q0 12 -4 38l-18 113q-24 1 -100 1q-43 0 -107 -8l-49 -108q-14 -29 -14 -46q0 -19 12.5 -27.5t40.5 -8.5h56v-3l-10 -41
q-12 1 -52 4t-80 3q-35 0 -65 -1t-40 -2l13 45q29 3 47.5 19.5t38.5 58.5l248 511l56 17h8q0 -7 30.5 -200t59.5 -337q7 -38 24.5 -52.5zM266 271q47 0 91 6l-44 267h-7l-125 -273h85z" />
    <glyph glyph-name="B" unicode="B" horiz-adv-x="571" 
d="M73 -5q-34 -5 -44 -7l10 43q47 9 64.5 26.5t22.5 60.5l52 424q2 18 2 24q0 17 -7 23.5t-24 6.5q-10 0 -19.5 -1t-12.5 -1l-2 4l12 41q11 -1 42 -2t62 -1q29 0 56 1.5t36 2.5q85 0 138 -35t53 -97q0 -57 -35.5 -102t-97.5 -71q63 -14 98 -51t35 -88q0 -53 -31 -100.5
t-84 -76.5t-114 -29q-27 0 -69 5q-10 1 -34.5 3t-43.5 2q-31 0 -65 -5zM267 345q31 -3 52 -4q0 -3 33 12.5t59 48.5t26 89t-38.5 83.5t-117.5 27.5q-10 0 -14 -4.5t-7 -18.5l-8 -49q-19 -114 -29 -181q13 -1 44 -4zM188 108q-1 -4 -1 -13q0 -31 24 -44.5t80 -13.5
q64 0 103 39t39 104q0 49 -29.5 80.5t-87.5 41.5l-100 -2z" />
    <glyph glyph-name="C" unicode="C" horiz-adv-x="601" 
d="M169.5 20.5q-59.5 32.5 -92 92.5t-32.5 140q0 110 49 200.5t134 142.5t189 52q35 0 73.5 -5t65.5 -10.5t34 -7.5l3 -6l-9.5 -28.5t-17.5 -59t-18 -76.5l-43 -4q1 6 5 26.5t4 32.5q0 84 -131 84q-73 0 -130 -39t-89 -110t-32 -163q0 -114 51 -181.5t139 -67.5q66 0 112 39
t74 121l43 4q-5 -15 -21 -65.5t-25 -94.5l-6 -9q0 -1 -28 -11.5t-70.5 -19.5t-93.5 -9q-78 0 -137.5 32.5z" />
    <glyph glyph-name="D" unicode="D" horiz-adv-x="675" 
d="M220 -5q-50 5 -80 5t-65.5 -5t-46.5 -7l11 43q46 9 64 26.5t23 59.5l52 425q2 18 2 24q0 17 -6.5 23.5t-23.5 6.5q-10 0 -20 -1t-14 -1l-1 4l11 41q10 -1 39.5 -2t60.5 -1q40 0 80.5 1.5t55.5 2.5q85 0 151 -33.5t103 -93.5t37 -137q0 -104 -50 -193t-134 -142t-183 -53
q-16 2 -66 7zM271 591.5q-7 -4.5 -9 -17.5q-19 -123 -28 -171q-18 -114 -30.5 -195.5t-12.5 -100.5q0 -29 10.5 -44.5t35 -21.5t68.5 -6q78 0 137.5 40.5t92 113.5t32.5 167q0 115 -69 177.5t-200 62.5q-20 0 -27 -4.5z" />
    <glyph glyph-name="E" unicode="E" horiz-adv-x="567" 
d="M199 48q14 -7 58 -7q82 0 117.5 8t52.5 32t32 83l41 5l2 -5q-5 -14 -20 -64t-27 -102l-5 -5q-32 1 -132.5 4t-156.5 3q-45 0 -83.5 -4t-48.5 -6l11 43q44 6 62 23.5t23 60.5l53 425q2 18 2 24q0 17 -7 23.5t-24 6.5q-10 0 -19.5 -1t-13.5 -1l-1 3l11 42q12 -1 49 -2
t82 -1q115 0 178 2.5t111 9.5l2 -5q-2 -6 -8.5 -26.5t-16 -58.5t-17.5 -79l-44 -4q2 6 5.5 27.5t3.5 37.5q0 23 -11 33.5t-39 13.5t-92 3q-35 0 -47.5 -2t-17.5 -9.5t-8 -27.5l-31 -199l99 -1q21 0 62.5 4.5t55.5 6.5l3 -4l-20 -56q-14 1 -53 2t-82 1q-37 0 -74 -7
q-6 -42 -17 -111q-14 -87 -14 -107q0 -25 14 -32z" />
    <glyph glyph-name="F" unicode="F" horiz-adv-x="490" 
d="M186 81q0 -21 8.5 -31t27.5 -10t40 1.5t29 1.5l1 -4l-13 -43q-15 1 -56.5 2.5t-85.5 1.5q-29 0 -63.5 -5t-44.5 -7l10 43q46 9 63.5 26.5t22.5 59.5l53 425q2 18 2 24q0 17 -7 23.5t-24 6.5q-10 0 -19.5 -1t-13.5 -1l-1 3l11 42q12 -1 49 -2t82 -1q101 0 163 2.5t108 9.5
l2 -5q-2 -6 -8.5 -27.5t-16.5 -60t-18 -79.5l-43 -4q2 7 5.5 29.5t3.5 39.5q0 23 -10 33t-34.5 13t-79.5 3q-35 0 -47.5 -2t-17.5 -9.5t-8 -27.5l-33 -216l99 -1q19 0 54.5 4.5t47.5 6.5l2 -4l-19 -57q-12 1 -46.5 2t-72.5 1q-35 0 -75 -7l-25 -172q-2 -10 -2 -27z" />
    <glyph glyph-name="G" unicode="G" horiz-adv-x="640" 
d="M543 301q25 2 32 3l1 -20q-30 -20 -40 -89q-5 -32 -9.5 -70t-4.5 -52l1 -30l-6 -8q0 -1 -31.5 -13.5t-78 -23t-100.5 -10.5q-78 0 -137.5 32.5t-92 92.5t-32.5 140q0 110 49 200.5t134 142.5t189 52q35 0 73.5 -5t65.5 -10.5t34 -7.5l3 -6l-9.5 -28.5t-17.5 -59
t-18 -76.5l-43 -4q1 6 5 26.5t4 32.5q0 84 -131 84q-73 0 -130 -39t-89 -110t-32 -163q0 -114 51 -181.5t139 -67.5q35 0 65 8.5t50 19t20 11.5l15 126q1 8 1 20q0 21 -10 27.5t-38 6.5h-67l-1 4l14 47q1 0 36.5 -2t84.5 -2q26 0 51 2z" />
    <glyph glyph-name="H" unicode="H" horiz-adv-x="723" 
d="M711 646l-8 -43q-37 -5 -51 -16.5t-19 -40.5q-68 -417 -68 -462q0 -24 8 -33.5t28 -9.5q11 0 44 3q0 -1 0.5 -1.5t-0.5 -1.5l-13 -44q-14 0 -21 1q-64 2 -98 2h-31q-30 0 -50 -1t-25 -1l13 43q32 1 48 9.5t24.5 30.5t14.5 68l19 154l-149 1q-41 0 -162 -11l-17 -120
l-4 -28q-7 -42 -7 -64q0 -24 7 -31.5t29 -7.5q11 0 44 3l1 -4l-14 -44q-8 1 -31 2t-47 1q-44 0 -95.5 -4t-52.5 -8l11 43q36 7 53.5 18t25.5 33.5t12 68.5l48 391q2 20 2 24q0 18 -6.5 24t-24.5 6l-32 -2l-2 3l12 43q66 -4 106 -4q33 0 100 10l-8 -43q-30 -5 -43 -12
t-19.5 -24t-12.5 -56l-27 -164l164 -1q49 0 146 10l23 186q2 18 2 23q0 18 -7 24.5t-24 6.5l-33 -2l-2 3l13 43q10 -1 37.5 -2.5t52.5 -1.5q34 0 116 10z" />
    <glyph glyph-name="I" unicode="I" horiz-adv-x="346" 
d="M276 586.5q-15 -11.5 -20 -40.5q-70 -406 -70 -461q0 -24 8.5 -33.5t28.5 -9.5q18 0 32 1t19 2l2 -4l-14 -44q-13 1 -49.5 2t-75.5 1q-30 0 -65 -5t-46 -7l12 43q46 9 64.5 27t23.5 60l52 424q2 18 2 23q0 18 -7 24.5t-24 6.5q-12 0 -24.5 -1t-16.5 -1l-1 3l12 43
q2 0 42 -2t71 -2q28 0 63.5 4t46.5 6l-10 -43q-41 -5 -56 -16.5z" />
    <glyph glyph-name="J" unicode="J" horiz-adv-x="313" 
d="M170 565q0 17 -7 23.5t-24 6.5q-12 0 -26.5 -1.5t-20.5 -2.5v3l11 42h103q24 0 61 3.5t49 5.5l-8 -42q-35 -5 -46.5 -15.5t-16.5 -41.5q-15 -93 -34 -216.5t-31 -211.5q-13 -102 -56.5 -164t-127.5 -97l-12 32l3 8q43 24 68 51.5t38.5 66t20.5 99.5l54 428q2 18 2 23z
" />
    <glyph glyph-name="K" unicode="K" horiz-adv-x="601" 
d="M180 566q0 17 -7 23.5t-24 6.5q-10 0 -19.5 -1t-12.5 -1l-2 3l12 43q11 -1 42 -2.5t63 -1.5q26 0 58.5 4t42.5 6l-8 -43q-37 -5 -52 -18t-20 -42l-65 -434q-3 -18 -3 -30q0 -21 9 -29t29 -8q15 0 27.5 1t16.5 2l2 -4l-15 -44q-12 1 -46.5 2t-70.5 1l-109 -1l15 43
q32 3 48 10t23.5 22t11.5 44l52 424q2 18 2 24zM442 517q36 35 36 54q0 24 -57 28l-2 4l12 41q11 -1 46 -4.5t58 -3.5t51 1.5t36 2.5l2 -6l-10 -39q-25 -4 -47 -20t-74 -65l-183 -174l136 -218q30 -47 55 -66t58 -19l3 -3l-9 -32q-10 -2 -39 -7t-35 -5q-23 0 -48 22.5
t-49 63.5l-140 243l2 13z" />
    <glyph glyph-name="L" unicode="L" horiz-adv-x="485" 
d="M478 182q-5 -15 -21 -70t-30 -116l-5 -5q-27 2 -113 5.5t-142 3.5q-45 0 -82 -4t-47 -6l12 43q38 6 54 24t21 60l53 425q1 9 1 22q0 19 -6.5 25.5t-23.5 6.5q-10 0 -19.5 -1t-13.5 -1l-1 3l12 43q1 0 38 -2t68 -2q26 0 58 4t42 6l-8 -42q-30 -5 -42 -11.5t-18 -23
t-15 -61.5q-16 -86 -39 -239.5t-23 -177.5q0 -21 6 -31.5t22 -14.5t48 -4q59 0 88.5 10t47 38.5t35.5 92.5l42 4z" />
    <glyph glyph-name="M" unicode="M" horiz-adv-x="813" 
d="M248 454q-15 65 -17 75h-4l-18 -91q-71 -364 -71 -372q0 -25 26 -25l40 1l1 -3l-14 -43q-57 4 -92 4q-22 0 -82 -8l11 43q31 4 46 21t24 57q4 23 24 113q67 309 67 329q0 23 -18.5 35t-59.5 15l-2 4l11 32l23 -1q56 -4 80 -4q9 0 63 4q23 -130 54 -272.5t56 -233.5h4
q79 164 224 505q-1 1 26 -1l34 -2q39 0 105 6l1 -4l-9 -34q-43 -5 -61.5 -17.5t-20.5 -37.5q-5 -44 -13 -216.5t-8 -217.5q0 -44 7.5 -59t28.5 -15l27 2l1 -3l-14 -43q-72 3 -90 3q-31 0 -98 -8l9 43q30 4 45 16t18 34q5 41 21 444h-5q-65 -144 -254 -542l-21 -6z" />
    <glyph glyph-name="N" unicode="N" horiz-adv-x="689" 
d="M669.5 639.5q30.5 3.5 39.5 5.5l-10 -44q-34 -5 -52 -19.5t-22 -43.5l-82 -566l-25 -14q-68 138 -133 263.5t-107 203t-53 97.5h-4l-60 -441q-1 -5 -1 -14q0 -14 6 -19.5t20 -5.5h49l2 -3l-14 -43q-10 1 -42 2.5t-58 1.5q-23 0 -51.5 -3.5t-37.5 -4.5l11 43q31 4 47 18.5
t20 44.5l67 443q1 4 1 12q0 23 -17.5 33.5t-60.5 15.5l-1 5l11 34q9 -1 37 -3t44 -2q19 0 38 1.5t24 2.5q58 -117 117 -229.5t98 -185t50 -91.5h4l52 418q4 43 -27 43l-36 -1l-2 4l14 42q9 -1 35.5 -2.5t53.5 -1.5q25 0 55.5 3.5z" />
    <glyph glyph-name="O" unicode="O" horiz-adv-x="665" 
d="M167 22.5q-57 34.5 -89.5 95t-32.5 136.5q0 108 46 198.5t124.5 143t171.5 52.5q73 0 131.5 -34.5t92 -95t33.5 -136.5q0 -108 -46.5 -198.5t-126.5 -143t-175 -52.5q-72 0 -129 34.5zM437 75q56 40 88 110.5t32 157.5q0 75 -23.5 131.5t-66.5 87.5t-99 31
q-68 0 -123 -40t-86.5 -110.5t-31.5 -157.5q0 -75 23 -131.5t64.5 -87.5t96.5 -31q70 0 126 40z" />
    <glyph glyph-name="P" unicode="P" horiz-adv-x="528" 
d="M479.5 600.5q55.5 -39.5 55.5 -111.5q0 -61 -33.5 -117.5t-88 -91t-114.5 -34.5h-92l-23 -154q-2 -14 -2 -17q0 -18 9.5 -26t30.5 -8q16 0 31.5 1.5t21.5 2.5l1 -4l-14 -44q-9 1 -34 2t-51 1q-40 0 -90.5 -3t-52.5 -5l12 43q44 8 59.5 24t20.5 58l52 425q2 18 2 23
q0 18 -7 24.5t-24 6.5q-10 0 -19.5 -1t-12.5 -1l-2 4l12 42q2 0 39.5 -2t65.5 -2q27 0 57.5 1.5t42.5 2.5q92 0 147.5 -39.5zM421 344q36 47 36 125q0 65 -40.5 96t-126.5 31q-19 0 -22 -2t-5 -12q-23 -115 -46 -281l100 -15q68 11 104 58z" />
    <glyph glyph-name="Q" unicode="Q" horiz-adv-x="670" 
d="M736 -148q-6 -5 -25.5 -21t-41 -30.5t-29.5 -14.5q-48 0 -89 15t-99.5 56.5t-164.5 130.5q-69 2 -124.5 37t-86.5 95t-31 134q0 108 46 198.5t124.5 143t171.5 52.5q73 0 131.5 -34.5t92 -95t33.5 -136.5q0 -93 -35.5 -174.5t-97.5 -136.5t-140 -74v-3q94 -74 158 -104.5
t122 -30.5q29 0 53.5 4.5t24.5 5.5l4 -2zM150 153.5q23 -56.5 64.5 -87.5t96.5 -31q70 0 126 40t88 110.5t32 157.5q0 75 -23.5 131.5t-66.5 87.5t-99 31q-68 0 -123 -40t-86.5 -110.5t-31.5 -157.5q0 -75 23 -131.5z" />
    <glyph glyph-name="R" unicode="R" horiz-adv-x="585" 
d="M190 122q-4 -34 -4 -41q0 -26 13 -34t50 -8l1 -3l-13 -40q-12 1 -45 2t-71 1q-33 0 -59 -1t-34 -2l14 43q32 4 48 11t24 22t12 45l52 424q2 18 2 23q0 18 -7 25t-24 7q-10 0 -19.5 -1t-12.5 -1l-2 4l12 42q11 -1 42 -2.5t63 -1.5q29 0 57.5 1.5t39.5 2.5q83 0 138 -37.5
t55 -99.5q0 -67 -40 -121.5t-117 -88.5l85 -178q24 -48 47.5 -66.5t62.5 -18.5l3 -3l-9 -32l-81 -11q-24 0 -48 26t-42 69l-80 197h-91zM447.5 381.5q-60.5 -31.5 -32.5 6t28 98.5q0 57 -40.5 86.5t-121.5 29.5q-9 0 -13 -4.5t-8 -18.5q-21 -107 -39 -251l98 -10
q189 95 128.5 63.5z" />
    <glyph glyph-name="S" unicode="S" horiz-adv-x="507" 
d="M117.5 -4.5q-34.5 7.5 -55.5 15t-26 10.5l-4 10q2 6 8 29.5t13.5 62t12.5 82.5l41 5q-6 -49 -6 -82q0 -39 10.5 -59.5t33.5 -28.5t66 -8q66 0 108 34t42 88q0 36 -27 63.5t-79 58.5q-58 35 -86 54t-50.5 49.5t-22.5 70.5q0 54 30.5 99.5t84 72t117.5 26.5q38 0 71.5 -5.5
t54.5 -11t26 -7.5l2 -5q-4 -13 -17 -62.5t-24 -106.5l-36 -4l-5 5q2 7 6.5 31t4.5 43q0 41 -23.5 57.5t-81.5 16.5q-57 0 -96.5 -30.5t-39.5 -76.5q0 -30 19 -53.5t54 -48.5l54 -33q48 -29 76.5 -49t48.5 -48.5t20 -64.5q0 -58 -31.5 -105.5t-88.5 -74.5t-130 -27
q-40 0 -74.5 7.5z" />
    <glyph glyph-name="T" unicode="T" horiz-adv-x="523" 
d="M156 590q-30 -7 -42.5 -28.5t-29.5 -85.5l-44 -4q4 15 15.5 65.5t19.5 102.5l10 7l76 -11h298l82 11l8 -7q-5 -52 -5.5 -101t-0.5 -63l-44 -4q-2 65 -9.5 88t-34 30t-104.5 11q-15 -71 -46.5 -276t-31.5 -233q0 -27 11 -39t36 -12q22 0 36.5 1t18.5 2l2 -4l-14 -43
q-15 0 -57 1.5t-83 1.5q-40 0 -77.5 -1.5t-51.5 -2.5l12 40q48 5 67.5 13.5t28 31.5t16.5 81l53 439q-85 -4 -115 -11z" />
    <glyph glyph-name="U" unicode="U" horiz-adv-x="655" 
d="M175 202q0 -78 35.5 -119.5t104.5 -41.5q80 0 127.5 44.5t57.5 129.5q6 44 18.5 165t16.5 162q1 8 1 21q0 20 -6 26.5t-24 6.5q-12 0 -25 -1t-18 -1v4l11 41q12 -1 43.5 -2t63.5 -1q26 0 55.5 4t38.5 6l-10 -43q-30 -4 -44 -9t-20 -15.5t-9 -32.5l-42 -340
q-13 -103 -82 -160.5t-182 -57.5q-90 0 -137.5 46.5t-47.5 132.5q0 21 3 43l41 332q2 18 2 24q0 17 -7 23.5t-25 6.5q-10 0 -20 -1t-13 -1l-1 4l12 41q11 -1 42.5 -2t63.5 -1q26 0 58.5 4t42.5 6l-9 -43q-36 -5 -50 -16.5t-19 -40.5l-44 -294q-3 -27 -3 -50z" />
    <glyph glyph-name="V" unicode="V" horiz-adv-x="584" 
d="M96.5 580.5q-20.5 13.5 -57.5 14.5l-1 4l12 40q13 0 45.5 -1.5t63.5 -1.5t78 5t62 7l2 -7l-9 -37q-40 -3 -59 -7.5t-25.5 -12.5t-6.5 -24q0 -29 28 -215t38 -252h8q10 21 23 48t29 60q81 165 124 256.5t43 105.5q0 19 -15 27.5t-47 8.5h-51l-2 4l11 41q13 -1 57.5 -4.5
t83.5 -3.5q29 0 62.5 1.5t43.5 2.5l-13 -45q-30 -1 -43 -10t-28 -38l-268 -542l-58 -22l-105 555q-5 29 -25.5 42.5z" />
    <glyph glyph-name="W" unicode="W" horiz-adv-x="893" 
d="M468 405h-6l-190 -400l-59 -22q-7 49 -34 218.5t-58 336.5q-5 29 -24 42.5t-55 14.5l-2 4l11 40q12 0 44.5 -1.5t61.5 -1.5q42 0 85 5t55 7l2 -7l-7 -37q-40 -3 -60 -7.5t-27.5 -13t-7.5 -24.5q0 -35 26.5 -218t36.5 -248h6q39 84 119 250l66 137q-2 13 -6 29
q-4 18 -5 27q-7 31 -24 44.5t-52 14.5l-1 4l12 40q12 0 44 -1.5t62 -1.5q36 0 81 5t59 7l1 -7l-8 -37q-41 -3 -60.5 -7.5t-27 -12.5t-7.5 -24q0 -30 27 -215.5t37 -251.5h6l45 94q170 357 170 381q0 16 -15 23.5t-47 7.5h-43l-2 4l12 41q12 -1 53 -4.5t79 -3.5q27 0 59 1.5
t42 2.5l-12 -45q-28 -2 -41 -10.5t-27 -37.5l-270 -542l-57 -22z" />
    <glyph glyph-name="X" unicode="X" horiz-adv-x="627" 
d="M593 583.5q-20 -10.5 -38.5 -28.5t-55.5 -59l-137 -154l116 -218q21 -40 49 -59.5t73 -23.5l-11 -44q-12 1 -46.5 2t-71.5 1q-34 0 -83 -3.5t-65 -4.5l-2 7l8 36q43 2 64.5 11.5t21.5 27.5q0 16 -14 42l-85 164l-106 -121q-38 -44 -49.5 -62t-11.5 -33q0 -12 10.5 -18.5
t36.5 -8.5l2 -3l-12 -41q-11 1 -46 4t-58 3q-30 0 -57 -1.5t-36 -2.5l-3 7l10 38q42 12 79 43.5t95 95.5l123 136l-103 201q-19 36 -48.5 56.5t-73.5 26.5v4l9 36q15 -1 56.5 -2.5t80.5 -1.5q48 0 84.5 3.5t45.5 5.5l2 -7l-7 -33q-44 -3 -65 -12t-21 -25q0 -23 84 -194
l49 58q51 60 78.5 95t27.5 49q0 12 -10.5 18t-37.5 9l-1 4l9 37q1 0 38 -4t67 -4q23 0 53 1.5t39 2.5l3 -6l-10 -35q-29 -5 -49 -15.5z" />
    <glyph glyph-name="Y" unicode="Y" horiz-adv-x="512" 
d="M584 634l-11 -35q-32 -6 -49.5 -16t-32.5 -28t-46 -65q-4 -7 -14 -21l-117 -175q-16 -22 -22.5 -47.5t-15.5 -92.5l-6 -44q-3 -19 -3 -32q0 -20 8 -28.5t28 -8.5q15 0 28.5 1t18.5 2l2 -4l-14 -43q-13 1 -48 2t-71 1q-30 0 -64.5 -5t-44.5 -7l11 43q36 8 52.5 19t24 31
t11.5 60l5 45q2 26 2 35q0 36 -16 80l-63 182l-7 20q-14 41 -22.5 58t-26 26.5t-51.5 12.5l-2 4l11 36q10 -1 42.5 -2.5t60.5 -1.5q34 0 78.5 3.5t58.5 5.5l2 -7l-8 -33q-49 -4 -66 -12t-17 -26q0 -16 17.5 -75.5t35.5 -115.5t24 -72h4l139 218q21 32 21 53q0 12 -12 19
t-40 9l-2 4l11 37q1 0 37.5 -4t66.5 -4q23 0 51.5 1.5t37.5 2.5z" />
    <glyph glyph-name="Z" unicode="Z" horiz-adv-x="544" 
d="M87 3l-69 -6l-8 31l429 564l-170 -6q-45 -1 -73 -13.5t-45 -41t-29 -80.5l-44 -4q2 8 9 35t16.5 72t15.5 85l11 9l167 -11l244 -7l7 -28q-133 -162 -253.5 -319t-183.5 -243l194 7q50 1 85.5 39.5t62.5 123.5l43 5q-3 -8 -11 -36.5t-19.5 -76t-18.5 -89.5l-16 -16z" />
    <glyph glyph-name="bracketleft" unicode="[" horiz-adv-x="297" 
d="M77 53q21 134 29 197t20 198.5t16 180.5l179 11l4 -6l-10 -31l-112 -24l-80 -655l108 -24l3 -7l-10 -30l-175 11q7 45 28 179z" />
    <glyph glyph-name="backslash" unicode="\" horiz-adv-x="316" 
d="M144 675l55 -449q12 -95 27.5 -196.5t20.5 -131.5l-7 -8h-49l-41 325q-18 139 -36 270.5t-25 179.5l9 10h46z" />
    <glyph glyph-name="bracketright" unicode="]" horiz-adv-x="297" 
d="M228 449.5q-21 -134.5 -29 -196.5q-7 -63 -19.5 -198.5t-16.5 -180.5l-180 -11l-3 6l10 31l112 24l80 655l-108 24l-3 7l10 30l175 -11q-7 -45 -28 -179.5z" />
    <glyph glyph-name="asciicircum" unicode="^" horiz-adv-x="485" 
d="M324 394.5q16 -57.5 34 -119.5q19 -64 35.5 -117t22.5 -71l-43 -30l-11 1l-53 181l-46 168h-6l-76 -154q-27 -51 -56 -113t-38 -81l-49 7l-3 9q9 19 40 81.5t62 119.5l107 203l48 2l10 -8q6 -21 22 -78.5z" />
    <glyph glyph-name="underscore" unicode="_" horiz-adv-x="439" 
d="M393 -142l-335 -1q-50 -1 -103 -1l-5 9l17 49l230 -1q68 0 131 3q74 2 75 3l4 -10z" />
    <glyph glyph-name="grave" unicode="`" horiz-adv-x="382" 
d="M152 712l10 2q13 -16 59 -69.5t91 -102.5l-20 -19l-9 -2q-52 47 -102.5 87.5t-65.5 51.5l-1 11z" />
    <glyph glyph-name="a" unicode="a" horiz-adv-x="461" 
d="M354 69.5q13 9.5 59 49.5l12 -1l13 -24q-67 -63 -96 -84.5t-48 -21.5q-14 0 -23 7.5t-9 19.5q0 22 43 210l-6 2q-49 -90 -94 -147.5t-93 -91.5q-38 0 -59 35.5t-21 98.5q0 81 33.5 160t87 128.5t108.5 49.5l100 -16l9 25l5 1l31 -15l8 -12q-24 -80 -47.5 -187.5
t-35.5 -191.5l3 -4q7 0 20 9.5zM183.5 111q33.5 42 73 112t74.5 150q-23 14 -51 23.5t-47 9.5q-34 0 -64 -33t-48.5 -87.5t-18.5 -114.5q0 -44 9 -73t22 -29q17 0 50.5 42z" />
    <glyph glyph-name="b" unicode="b" horiz-adv-x="453" 
d="M122 451q27 181 27 199q0 20 -10 29.5t-32 9.5h-41l6 38q67 0 161 6l9 -12q-27 -113 -56 -260.5t-45 -258.5l3 -2q50 107 90 167.5t84 96.5q45 0 73.5 -43.5t28.5 -113.5q0 -80 -32 -153t-84 -117.5t-109 -44.5q-30 0 -66 6.5t-62 17.5l-10 19q38 235 65 416zM232 297
q-50 -84 -111 -228q25 -9 59 -16t53 -7q29 0 56.5 30.5t44.5 80t17 102.5q0 48 -14 85t-32 37q-23 0 -73 -84z" />
    <glyph glyph-name="c" unicode="c" horiz-adv-x="344" 
d="M169 373q-29 -32 -47 -83.5t-18 -106.5q0 -62 18.5 -99t50.5 -37q30 0 60.5 24.5t48.5 62.5l14 -1l15 -24q-29 -53 -73.5 -87t-87.5 -34q-54 0 -85 44t-31 121t32.5 149t85 117t108.5 45q25 0 48 -5.5t37 -15.5l5 -11l-34 -67l-14 -3q-31 43 -73 43q-31 0 -60 -32z" />
    <glyph glyph-name="d" unicode="d" horiz-adv-x="463" 
d="M352.5 68.5q11.5 8.5 60.5 50.5l12 -1l13 -24q-63 -59 -93.5 -82.5t-46.5 -23.5q-36 0 -36 29q0 13 18 95.5t25 112.5l-7 2q-49 -90 -94 -148t-92 -91q-38 0 -59 35.5t-21 100.5q0 80 34 158.5t87 128t108 49.5l72 -12l26 197l1 11q0 17 -10 25t-32 8h-41l6 38
q38 0 91 2.5t70 3.5l9 -12q-7 -33 -30.5 -148.5t-51 -261.5t-40.5 -247l3 -4q7 0 18.5 8.5zM216 157.5q57 88.5 112 216.5q-24 14 -51 23t-47 9q-32 0 -61.5 -33.5t-48 -87.5t-18.5 -112q0 -43 8.5 -73.5t20.5 -30.5q28 0 85 88.5z" />
    <glyph glyph-name="e" unicode="e" horiz-adv-x="359" 
d="M285 278q-55 -45 -183 -88q-4 -64 15.5 -103t54.5 -39q30 0 60 23.5t50 62.5l14 -1l15 -24q-29 -53 -73.5 -87t-87.5 -34q-54 0 -85 44t-31 121q0 75 33.5 147.5t86 118t107.5 45.5q38 0 58.5 -20.5t20.5 -57.5q0 -63 -55 -108zM177.5 382.5q-25.5 -23.5 -45 -63.5
t-26.5 -87q87 27 125 57t38 71q0 46 -40 46q-26 0 -51.5 -23.5z" />
    <glyph glyph-name="f" unicode="f" horiz-adv-x="257" 
d="M38 439l79 12l9 80q7 60 37 108t75.5 75.5t98.5 27.5q26 0 54 -4t47 -11l4 -11l-31 -63l-19 -3q-56 33 -99 33q-79 0 -93 -114l-15 -120l145 1l4 -3l-8 -40l-136 1l-10 -6l-52 -477q-9 -79 -50 -123t-105 -44q-31 0 -57 13t-33 33q4 17 15 43.5t19 40.5h14
q-1 -37 18.5 -60t51.5 -23q26 0 47 22.5t25 56.5q5 40 9 116l3 57l28 340l-7 5l-69 3l-3 5z" />
    <glyph glyph-name="g" unicode="g" horiz-adv-x="444" 
d="M1.5 -222.5q-37.5 18.5 -60.5 48t-21 59.5l2 5q55 44 187 122l1 9q-24 14 -37.5 48t-13.5 80q0 73 32.5 145.5t83.5 119t102 46.5l102 -16l11 25l5 1l31 -15l8 -9q-70 -130 -79 -208q-3 -28 -10 -144q-4 -73 -6 -94q-7 -57 -48 -113t-99 -92t-112 -36q-41 0 -78.5 18.5z
M236 163q48 76 111 212q-62 31 -101 31q-29 0 -56.5 -30.5t-44.5 -79t-17 -100.5q0 -43 11.5 -76t26.5 -33q22 0 70 76zM222 -136.5q45 46.5 55 125.5l25 207l-8 2q-46 -85 -75 -124t-66 -66q-27 -19 -68 -46q-45 -29 -65.5 -44.5t-20.5 -24.5q0 -17 17.5 -34.5t44 -29.5
t52.5 -12q64 0 109 46.5z" />
    <glyph glyph-name="h" unicode="h" horiz-adv-x="490" 
d="M363 70q13 10 59 49l12 -1l13 -24q-107 -106 -140 -106q-31 0 -31 29q0 20 8.5 52.5t27.5 95.5q20 63 30 102t10 63q0 18 -9.5 29.5t-24.5 11.5q-31 0 -82.5 -75.5t-103.5 -197.5l-11 -84q-1 -5 -25.5 -14t-36.5 -9l-7 9q15 96 55.5 360.5t40.5 289.5q0 20 -10 29.5
t-32 9.5h-41l6 38q38 0 91 2.5t70 3.5l9 -12q-5 -21 -22.5 -99t-40 -193.5t-38.5 -226.5l5 -3q52 101 104.5 169.5t98.5 95.5q32 0 55.5 -28.5t23.5 -68.5q0 -27 -12 -69t-36 -109q-33 -93 -39 -125l3 -4q7 0 20 10z" />
    <glyph glyph-name="i" unicode="i" horiz-adv-x="264" 
d="M154.5 70.5q14.5 10.5 57.5 48.5l12 -1l13 -24q-106 -106 -140 -106q-16 0 -23 8.5t-7 26.5q22 130 36.5 228.5t14.5 114.5q0 23 -9.5 32.5t-32.5 9.5h-41l7 38q68 0 162 6l9 -12q-25 -81 -48.5 -188t-34.5 -188l3 -4q7 0 21.5 10.5zM139 591q-11 13 -11 32q0 26 19 45.5
t46 19.5q21 0 32 -13t11 -32q0 -26 -19.5 -45.5t-46.5 -19.5q-20 0 -31 13z" />
    <glyph glyph-name="j" unicode="j" horiz-adv-x="245" 
d="M144.5 604q-11.5 12 -11.5 32q0 27 19 46.5t45 19.5q19 0 30.5 -12t11.5 -32q0 -27 -19 -46.5t-45 -19.5q-19 0 -30.5 12zM68 -141.5q-42 -61.5 -116 -99.5l-15 19l3 8q40 29 64.5 60t39.5 76t24 116q8 46 29 175.5t21 151.5q0 23 -10.5 33t-33.5 10h-41l8 38
q38 0 90.5 2.5t68.5 3.5l10 -12q-5 -20 -21.5 -91.5t-36 -164.5t-28.5 -163q-14 -101 -56 -162.5z" />
    <glyph glyph-name="k" unicode="k" horiz-adv-x="445" 
d="M211 194q70 35 103 69t33 71q0 16 -9.5 26.5t-23.5 10.5q-31 0 -83.5 -76.5t-103.5 -197.5l-11 -83q-1 -5 -25.5 -14t-36.5 -9l-7 9q15 96 55.5 360.5t40.5 289.5q0 20 -10 29.5t-32 9.5h-41l6 38q38 0 91 2.5t70 3.5l9 -12q-5 -21 -22.5 -99t-40 -193.5t-38.5 -226.5
l5 -3q52 101 104.5 169.5t98.5 95.5q32 0 54 -27t22 -65q0 -46 -39.5 -94t-114.5 -92q28 -44 55 -81t44.5 -58.5t22.5 -26.5l2 -12l-61 -32l-13 7l-108 196z" />
    <glyph glyph-name="l" unicode="l" horiz-adv-x="250" 
d="M142.5 70.5q14.5 10.5 57.5 48.5l12 -1l13 -24q-106 -106 -140 -106q-31 0 -31 29q0 4 11 76t21 138q62 385 62 418q0 21 -10 30.5t-32 9.5h-41l6 38q38 0 91 2.5t70 3.5l9 -12q-7 -31 -30 -140.5t-50.5 -255.5t-42.5 -261l3 -4q7 0 21.5 10.5z" />
    <glyph glyph-name="m" unicode="m" horiz-adv-x="736" 
d="M608 69.5q13 9.5 60 49.5l12 -1l13 -24q-110 -106 -142 -106q-31 0 -31 29q0 19 9.5 53.5t29.5 94.5q22 66 32.5 104t10.5 61q0 18 -9.5 29.5t-24.5 11.5q-32 0 -86.5 -81t-109.5 -211l-12 -65q-1 -5 -25.5 -14t-36.5 -9l-7 9q11 46 39 176.5t28 153.5q0 18 -9.5 29.5
t-24.5 11.5q-30 0 -80 -75.5t-100 -196.5l-11 -85q-1 -5 -25.5 -14t-36.5 -9l-7 9q9 53 32 200.5t23 167.5q0 21 -10 30.5t-33 9.5h-41l7 38q38 0 91.5 2.5t70.5 3.5l9 -12q-3 -9 -14 -44.5t-25 -88.5t-22 -105l3 -3q51 102 102 170t97 95q32 0 54.5 -27.5t22.5 -65.5
q0 -21 -17 -84t-24 -85l3 -3q49 97 103.5 166.5t103.5 98.5q32 0 53 -26.5t21 -66.5q0 -29 -13 -73t-38 -114q-31 -90 -38 -120l3 -4q7 0 20 9.5z" />
    <glyph glyph-name="n" unicode="n" horiz-adv-x="496" 
d="M461 94q-106 -106 -140 -106q-31 0 -31 29q0 20 8.5 52.5t27.5 95.5q20 63 30 102t10 63q0 18 -9.5 29.5t-24.5 11.5q-31 0 -82.5 -76t-103.5 -198l-11 -83q-1 -5 -25.5 -14t-36.5 -9l-7 9q20 114 37.5 232.5t17.5 135.5q0 21 -10 30.5t-33 9.5h-41l7 38q69 0 162 6
l9 -12q-18 -51 -35 -118t-26 -120l5 -3q52 101 104.5 169.5t98.5 95.5q32 0 54 -27.5t22 -68.5q0 -27 -12 -70.5t-35 -110.5q-30 -90 -37 -123l3 -4q7 0 20 9.5t59 49.5l12 -1z" />
    <glyph glyph-name="o" unicode="o" horiz-adv-x="406" 
d="M65 33q-31 45 -31 119q0 81 31.5 153t84 115.5t111.5 43.5q53 0 83.5 -39.5t30.5 -109.5q0 -87 -31 -162t-84 -120t-114 -45q-50 0 -81 45zM245 71q26 28 40.5 77.5t14.5 111.5q0 67 -21.5 105.5t-59.5 38.5q-32 0 -58 -26.5t-40.5 -72.5t-14.5 -103q0 -70 22.5 -114.5
t57.5 -44.5q33 0 59 28z" />
    <glyph glyph-name="p" unicode="p" horiz-adv-x="465" 
d="M24 -183.5q11 13.5 21 50.5q10 36 43 255t33 246q0 21 -10 30.5t-33 9.5h-41l7 38q68 0 162 6l9 -12q-40 -114 -62 -235l4 -3q52 109 91.5 168t81.5 94q45 0 73.5 -43.5t28.5 -113.5q0 -74 -31.5 -147.5t-81 -120.5t-99.5 -47l-95 13l-21 -145q-1 -6 -1 -17
q0 -18 9.5 -25t33.5 -7h41l1 -6l-6 -33q-109 0 -198 -7l6 36q23 2 34 15.5zM243.5 296q-50.5 -85 -107.5 -221q27 -13 60 -21t57 -8q26 0 52 31.5t42 81t16 100.5q0 48 -14 85t-32 37q-23 0 -73.5 -85z" />
    <glyph glyph-name="q" unicode="q" horiz-adv-x="442" 
d="M303 223l-7 1q-48 -90 -88 -146t-81 -90q-41 0 -67 42t-26 109q0 76 33.5 151t86.5 122.5t107 47.5l98 -16l21 52l7 2l33 -11l7 -12q-16 -29 -46 -160t-54.5 -270.5t-24.5 -188.5q0 -24 7 -33.5t24 -9.5h36l2 -6l-5 -34q-66 0 -137 -5.5t-71 -6.5l6 39q28 4 42.5 10.5
t22.5 21.5t14 45l30 174zM214.5 150.5q50.5 81.5 114.5 223.5q-27 15 -53.5 23.5t-45.5 8.5q-32 0 -61.5 -32t-48 -83.5t-18.5 -106.5q0 -46 11.5 -80.5t27.5 -34.5q23 0 73.5 81.5z" />
    <glyph glyph-name="r" unicode="r" horiz-adv-x="346" 
d="M96 195q23 144 23 169q0 24 -9.5 34t-33.5 10h-41l7 38q38 0 91.5 2.5t70.5 3.5l9 -12q-3 -8 -11.5 -37t-21.5 -77.5t-21 -92.5l4 -1q43 97 96 160.5t93 67.5q9 -6 15.5 -23.5t6.5 -36.5q0 -17 -2.5 -28t-5.5 -15.5t-4 -5.5l-10 -3q-10 10 -25 10q-38 0 -87 -62.5
t-92 -168.5l-15 -113q-1 -5 -25.5 -14t-36.5 -9l-7 9q9 51 32 195z" />
    <glyph glyph-name="s" unicode="s" horiz-adv-x="339" 
d="M81.5 60.5q24.5 -26.5 71.5 -26.5q29 0 49.5 19t20.5 45q0 23 -16 44t-47 47q-33 29 -50.5 45.5t-30.5 40t-13 49.5q0 37 21.5 69t57.5 51.5t77 19.5q34 0 61.5 -10.5t41.5 -29.5q-7 -21 -34 -78h-14q-11 33 -34 51.5t-53 18.5q-24 0 -40.5 -15.5t-16.5 -38.5
q0 -28 30 -60q19 -19 40 -37q42 -36 64 -64.5t22 -63.5q0 -38 -23.5 -72.5t-61.5 -55.5t-80 -21q-46 0 -77.5 15t-39.5 41q6 23 17 51.5t19 42.5h14q0 -51 24.5 -77.5z" />
    <glyph glyph-name="t" unicode="t" horiz-adv-x="285" 
d="M267 104q-46 -51 -87 -83.5t-64 -32.5q-27 0 -43 15t-16 41l1 11l55 343l-5 4l-69 3l-3 5l4 29l80 13l16 120l90 35l6 -12q-4 -12 -16.5 -54.5t-23.5 -91.5l122 1l4 -3l-8 -40l-118 1l-11 -6l-61 -307l-1 -9q0 -26 24 -26q14 0 36.5 15.5t62.5 53.5l13 -1z" />
    <glyph glyph-name="u" unicode="u" horiz-adv-x="488" 
d="M462 94q-62 -58 -93.5 -82t-46.5 -24q-36 0 -36 28q0 17 42 210l-7 2q-89 -171 -182 -240q-40 0 -64 23t-24 61q0 20 11 61.5t30 105.5q13 42 23 80.5t10 52.5q0 19 -10 27.5t-32 8.5h-41l8 38q68 0 162 6l9 -12q-42 -117 -70.5 -214t-28.5 -124q0 -18 7 -26.5t23 -8.5
q28 0 82.5 81t112.5 209l17 96l9 3l60 -9l7 -8q-24 -80 -48.5 -186.5t-36.5 -188.5l3 -4q7 0 20 9.5t59 49.5l12 -1z" />
    <glyph glyph-name="v" unicode="v" horiz-adv-x="421" 
d="M133 1q-2 79 -12.5 182.5t-23.5 178.5q-4 23 -12.5 31.5t-28.5 8.5q-13 -1 -29 -2.5t-23 -2.5l3 38q38 5 85.5 13t62.5 11l11 -10q22 -174 21 -391h9q65 94 101.5 170t36.5 118q0 24 -10.5 41.5t-24 28t-13.5 9.5l4 17l81 22q16 -10 25.5 -30.5t9.5 -45.5
q0 -52 -51.5 -154.5t-148.5 -244.5h-58z" />
    <glyph glyph-name="w" unicode="w" horiz-adv-x="643" 
d="M323 294l-17 143l7 10l56 17q16 -10 25.5 -30.5t9.5 -45.5q0 -29 -18 -75l27 -255h9q62 91 98 169t36 120q0 23 -13.5 45t-34.5 33l4 17l81 22q17 -11 26 -31t9 -45q0 -102 -196 -399h-58l-15 12l-21 198h-7q-34 -65 -125 -210h-58l-15 12q-2 79 -12.5 182t-23.5 179
q-4 23 -12.5 31.5t-28.5 8.5q-7 0 -52 -5l3 38q58 7 148 24l11 -10q22 -183 21 -391h9q93 136 127 236z" />
    <glyph glyph-name="x" unicode="x" horiz-adv-x="462" 
d="M452 456q16 -8 25 -22q-17 -43 -34 -78h-14q-14 55 -41 55q-25 0 -51.5 -38t-67.5 -134q25 -105 38.5 -142t26.5 -37q8 0 25 11t64 48l12 -1l13 -24q-61 -62 -91.5 -84t-55.5 -22q-14 0 -26 16.5t-26 56.5t-34 115q-44 -101 -85.5 -144.5t-92.5 -43.5q-24 0 -40 10
t-17 26q5 18 15.5 44t19.5 40h14q-2 -34 6.5 -53.5t25.5 -19.5q51 0 130 191q-22 77 -33 110t-18 44.5t-15 11.5t-23 -11.5t-55 -47.5l-13 1l-12 24q51 56 86 81t61 25q13 0 23.5 -15t23 -51.5t31.5 -107.5q42 92 82 133t87 41q20 0 36 -8z" />
    <glyph glyph-name="y" unicode="y" horiz-adv-x="438" 
d="M388 464q16 -10 25.5 -30.5t9.5 -45.5q0 -98 -180 -367q-91 -135 -151.5 -195.5t-106.5 -60.5q-29 0 -50.5 10.5t-25.5 26.5q1 16 6 36.5t12 37.5h14q30 -33 64 -33q64 0 146 114q-12 209 -38 405q-4 23 -12.5 31.5t-28.5 8.5q-7 0 -52 -5l3 38l148 24l11 -10
q20 -146 20 -367v-34h10q139 218 139 298q0 22 -12.5 43t-35.5 36l4 17z" />
    <glyph glyph-name="z" unicode="z" horiz-adv-x="398" 
d="M67 371q12 44 18 83l14 10q27 -4 106.5 -14.5t103.5 -10.5q10 0 15 2.5t11 9.5l16 20l44 -7l5 -19q-84 -99 -166.5 -200.5t-128.5 -162.5l29 7q26 0 70 -11q6 -1 29.5 -6t42.5 -5q28 0 47 16.5t26 48.5l18 -2q8 -25 8 -39q0 -42 -26 -72.5t-62 -30.5q-20 0 -39 5.5
t-45 15.5q-30 12 -53 18t-48 6q-41 0 -92 -30l-11 17l284 364l-101 1q-40 0 -60 -14t-32 -51l-39 -6q4 13 16 57z" />
    <glyph glyph-name="braceleft" unicode="{" horiz-adv-x="297" 
d="M125 303q28 23 28 58q0 22 -9 71q-10 56 -10 85q0 55 37.5 93.5t100.5 38.5q16 0 33 -2.5t22 -3.5l2 -5l-11 -30q-4 1 -18.5 3t-25.5 2q-34 0 -51 -25t-17 -64q0 -18 1 -35t2 -31q4 -50 4 -70q0 -54 -24.5 -83t-59.5 -40l-1 -6q59 -24 59 -90q0 -20 -6.5 -45t-20.5 -69
q-12 -37 -18 -58t-6 -37q0 -25 13 -41t39 -16q12 0 27.5 2.5t20.5 3.5l3 -6l-11 -28q-4 -1 -20 -4.5t-35 -3.5q-50 0 -78 29.5t-28 73.5q0 24 8 47t27 68q14 30 21 49t7 34q0 31 -22.5 50.5t-60.5 28.5l7 21q43 12 71 35z" />
    <glyph glyph-name="bar" unicode="|" horiz-adv-x="355" 
d="M255 570q-24 -175 -36 -279l-67 -549l-59 -11l-8 6q7 59 27 219l40 320l64 520l61 11l10 -6q-8 -56 -32 -231z" />
    <glyph glyph-name="braceright" unicode="}" horiz-adv-x="297" 
d="M182 213q-28 -23 -28 -58q0 -22 9 -71q10 -56 10 -85q0 -55 -38 -93.5t-100 -38.5q-16 0 -33 2.5t-22 3.5l-2 5l11 30q4 -1 18.5 -3t24.5 -2q34 0 51 25t17 64q0 30 -3 66q-1 14 -2 32t-1 38q0 54 24.5 83t59.5 40v6q-58 24 -58 90q0 20 6.5 45t20.5 69q23 69 23 95
q0 25 -12.5 41t-38.5 16q-13 0 -28.5 -2.5t-20.5 -3.5l-2 6l11 28q4 1 20 4.5t35 3.5q50 0 78 -29.5t28 -73.5q0 -24 -8 -47t-27 -68q-14 -30 -21 -49t-7 -34q0 -31 22.5 -50.5t59.5 -28.5l-6 -21q-43 -12 -71 -35z" />
    <glyph glyph-name="asciitilde" unicode="~" horiz-adv-x="486" 
d="M41 223v5l85 89l16 4q18 0 52.5 -7.5t68.5 -15.5q31 -8 60 -14t43 -6q10 0 25 12t27.5 25.5t15.5 17.5h6l19 -21v-5l-85 -89l-16 -4q-18 0 -52.5 7.5t-68.5 15.5q-31 8 -60 14t-43 6q-10 0 -25 -12t-27.5 -25.5t-15.5 -17.5h-6z" />
    <glyph glyph-name="uni00A0" unicode="&#xa0;" horiz-adv-x="169" 
 />
    <glyph glyph-name="exclamdown" unicode="&#xa1;" horiz-adv-x="273" 
d="M226.5 449.5q12.5 -14.5 12.5 -35.5q0 -28 -19.5 -48.5t-49.5 -20.5q-23 0 -36 14t-13 36q0 29 19.5 49t50.5 20q23 0 35.5 -14.5zM119 -224l-84 -18l-8 11l109 474l29 7l10 -8l-47 -456z" />
    <glyph glyph-name="cent" unicode="&#xa2;" horiz-adv-x="358" 
d="M254 399l-75 -351q28 4 55.5 27.5t43.5 58.5l14 -1l15 -24q-25 -47 -63.5 -79t-76.5 -40l-31 -141l-27 -3l-4 7l29 136q-49 4 -76.5 48t-27.5 116t29 140.5t76.5 114.5t99.5 54l41 192l28 4l4 -9l-40 -185q45 -3 73 -21l5 -11l-34 -67l-14 -3q-19 26 -44 37zM112.5 97.5
q12.5 -34.5 35.5 -45.5l75 353q-30 -1 -59 -33.5t-46.5 -83.5t-17.5 -105q0 -51 12.5 -85.5z" />
    <glyph glyph-name="sterling" unicode="&#xa3;" horiz-adv-x="509" 
d="M438 95q0 -45 -25.5 -76t-60.5 -31q-22 0 -47 5.5t-64 16.5q-46 12 -72 17.5t-51 5.5q-43 0 -86 -30l-7 4l-10 34q107 69 119 163l6 48q1 23 -9.5 31t-46.5 10l-3 6l11 34l59 11l2 17q9 71 39.5 124.5t77 83t102.5 29.5q29 0 56.5 -4t40.5 -11l4 -11l-31 -63l-18 -3
q-55 33 -96 33q-82 0 -101 -124l-12 -78q55 0 97.5 1t56.5 2l3 -3l-17 -53q-13 1 -53.5 2t-94.5 1l-12 -79q-14 -80 -76 -130l54 11q30 0 86 -12q52 -10 74 -10q65 0 81 75l17 -2q7 -21 7 -45z" />
    <glyph glyph-name="currency" unicode="&#xa4;" horiz-adv-x="461" 
d="M141 444q-22 26 -38 44.5t-21 24.5l3 12l43 26l56 -69q37 24 80 24q42 0 74 -24l75 75l12 -3l23 -40l-76 -69q17 -29 17 -70q0 -47 -33 -94l60 -66l-4 -11l-44 -30l-55 66q-40 -27 -85 -27t-78 27q-27 -26 -47 -44t-26 -23l-10 3l-19 39q2 0 70 62q-14 28 -14 66
q0 54 37 101zM175 286.5q23 -25.5 59 -25.5q43 0 75 32.5t32 76.5q0 37 -23.5 62.5t-59.5 25.5q-42 0 -74 -32.5t-32 -76.5q0 -37 23 -62.5z" />
    <glyph glyph-name="yen" unicode="&#xa5;" horiz-adv-x="514" 
d="M211 405h-1l56 -157l107 159q9 13 13 22t4 18q0 7 -13 11.5t-35 5.5v7l9 37q2 0 34.5 -3t60.5 -3q26 0 47.5 1t29.5 2l4 -7l-10 -37q-37 -6 -54 -19.5t-48 -57.5l-48 -68l110 2l5 -9l-7 -30h-135l-40 -57q-11 -18 -14 -39l175 4l4 -9l-6 -30h-179q-2 -14 -5.5 -39.5
t-4.5 -39.5q0 -15 7 -20.5t26 -5.5l38 1l1 -8l-13 -38q-12 0 -43.5 1t-63.5 1q-24 0 -57 -4t-43 -6l10 43q35 6 49 16.5t18.5 28.5t10.5 70l-172 -1l-4 7l8 29h169q-3 29 -13 53l-18 43l-126 -1l-4 7l8 29h107q-14 37 -16 44q-15 40 -25 59t-27.5 30.5t-48.5 12.5v9
q3 12 11 36q9 -1 36 -2t57 -1q32 0 95 5q9 1 15 1.5t8 0.5l3 -10l-7 -34q-38 -4 -50.5 -10t-12.5 -17q0 -9 8 -33z" />
    <glyph glyph-name="brokenbar" unicode="&#xa6;" horiz-adv-x="355" 
d="M163 370q36 284 53 426l61 11l10 -6q-6 -42 -22.5 -163t-35.5 -262l-62 -9zM204 175q-18 -149 -32.5 -271t-19.5 -162l-60 -11l-8 6l53 429l64 12z" />
    <glyph glyph-name="section" unicode="&#xa7;" horiz-adv-x="490" 
d="M419 117q-38 -52 -95 -81q-5 -31 -30.5 -64t-65 -55t-82.5 -22q-46 0 -75 21t-29 53q0 18 9 50t17 41h15q3 -53 29.5 -85.5t68.5 -32.5q33 0 57.5 23.5t24.5 57.5q0 35 -23.5 63t-72.5 70q-57 46 -88 85.5t-31 92.5q0 48 35 95t95 82q5 37 28.5 68.5t58.5 50.5t73 19
q37 0 64 -14t27 -33q0 -14 -10.5 -43t-18.5 -37h-14q-9 34 -33.5 56t-53.5 22q-25 0 -43 -20.5t-18 -50.5q0 -35 24.5 -64t75.5 -72q58 -47 88.5 -84.5t30.5 -86.5q0 -53 -38 -105zM394 180q0 33 -24.5 63t-75.5 76q-53 49 -81.5 83.5t-34.5 74.5q-37 -23 -53 -47t-16 -55
q0 -35 24.5 -65.5t75.5 -76.5q52 -46 81 -81.5t35 -77.5q69 44 69 106z" />
    <glyph glyph-name="dieresis" unicode="&#xa8;" horiz-adv-x="382" 
d="M126 559q-12 13 -12 32q0 20 14 34t35 14q18 0 29 -12.5t11 -32.5t-14 -34t-34 -14q-17 0 -29 13zM286 559q-12 13 -12 32q0 20 14 34t35 14q18 0 29 -12.5t11 -32.5t-14 -34t-34 -14q-17 0 -29 13z" />
    <glyph glyph-name="copyright" unicode="&#xa9;" horiz-adv-x="665" 
d="M93.5 428q46.5 78 123 124t162.5 46q73 0 131.5 -36.5t92 -99t33.5 -137.5q0 -89 -46.5 -167t-123 -124t-162.5 -46q-73 0 -132 36.5t-92 99t-33 137.5q0 89 46.5 167zM116.5 145.5q28.5 -54.5 79 -86t113.5 -31.5q74 0 140 40t106 107.5t40 145.5q0 65 -28.5 119.5
t-79 86t-113.5 31.5q-74 0 -140 -40t-106 -107.5t-40 -145.5q0 -65 28.5 -119.5zM227.5 162.5q-38.5 37.5 -38.5 100.5q0 58 25.5 104t71 72.5t102.5 26.5q27 0 57 -5.5t39 -7.5l2 -4q-3 -7 -10.5 -32t-13.5 -56l-30 -3q1 4 2.5 13.5t1.5 18.5q0 41 -66 41q-57 0 -91 -42
t-34 -113q0 -56 25 -88.5t70 -32.5q34 0 56.5 19.5t37.5 60.5l30 2q-3 -8 -11 -35.5t-13 -50.5l-4 -5q-3 -2 -17 -7t-37 -9.5t-51 -4.5q-65 0 -103.5 37.5z" />
    <glyph glyph-name="ordfeminine" unicode="&#xaa;" horiz-adv-x="324" 
d="M260.5 413q10.5 8 31.5 26l10 -1l9 -19q-42 -42 -64.5 -59t-36.5 -17q-26 0 -26 22q0 10 11.5 60t12.5 56l-4 1q-30 -53 -56 -86.5t-54 -52.5q-30 0 -47 23.5t-17 66.5q0 50 22.5 99t57.5 80t71 31l59 -11l5 15l6 3l37 -9l5 -10q-3 -9 -11.5 -42.5t-19.5 -83.5t-18 -98
l2 -2q4 0 14.5 8zM159 458.5q33 51.5 62 121.5q-14 9 -30.5 14.5t-29.5 5.5q-17 0 -32.5 -19.5t-25 -50.5t-9.5 -63q0 -25 4.5 -42.5t11.5 -17.5q16 0 49 51.5z" />
    <glyph glyph-name="guillemotleft" unicode="&#xab;" horiz-adv-x="411" 
d="M386 375l-120 -159l83 -145l-3 -10l-24 -15l-144 166l2 15l186 173l20 -15v-10zM226 375l-120 -159l83 -145l-3 -10l-24 -15l-144 166l2 15l186 173l20 -15v-10z" />
    <glyph glyph-name="logicalnot" unicode="&#xac;" horiz-adv-x="486" 
d="M438 241q-7 -35 -11 -64q-6 -51 -10.5 -88t-5.5 -48l-51 -11l-8 6l26 200l-133 -1l-220 -1l-5 9l17 49l229 -1q48 0 104 2.5t73 3.5l5 -10q-3 -11 -10 -46z" />
    <glyph glyph-name="uni00AD" unicode="&#xad;" horiz-adv-x="311" 
d="M274 236l-234 -26l-6 8l13 52l168 20q29 3 44.5 5.5t19.5 3.5l6 -9z" />
    <glyph glyph-name="registered" unicode="&#xae;" horiz-adv-x="449" 
d="M93 598q31 52 82.5 82.5t109.5 30.5q49 0 88.5 -24.5t61.5 -66t22 -91.5q0 -61 -31 -113t-82 -82.5t-109 -30.5q-49 0 -88.5 24.5t-62 66t-22.5 91.5q0 61 31 113zM115.5 412.5q18.5 -34.5 51 -54.5t72.5 -20q47 0 89.5 25.5t68.5 68.5t26 93q0 42 -18.5 76.5t-51 54.5
t-72.5 20q-47 0 -89.5 -25.5t-68.5 -68.5t-26 -93q0 -42 18.5 -76.5zM183 440q5 7 8 30l13 111l1 9q0 9 -10 9h-10l-2 4l5 17l41 -1h11l30 2q34 0 53 -13t19 -36q0 -45 -54 -69l22 -43q17 -32 35 -32l3 -4q-1 -12 -9.5 -14.5t-30.5 -2.5q-19 0 -32 32l-20 55h-24
q-7 -33 -7 -46q0 -9 4.5 -12t16.5 -3l2 -4l-4 -17l-31 1h-12q-14 0 -26.5 -1t-16.5 -1l4 21q16 1 21 8zM236 520l27 -3q35 13 35 47q0 33 -45 33q-4 0 -5.5 -2t-1.5 -6z" />
    <glyph glyph-name="macron" unicode="&#xaf;" horiz-adv-x="382" 
d="M374 576l-136 -1l-138 -1l-5 9l15 45l148 -1q30 0 71 2.5t54 3.5l4 -10z" />
    <glyph glyph-name="degree" unicode="&#xb0;" horiz-adv-x="290" 
d="M79 579q19 32 51 51t68 19q46 0 76 -32.5t30 -80.5q0 -37 -19 -69t-50.5 -51t-67.5 -19q-46 0 -76.5 32.5t-30.5 80.5q0 37 19 69zM123.5 461q21.5 -22 52.5 -22q35 0 61 27.5t26 65.5q0 31 -22 53t-53 22q-35 0 -60.5 -27.5t-25.5 -65.5q0 -31 21.5 -53z" />
    <glyph glyph-name="plusminus" unicode="&#xb1;" horiz-adv-x="486" 
d="M294.5 416q-10.5 -62 -16.5 -112q48 0 112 2.5t84 3.5l4 -10l-14 -51l-192 -1q-8 -65 -14 -116l-8 -68l-51 -11l-8 6q2 17 9 70t15 119l-189 -1l-4 9l16 49l184 -1l25 191l52 8l9 -6q-3 -19 -13.5 -81zM424 -73l-335 -1q-49 -1 -102 -1l-4 9l16 49l229 -1q68 0 131 3
q75 2 75 3l4 -10z" />
    <glyph glyph-name="uni00B2" unicode="&#xb2;" horiz-adv-x="318" 
d="M89 446q55 61 84 108.5t29 76.5q0 38 -44 38q-25 0 -49.5 -16t-45.5 -46h-8l-4 41q24 35 60 57.5t70 22.5q43 0 70 -21t27 -56q0 -38 -35.5 -90.5t-130.5 -153.5l2 -5h76q31 0 44.5 11t25.5 46l39 4q-4 -10 -15 -45t-17 -66l-9 -6q-24 1 -85 3t-116 2l-41 -7l-4 25z" />
    <glyph glyph-name="uni00B3" unicode="&#xb3;" horiz-adv-x="284" 
d="M80 399q42 0 70.5 20.5t28.5 51.5q0 27 -22 39.5t-69 12.5l-5 5v32l42 9q25 12 41.5 32t16.5 40q0 16 -10 25.5t-26 9.5t-36.5 -7.5t-36.5 -20.5h-7l-6 37q30 18 57 30.5t55 12.5q36 0 59 -18.5t23 -48.5q0 -28 -21.5 -54t-57.5 -42l-1 -5q74 -22 74 -79
q0 -32 -28.5 -64.5t-72.5 -53t-87 -20.5q-21 0 -30 9.5t-9 31.5q0 10 1 16l7 7q26 -8 50 -8z" />
    <glyph glyph-name="acute" unicode="&#xb4;" horiz-adv-x="382" 
d="M300 609q-50 -41 -103 -88l-9 2l-20 19q45 49 91 103t59 70l10 -2l38 -41l-1 -11q-15 -11 -65 -52z" />
    <glyph glyph-name="uni00B5" unicode="&#xb5;" horiz-adv-x="518" 
d="M495 97q-21 -69 -73 -108q-45 0 -66 24.5t-21 78.5q0 9 2 37l4 38l-7 2q-39 -95 -73.5 -135.5t-75.5 -40.5q-16 9 -27.5 27t-21.5 49l-9 -4q-12 -120 -12 -258v-31q-15 -5 -44.5 -10t-37.5 -6l-15 11l87 423q-1 125 17 254l22 13h11l57 -28l-69 -271q9 -76 47 -76
q35 0 80 61t82 157q14 81 31 139l32 20q33 -23 52 -49q-35 -79 -79 -172l-10 -52q-4 -20 -4 -39q0 -33 13 -50t38 -17q27 0 64 21z" />
    <glyph glyph-name="paragraph" unicode="&#xb6;" horiz-adv-x="539" 
d="M367.5 590q-3.5 2 -21.5 2q-56 0 -85.5 -54t-29.5 -145q0 -49 11 -88.5t33 -77.5l-2 -15q-91 8 -149.5 60t-58.5 145q0 62 29 113t81.5 81t118.5 30q31 0 81 -2l44 -2q34 0 70.5 1.5t50.5 1.5l-11 -42l-2 -4q-42 2 -59 -7.5t-22 -37.5q-17 -62 -60 -395
q-11 -89 -31.5 -144.5t-63 -85t-115.5 -29.5q-50 0 -84 21.5t-34 63.5q0 22 14.5 50t33.5 48h15q-2 -24 -2 -33q0 -50 20.5 -76.5t56.5 -26.5q40 0 63 18.5t35.5 59t21.5 114.5l55 444q0 10 -3.5 12z" />
    <glyph glyph-name="periodcentered" unicode="&#xb7;" horiz-adv-x="229" 
d="M69 182.5q-12 14.5 -12 35.5q0 28 19.5 48.5t48.5 20.5q24 0 37 -14t13 -36q0 -28 -20 -48.5t-50 -20.5q-24 0 -36 14.5z" />
    <glyph glyph-name="cedilla" unicode="&#xb8;" horiz-adv-x="383" 
d="M194 23l-33 -73q6 -4 26.5 -20t33 -32.5t12.5 -32.5q0 -25 -20 -48t-50 -36.5t-58 -13.5q-23 0 -42.5 9.5t-19.5 24.5q0 16 32 58h8q-2 -27 10.5 -42t35.5 -15q21 0 36 11.5t15 28.5q0 15 -20 33.5t-53 39.5l45 108h42z" />
    <glyph glyph-name="uni00B9" unicode="&#xb9;" horiz-adv-x="240" 
d="M162 524.5q-13 -91.5 -13 -109.5q0 -16 5.5 -22.5t18.5 -6.5q11 0 20 1t12 1l1 -3l-11 -36q-9 0 -34 1t-52 1q-22 0 -51.5 -3t-38.5 -4l9 35q30 2 44 13t17 38l26 209q2 22 -4 28.5t-24 6.5q-10 0 -19.5 -1t-12.5 -2l-2 3l7 32q48 6 72 10q38 6 56.5 8.5t21.5 3.5l4 -15
q-13 -10 -19.5 -21t-10.5 -30q-9 -46 -22 -137.5z" />
    <glyph glyph-name="ordmasculine" unicode="&#xba;" horiz-adv-x="291" 
d="M55.5 372.5q-22.5 29.5 -22.5 80.5q0 52 20.5 96.5t55.5 71t76 26.5q40 0 62 -26.5t22 -74.5q0 -56 -20.5 -102.5t-55.5 -73.5t-77 -27q-38 0 -60.5 29.5zM186 422q17 35 17 93q0 40 -11.5 62t-32.5 22q-27 0 -44.5 -34t-17.5 -87q0 -42 12 -66.5t32 -24.5q28 0 45 35z
" />
    <glyph glyph-name="guillemotright" unicode="&#xbb;" horiz-adv-x="411" 
d="M184 71l119 159l-82 145l2 10l24 15l145 -166l-2 -15l-186 -173l-21 15zM24 71l119 159l-82 145l2 10l24 15l145 -166l-2 -15l-186 -173l-21 15z" />
    <glyph glyph-name="onequarter" unicode="&#xbc;" horiz-adv-x="666" 
d="M162 440.5q-13 -91.5 -13 -109.5q0 -16 5.5 -22.5t18.5 -6.5q11 0 20 1t12 1l1 -3l-11 -36q-9 0 -34 1t-52 1q-22 0 -51.5 -3t-38.5 -4l9 35q30 2 44 13t17 38l26 209q2 22 -4 28.5t-24 6.5q-10 0 -19.5 -1t-12.5 -2l-2 3l7 32q48 6 72 10q38 6 56.5 8.5t21.5 3.5l4 -15
q-13 -10 -19.5 -21t-10.5 -30q-9 -46 -22 -137.5zM424 467.5q-89 -134.5 -144 -222.5q-71 -114 -132.5 -210.5t-82.5 -129.5l-38 19l-5 12q22 33 85 130t135 209l256 403l39 -19l5 -14q-29 -43 -118 -177.5zM558 376l4 1l39 -6l-25 -219h52l4 -7l-11 -44l-51 2
q-4 -30 -6 -59.5t-2 -37.5l-5 -6l-62 -7l-4 6q2 10 7 39.5t10 65.5l-148 3l6 34zM514 152l15 125h-6l-100 -125h91z" />
    <glyph glyph-name="onehalf" unicode="&#xbd;" horiz-adv-x="683" 
d="M162 440.5q-13 -91.5 -13 -109.5q0 -16 5.5 -22.5t18.5 -6.5q11 0 20 1t12 1l1 -3l-11 -36q-9 0 -34 1t-52 1q-22 0 -51.5 -3t-38.5 -4l9 35q30 2 44 13t17 38l26 209q2 22 -4 28.5t-24 6.5q-10 0 -19.5 -1t-12.5 -2l-2 3l7 32q48 6 72 10q38 6 56.5 8.5t21.5 3.5l4 -15
q-13 -10 -19.5 -21t-10.5 -30q-9 -46 -22 -137.5zM424 467.5q-89 -134.5 -144 -222.5q-71 -114 -132.5 -210.5t-82.5 -129.5l-38 19l-5 12q22 33 85 130t135 209l256 403l39 -19l5 -14q-29 -43 -118 -177.5zM439 95q55 61 84 108.5t29 76.5q0 38 -44 38q-25 0 -49.5 -16
t-45.5 -46h-8l-4 41q24 35 60 57.5t70 22.5q43 0 70 -21t27 -56q0 -38 -35.5 -90.5t-130.5 -153.5l2 -5h76q31 0 44.5 11t25.5 46l39 4q-4 -10 -15 -45t-17 -66l-9 -6q-24 1 -85 3t-116 2l-41 -7l-4 25z" />
    <glyph glyph-name="threequarters" unicode="&#xbe;" horiz-adv-x="710" 
d="M80 315q42 0 70.5 20.5t28.5 51.5q0 27 -22 39.5t-69 12.5l-5 5v32l42 9q25 12 41.5 32t16.5 40q0 16 -10 25.5t-26 9.5t-36.5 -7.5t-36.5 -20.5h-7l-6 37q30 18 57 30.5t55 12.5q36 0 59 -18.5t23 -48.5q0 -28 -21.5 -54t-57.5 -42l-1 -5q74 -22 74 -79
q0 -32 -28.5 -64.5t-72.5 -53t-87 -20.5q-21 0 -30 9.5t-9 31.5q0 10 1 16l7 7q26 -8 50 -8zM468 467.5q-89 -134.5 -144 -222.5q-71 -114 -132.5 -210.5t-82.5 -129.5l-38 19l-5 12q22 33 85 130t135 209l256 403l39 -19l5 -14q-29 -43 -118 -177.5zM602 376l4 1l39 -6
l-25 -219h52l4 -7l-11 -44l-51 2q-4 -30 -6 -59.5t-2 -37.5l-5 -6l-62 -7l-4 6q2 10 7 39.5t10 65.5l-148 3l6 34zM558 152l15 125h-6l-100 -125h91z" />
    <glyph glyph-name="questiondown" unicode="&#xbf;" horiz-adv-x="346" 
d="M274.5 449.5q12.5 -14.5 12.5 -35.5q0 -28 -20 -48.5t-49 -20.5q-24 0 -36.5 14t-12.5 36q0 28 19.5 48.5t49.5 20.5q24 0 36.5 -14.5zM250 115l-123 -76q-30 -20 -48 -43.5t-18 -54.5q0 -53 47.5 -81.5t131.5 -33.5l1 -11l-38 -53l-14 -4q-55 2 -100.5 22.5t-71.5 54.5
t-26 75q0 47 18 79.5t45 54t75 50.5l47 30l4 9l-8 95l4 8l62 17l9 -4l8 -120z" />
    <glyph glyph-name="Agrave" unicode="&#xc0;" horiz-adv-x="556" 
d="M482.5 58.5q17.5 -14.5 59.5 -19.5l2 -3l-11 -39q-11 0 -41.5 1.5t-59.5 1.5q-46 0 -88.5 -4t-54.5 -6l-2 7l8 36q38 3 57.5 8t27 14.5t7.5 27.5q0 12 -4 38l-18 113q-24 1 -100 1q-43 0 -107 -8l-49 -108q-14 -29 -14 -46q0 -19 12.5 -27.5t40.5 -8.5h56v-3l-10 -41
q-12 1 -52 4t-80 3q-35 0 -65 -1t-40 -2l13 45q29 3 47.5 19.5t38.5 58.5l248 511l56 17h8q0 -7 30.5 -200t59.5 -337q7 -38 24.5 -52.5zM266 271q47 0 91 6l-44 267h-7l-125 -273h85zM247 822l9 6q18 -10 79 -44t120 -65l-6 -24l-8 -5q-66 25 -127.5 46.5t-78.5 27.5l-4 10
z" />
    <glyph glyph-name="Aacute" unicode="&#xc1;" horiz-adv-x="556" 
d="M482.5 58.5q17.5 -14.5 59.5 -19.5l2 -3l-11 -39q-11 0 -41.5 1.5t-59.5 1.5q-46 0 -88.5 -4t-54.5 -6l-2 7l8 36q38 3 57.5 8t27 14.5t7.5 27.5q0 12 -4 38l-18 113q-24 1 -100 1q-43 0 -107 -8l-49 -108q-14 -29 -14 -46q0 -19 12.5 -27.5t40.5 -8.5h56v-3l-10 -41
q-12 1 -52 4t-80 3q-35 0 -65 -1t-40 -2l13 45q29 3 47.5 19.5t38.5 58.5l248 511l56 17h8q0 -7 30.5 -200t59.5 -337q7 -38 24.5 -52.5zM266 271q47 0 91 6l-44 267h-7l-125 -273h85zM372.5 738.5q-61.5 -21.5 -127.5 -46.5l-8 5l-6 24q59 31 120 65t79 44l9 -6l16 -48
l-4 -10q-17 -6 -78.5 -27.5z" />
    <glyph glyph-name="Acircumflex" unicode="&#xc2;" horiz-adv-x="556" 
d="M482.5 58.5q17.5 -14.5 59.5 -19.5l2 -3l-11 -39q-11 0 -41.5 1.5t-59.5 1.5q-46 0 -88.5 -4t-54.5 -6l-2 7l8 36q38 3 57.5 8t27 14.5t7.5 27.5q0 12 -4 38l-18 113q-24 1 -100 1q-43 0 -107 -8l-49 -108q-14 -29 -14 -46q0 -19 12.5 -27.5t40.5 -8.5h56v-3l-10 -41
q-12 1 -52 4t-80 3q-35 0 -65 -1t-40 -2l13 45q29 3 47.5 19.5t38.5 58.5l248 511l56 17h8q0 -7 30.5 -200t59.5 -337q7 -38 24.5 -52.5zM266 271q47 0 91 6l-44 267h-7l-125 -273h85zM352 846h14l120 -111l-17 -22l-9 -1l-110 65l-125 -65l-9 1l-11 22z" />
    <glyph glyph-name="Atilde" unicode="&#xc3;" horiz-adv-x="556" 
d="M482.5 58.5q17.5 -14.5 59.5 -19.5l2 -3l-11 -39q-11 0 -41.5 1.5t-59.5 1.5q-46 0 -88.5 -4t-54.5 -6l-2 7l8 36q38 3 57.5 8t27 14.5t7.5 27.5q0 12 -4 38l-18 113q-24 1 -100 1q-43 0 -107 -8l-49 -108q-14 -29 -14 -46q0 -19 12.5 -27.5t40.5 -8.5h56v-3l-10 -41
q-12 1 -52 4t-80 3q-35 0 -65 -1t-40 -2l13 45q29 3 47.5 19.5t38.5 58.5l248 511l56 17h8q0 -7 30.5 -200t59.5 -337q7 -38 24.5 -52.5zM266 271q47 0 91 6l-44 267h-7l-125 -273h85zM180 720l1 5l83 79l15 4q18 0 74 -18q7 -2 29.5 -8.5t33.5 -6.5q10 0 24.5 10t26.5 21
t15 14h6l19 -21v-5l-83 -79l-16 -4q-19 0 -73 18q-9 3 -31 9t-32 6t-25 -10t-26.5 -21t-14.5 -14h-6z" />
    <glyph glyph-name="Adieresis" unicode="&#xc4;" horiz-adv-x="556" 
d="M482.5 58.5q17.5 -14.5 59.5 -19.5l2 -3l-11 -39q-11 0 -41.5 1.5t-59.5 1.5q-46 0 -88.5 -4t-54.5 -6l-2 7l8 36q38 3 57.5 8t27 14.5t7.5 27.5q0 12 -4 38l-18 113q-24 1 -100 1q-43 0 -107 -8l-49 -108q-14 -29 -14 -46q0 -19 12.5 -27.5t40.5 -8.5h56v-3l-10 -41
q-12 1 -52 4t-80 3q-35 0 -65 -1t-40 -2l13 45q29 3 47.5 19.5t38.5 58.5l248 511l56 17h8q0 -7 30.5 -200t59.5 -337q7 -38 24.5 -52.5zM266 271q47 0 91 6l-44 267h-7l-125 -273h85zM228 736q-9 11 -9 27q0 22 16 38.5t39 16.5q17 0 26.5 -11t9.5 -27q0 -22 -16.5 -38.5
t-39.5 -16.5q-17 0 -26 11zM388 736q-9 11 -9 27q0 22 16.5 38.5t38.5 16.5q17 0 26.5 -11t9.5 -27q0 -22 -16.5 -38.5t-39.5 -16.5q-17 0 -26 11z" />
    <glyph glyph-name="Aring" unicode="&#xc5;" horiz-adv-x="556" 
d="M482.5 58.5q17.5 -14.5 59.5 -19.5l2 -3l-11 -39q-11 0 -41.5 1.5t-59.5 1.5q-46 0 -88.5 -4t-54.5 -6l-2 7l8 36q38 3 57.5 8t27 14.5t7.5 27.5q0 12 -4 38l-18 113q-24 1 -100 1q-43 0 -107 -8l-49 -108q-14 -29 -14 -46q0 -19 12.5 -27.5t40.5 -8.5h56v-3l-10 -41
q-12 1 -52 4t-80 3q-35 0 -65 -1t-40 -2l13 45q29 3 47.5 19.5t38.5 58.5l248 511l56 17h8q0 -7 30.5 -200t59.5 -337q7 -38 24.5 -52.5zM266 271q47 0 91 6l-44 267h-7l-125 -273h85zM280 692.5q-17 18.5 -17 49.5q0 41 26.5 68.5t66.5 27.5q34 0 50 -19t16 -47
q0 -39 -26.5 -68.5t-67.5 -29.5q-31 0 -48 18.5zM372.5 721.5q14.5 9.5 14.5 35.5q0 19 -11.5 30.5t-32.5 11.5q-22 0 -34.5 -12t-12.5 -33t13.5 -31.5t29.5 -10.5q19 0 33.5 9.5z" />
    <glyph glyph-name="AE" unicode="&#xc6;" horiz-adv-x="778" 
d="M340 60q27 22 27 57v36l-2 124l-96 -8l-89 -9l-84 -140q-13 -21 -17 -31t-4 -20q0 -17 11 -23.5t38 -6.5h54l-11 -46q-12 1 -53 4t-79 3q-20 0 -39.5 -1.5t-26.5 -2.5l-2 34q3 3 13.5 14.5t26 31.5t31.5 45l291 458q-3 16 -22 16q-10 0 -20 -1t-13 -1l-2 4l13 43
q14 -1 56.5 -2t96.5 -1q117 0 181.5 2.5t106.5 9.5l2 -6q-2 -6 -8.5 -27t-16 -59t-17.5 -79l-47 -4q2 6 5.5 26.5t3.5 36.5q0 23 -11 33.5t-40.5 14t-94.5 3.5q-43 0 -56 -6.5t-13 -24.5l2 -230l116 11l90 13l4 -5l-19 -52l-83 -2l-108 -9l6 -171q1 -37 17.5 -52.5
t56.5 -15.5q73 0 105.5 8t48.5 32t31 82l44 5l3 -5q-5 -14 -20 -64.5t-27 -102.5l-5 -6q2 2 -108.5 4.5t-182.5 2.5q-46 0 -88.5 -4t-54.5 -6l-1 7l6 38q47 3 74 25zM364 321l-1 219h-9l-141 -230l80 5z" />
    <glyph glyph-name="Ccedilla" unicode="&#xc7;" horiz-adv-x="601" 
d="M169.5 20.5q-59.5 32.5 -92 92.5t-32.5 140q0 110 49 200.5t134 142.5t189 52q35 0 73.5 -5t65.5 -10.5t34 -7.5l3 -6l-9.5 -28.5t-17.5 -59t-18 -76.5l-43 -4q1 6 5 26.5t4 32.5q0 84 -131 84q-73 0 -130 -39t-89 -110t-32 -163q0 -114 51 -181.5t139 -67.5q66 0 112 39
t74 121l43 4q-5 -15 -21 -65.5t-25 -94.5l-6 -9q0 -1 -28 -11.5t-70.5 -19.5t-93.5 -9q-78 0 -137.5 32.5zM336 23l-33 -73q6 -4 26.5 -20t33 -32.5t12.5 -32.5q0 -25 -20 -48t-50 -36.5t-58 -13.5q-23 0 -42.5 9.5t-19.5 24.5q0 16 32 58h8q-2 -27 10.5 -42t35.5 -15
q21 0 36 11.5t15 28.5q0 15 -20 33.5t-53 39.5l45 108h42z" />
    <glyph glyph-name="Egrave" unicode="&#xc8;" horiz-adv-x="568" 
d="M199 48q14 -7 58 -7q82 0 117.5 8t52.5 32t32 83l41 5l2 -5q-5 -14 -20 -64t-27 -102l-5 -5q-32 1 -132.5 4t-156.5 3q-45 0 -83.5 -4t-48.5 -6l11 43q44 6 62 23.5t23 60.5l53 425q2 18 2 24q0 17 -7 23.5t-24 6.5q-10 0 -19.5 -1t-13.5 -1l-1 3l11 42q12 -1 49 -2
t82 -1q115 0 178 2.5t111 9.5l2 -5q-2 -6 -8.5 -26.5t-16 -58.5t-17.5 -79l-44 -4q2 6 5.5 27.5t3.5 37.5q0 23 -11 33.5t-39 13.5t-92 3q-35 0 -47.5 -2t-17.5 -9.5t-8 -27.5l-31 -199l99 -1q21 0 62.5 4.5t55.5 6.5l3 -4l-20 -56q-14 1 -53 2t-82 1q-37 0 -74 -7
q-6 -42 -17 -111q-14 -87 -14 -107q0 -25 14 -32zM263 822l9 6q18 -10 79 -44t120 -65l-6 -24l-8 -5q-66 25 -127.5 46.5t-78.5 27.5l-4 10z" />
    <glyph glyph-name="Eacute" unicode="&#xc9;" horiz-adv-x="568" 
d="M199 48q14 -7 58 -7q82 0 117.5 8t52.5 32t32 83l41 5l2 -5q-5 -14 -20 -64t-27 -102l-5 -5q-32 1 -132.5 4t-156.5 3q-45 0 -83.5 -4t-48.5 -6l11 43q44 6 62 23.5t23 60.5l53 425q2 18 2 24q0 17 -7 23.5t-24 6.5q-10 0 -19.5 -1t-13.5 -1l-1 3l11 42q12 -1 49 -2
t82 -1q115 0 178 2.5t111 9.5l2 -5q-2 -6 -8.5 -26.5t-16 -58.5t-17.5 -79l-44 -4q2 6 5.5 27.5t3.5 37.5q0 23 -11 33.5t-39 13.5t-92 3q-35 0 -47.5 -2t-17.5 -9.5t-8 -27.5l-31 -199l99 -1q21 0 62.5 4.5t55.5 6.5l3 -4l-20 -56q-14 1 -53 2t-82 1q-37 0 -74 -7
q-6 -42 -17 -111q-14 -87 -14 -107q0 -25 14 -32zM388.5 738.5q-61.5 -21.5 -127.5 -46.5l-8 5l-6 24q59 31 120 65t79 44l9 -6l16 -48l-4 -10q-17 -6 -78.5 -27.5z" />
    <glyph glyph-name="Ecircumflex" unicode="&#xca;" horiz-adv-x="568" 
d="M199 48q14 -7 58 -7q82 0 117.5 8t52.5 32t32 83l41 5l2 -5q-5 -14 -20 -64t-27 -102l-5 -5q-32 1 -132.5 4t-156.5 3q-45 0 -83.5 -4t-48.5 -6l11 43q44 6 62 23.5t23 60.5l53 425q2 18 2 24q0 17 -7 23.5t-24 6.5q-10 0 -19.5 -1t-13.5 -1l-1 3l11 42q12 -1 49 -2
t82 -1q115 0 178 2.5t111 9.5l2 -5q-2 -6 -8.5 -26.5t-16 -58.5t-17.5 -79l-44 -4q2 6 5.5 27.5t3.5 37.5q0 23 -11 33.5t-39 13.5t-92 3q-35 0 -47.5 -2t-17.5 -9.5t-8 -27.5l-31 -199l99 -1q21 0 62.5 4.5t55.5 6.5l3 -4l-20 -56q-14 1 -53 2t-82 1q-37 0 -74 -7
q-6 -42 -17 -111q-14 -87 -14 -107q0 -25 14 -32zM368 846h14l120 -111l-17 -22l-9 -1l-110 65l-125 -65l-9 1l-11 22z" />
    <glyph glyph-name="Edieresis" unicode="&#xcb;" horiz-adv-x="567" 
d="M199 48q14 -7 58 -7q82 0 117.5 8t52.5 32t32 83l41 5l2 -5q-5 -14 -20 -64t-27 -102l-5 -5q-32 1 -132.5 4t-156.5 3q-45 0 -83.5 -4t-48.5 -6l11 43q44 6 62 23.5t23 60.5l53 425q2 18 2 24q0 17 -7 23.5t-24 6.5q-10 0 -19.5 -1t-13.5 -1l-1 3l11 42q12 -1 49 -2
t82 -1q115 0 178 2.5t111 9.5l2 -5q-2 -6 -8.5 -26.5t-16 -58.5t-17.5 -79l-44 -4q2 6 5.5 27.5t3.5 37.5q0 23 -11 33.5t-39 13.5t-92 3q-35 0 -47.5 -2t-17.5 -9.5t-8 -27.5l-31 -199l99 -1q21 0 62.5 4.5t55.5 6.5l3 -4l-20 -56q-14 1 -53 2t-82 1q-37 0 -74 -7
q-6 -42 -17 -111q-14 -87 -14 -107q0 -25 14 -32zM244 736q-9 11 -9 27q0 22 16 38.5t39 16.5q17 0 26.5 -11t9.5 -27q0 -22 -16.5 -38.5t-39.5 -16.5q-17 0 -26 11zM404 736q-9 11 -9 27q0 22 16.5 38.5t38.5 16.5q17 0 26.5 -11t9.5 -27q0 -22 -16.5 -38.5t-39.5 -16.5
q-17 0 -26 11z" />
    <glyph glyph-name="Igrave" unicode="&#xcc;" horiz-adv-x="347" 
d="M276 586.5q-15 -11.5 -20 -40.5q-70 -406 -70 -461q0 -24 8.5 -33.5t28.5 -9.5q18 0 32 1t19 2l2 -4l-14 -44q-13 1 -49.5 2t-75.5 1q-30 0 -65 -5t-46 -7l12 43q46 9 64.5 27t23.5 60l52 424q2 18 2 23q0 18 -7 24.5t-24 6.5q-12 0 -24.5 -1t-16.5 -1l-1 3l12 43
q2 0 42 -2t71 -2q28 0 63.5 4t46.5 6l-10 -43q-41 -5 -56 -16.5zM149 822l9 6q18 -10 79 -44t120 -65l-6 -24l-8 -5q-66 25 -127.5 46.5t-78.5 27.5l-4 10z" />
    <glyph glyph-name="Iacute" unicode="&#xcd;" horiz-adv-x="347" 
d="M276 586.5q-15 -11.5 -20 -40.5q-70 -406 -70 -461q0 -24 8.5 -33.5t28.5 -9.5q18 0 32 1t19 2l2 -4l-14 -44q-13 1 -49.5 2t-75.5 1q-30 0 -65 -5t-46 -7l12 43q46 9 64.5 27t23.5 60l52 424q2 18 2 23q0 18 -7 24.5t-24 6.5q-12 0 -24.5 -1t-16.5 -1l-1 3l12 43
q2 0 42 -2t71 -2q28 0 63.5 4t46.5 6l-10 -43q-41 -5 -56 -16.5zM274.5 738.5q-61.5 -21.5 -127.5 -46.5l-8 5l-6 24q59 31 120 65t79 44l9 -6l16 -48l-4 -10q-17 -6 -78.5 -27.5z" />
    <glyph glyph-name="Icircumflex" unicode="&#xce;" horiz-adv-x="346" 
d="M276 586.5q-15 -11.5 -20 -40.5q-70 -406 -70 -461q0 -24 8.5 -33.5t28.5 -9.5q18 0 32 1t19 2l2 -4l-14 -44q-13 1 -49.5 2t-75.5 1q-30 0 -65 -5t-46 -7l12 43q46 9 64.5 27t23.5 60l52 424q2 18 2 23q0 18 -7 24.5t-24 6.5q-12 0 -24.5 -1t-16.5 -1l-1 3l12 43
q2 0 42 -2t71 -2q28 0 63.5 4t46.5 6l-10 -43q-41 -5 -56 -16.5zM254 846h14l120 -111l-17 -22l-9 -1l-110 65l-125 -65l-9 1l-11 22z" />
    <glyph glyph-name="Eth" unicode="&#xd0;" horiz-adv-x="684" 
d="M523 606.5q66 -33.5 103 -93.5t37 -137q0 -104 -50 -193t-134 -142t-183 -53q-16 2 -66 7t-80 5t-65.5 -5t-46.5 -7l11 43q46 9 64 26.5t23 59.5l23 187h-133l-6 7l11 32h133l24 199q2 18 2 24q0 17 -6.5 23.5t-23.5 6.5q-10 0 -20 -1t-14 -1l-1 4l11 41q10 -1 39.5 -2
t60.5 -1q40 0 80.5 1.5t55.5 2.5q85 0 151 -33.5zM452.5 75.5q59.5 40.5 92 113.5t32.5 167q0 115 -69 177.5t-200 62.5q-20 0 -27 -4.5t-9 -17.5l-37 -231h161l4 -7l-10 -32h-162q-27 -173 -27 -197q0 -29 10.5 -44.5t35 -21.5t68.5 -6q78 0 137.5 40.5z" />
    <glyph glyph-name="Ntilde" unicode="&#xd1;" horiz-adv-x="689" 
d="M669.5 639.5q30.5 3.5 39.5 5.5l-10 -44q-34 -5 -52 -19.5t-22 -43.5l-82 -566l-25 -14q-68 138 -133 263.5t-107 203t-53 97.5h-4l-60 -441q-1 -5 -1 -14q0 -14 6 -19.5t20 -5.5h49l2 -3l-14 -43q-10 1 -42 2.5t-58 1.5q-23 0 -51.5 -3.5t-37.5 -4.5l11 43q31 4 47 18.5
t20 44.5l67 443q1 4 1 12q0 23 -17.5 33.5t-60.5 15.5l-1 5l11 34q9 -1 37 -3t44 -2q19 0 38 1.5t24 2.5q58 -117 117 -229.5t98 -185t50 -91.5h4l52 418q4 43 -27 43l-36 -1l-2 4l14 42q9 -1 35.5 -2.5t53.5 -1.5q25 0 55.5 3.5zM247 720l1 5l83 79l15 4q18 0 74 -18
q7 -2 29.5 -8.5t33.5 -6.5q10 0 24.5 10t26.5 21t15 14h6l19 -21v-5l-83 -79l-16 -4q-19 0 -73 18q-9 3 -31 9t-32 6t-25 -10t-26.5 -21t-14.5 -14h-6z" />
    <glyph glyph-name="Ograve" unicode="&#xd2;" horiz-adv-x="663" 
d="M167 22.5q-57 34.5 -89.5 95t-32.5 136.5q0 108 46 198.5t124.5 143t171.5 52.5q73 0 131.5 -34.5t92 -95t33.5 -136.5q0 -108 -46.5 -198.5t-126.5 -143t-175 -52.5q-72 0 -129 34.5zM437 75q56 40 88 110.5t32 157.5q0 75 -23.5 131.5t-66.5 87.5t-99 31
q-68 0 -123 -40t-86.5 -110.5t-31.5 -157.5q0 -75 23 -131.5t64.5 -87.5t96.5 -31q70 0 126 40zM302 822l9 6q18 -10 79 -44t120 -65l-6 -24l-8 -5q-66 25 -127.5 46.5t-78.5 27.5l-4 10z" />
    <glyph glyph-name="Oacute" unicode="&#xd3;" horiz-adv-x="663" 
d="M167 22.5q-57 34.5 -89.5 95t-32.5 136.5q0 108 46 198.5t124.5 143t171.5 52.5q73 0 131.5 -34.5t92 -95t33.5 -136.5q0 -108 -46.5 -198.5t-126.5 -143t-175 -52.5q-72 0 -129 34.5zM437 75q56 40 88 110.5t32 157.5q0 75 -23.5 131.5t-66.5 87.5t-99 31
q-68 0 -123 -40t-86.5 -110.5t-31.5 -157.5q0 -75 23 -131.5t64.5 -87.5t96.5 -31q70 0 126 40zM427.5 738.5q-61.5 -21.5 -127.5 -46.5l-8 5l-6 24q59 31 120 65t79 44l9 -6l16 -48l-4 -10q-17 -6 -78.5 -27.5z" />
    <glyph glyph-name="Ocircumflex" unicode="&#xd4;" horiz-adv-x="663" 
d="M167 22.5q-57 34.5 -89.5 95t-32.5 136.5q0 108 46 198.5t124.5 143t171.5 52.5q73 0 131.5 -34.5t92 -95t33.5 -136.5q0 -108 -46.5 -198.5t-126.5 -143t-175 -52.5q-72 0 -129 34.5zM437 75q56 40 88 110.5t32 157.5q0 75 -23.5 131.5t-66.5 87.5t-99 31
q-68 0 -123 -40t-86.5 -110.5t-31.5 -157.5q0 -75 23 -131.5t64.5 -87.5t96.5 -31q70 0 126 40zM407 846h14l120 -111l-17 -22l-9 -1l-110 65l-125 -65l-9 1l-11 22z" />
    <glyph glyph-name="Otilde" unicode="&#xd5;" horiz-adv-x="663" 
d="M167 22.5q-57 34.5 -89.5 95t-32.5 136.5q0 108 46 198.5t124.5 143t171.5 52.5q73 0 131.5 -34.5t92 -95t33.5 -136.5q0 -108 -46.5 -198.5t-126.5 -143t-175 -52.5q-72 0 -129 34.5zM437 75q56 40 88 110.5t32 157.5q0 75 -23.5 131.5t-66.5 87.5t-99 31
q-68 0 -123 -40t-86.5 -110.5t-31.5 -157.5q0 -75 23 -131.5t64.5 -87.5t96.5 -31q70 0 126 40zM235 720l1 5l83 79l15 4q18 0 74 -18q7 -2 29.5 -8.5t33.5 -6.5q10 0 24.5 10t26.5 21t15 14h6l19 -21v-5l-83 -79l-16 -4q-19 0 -73 18q-9 3 -31 9t-32 6t-25 -10t-26.5 -21
t-14.5 -14h-6z" />
    <glyph glyph-name="multiply" unicode="&#xd7;" horiz-adv-x="486" 
d="M440 404l-153 -143q31 -36 70.5 -79t51.5 -56l-5 -12l-45 -30l-116 138q-52 -49 -94.5 -89t-56.5 -53l-10 3l-22 42l148 136q-41 49 -75.5 89.5t-45.5 54.5l3 11l47 26q11 -13 43.5 -53t72.5 -88q50 47 93 90l58 58l10 -3z" />
    <glyph glyph-name="Oslash" unicode="&#xd8;" horiz-adv-x="663" 
d="M609.5 521.5q34.5 -61.5 34.5 -139.5q0 -108 -46.5 -198.5t-126.5 -143t-175 -52.5q-54 0 -102 20l-57 -106l-27 6l-2 10l56 106q-55 34 -87 94.5t-32 135.5q0 108 46 198.5t124.5 143t171.5 52.5q50 0 95 -17l39 77l29 -7l3 -12l-38 -73q60 -33 94.5 -94.5zM245 553
q-55 -40 -86.5 -110.5t-31.5 -157.5q0 -65 17.5 -117t50.5 -85l257 489q-38 21 -84 21q-68 0 -123 -40zM437 75q56 40 88 110.5t32 157.5q0 68 -20 121.5t-56 86.5l-259 -490q40 -26 89 -26q70 0 126 40z" />
    <glyph glyph-name="Ugrave" unicode="&#xd9;" horiz-adv-x="652" 
d="M175 202q0 -78 35.5 -119.5t104.5 -41.5q80 0 127.5 44.5t57.5 129.5q6 44 18.5 165t16.5 162q1 8 1 21q0 20 -6 26.5t-24 6.5q-12 0 -25 -1t-18 -1v4l11 41q12 -1 43.5 -2t63.5 -1q26 0 55.5 4t38.5 6l-10 -43q-30 -4 -44 -9t-20 -15.5t-9 -32.5l-42 -340
q-13 -103 -82 -160.5t-182 -57.5q-90 0 -137.5 46.5t-47.5 132.5q0 21 3 43l41 332q2 18 2 24q0 17 -7 23.5t-25 6.5q-10 0 -20 -1t-13 -1l-1 4l12 41q11 -1 42.5 -2t63.5 -1q26 0 58.5 4t42.5 6l-9 -43q-36 -5 -50 -16.5t-19 -40.5l-44 -294q-3 -27 -3 -50zM297 822l9 6
q18 -10 79 -44t120 -65l-6 -24l-8 -5q-66 25 -127.5 46.5t-78.5 27.5l-4 10z" />
    <glyph glyph-name="Uacute" unicode="&#xda;" horiz-adv-x="652" 
d="M175 202q0 -78 35.5 -119.5t104.5 -41.5q80 0 127.5 44.5t57.5 129.5q6 44 18.5 165t16.5 162q1 8 1 21q0 20 -6 26.5t-24 6.5q-12 0 -25 -1t-18 -1v4l11 41q12 -1 43.5 -2t63.5 -1q26 0 55.5 4t38.5 6l-10 -43q-30 -4 -44 -9t-20 -15.5t-9 -32.5l-42 -340
q-13 -103 -82 -160.5t-182 -57.5q-90 0 -137.5 46.5t-47.5 132.5q0 21 3 43l41 332q2 18 2 24q0 17 -7 23.5t-25 6.5q-10 0 -20 -1t-13 -1l-1 4l12 41q11 -1 42.5 -2t63.5 -1q26 0 58.5 4t42.5 6l-9 -43q-36 -5 -50 -16.5t-19 -40.5l-44 -294q-3 -27 -3 -50zM422.5 738.5
q-61.5 -21.5 -127.5 -46.5l-8 5l-6 24q59 31 120 65t79 44l9 -6l16 -48l-4 -10q-17 -6 -78.5 -27.5z" />
    <glyph glyph-name="Ucircumflex" unicode="&#xdb;" horiz-adv-x="655" 
d="M175 202q0 -78 35.5 -119.5t104.5 -41.5q80 0 127.5 44.5t57.5 129.5q6 44 18.5 165t16.5 162q1 8 1 21q0 20 -6 26.5t-24 6.5q-12 0 -25 -1t-18 -1v4l11 41q12 -1 43.5 -2t63.5 -1q26 0 55.5 4t38.5 6l-10 -43q-30 -4 -44 -9t-20 -15.5t-9 -32.5l-42 -340
q-13 -103 -82 -160.5t-182 -57.5q-90 0 -137.5 46.5t-47.5 132.5q0 21 3 43l41 332q2 18 2 24q0 17 -7 23.5t-25 6.5q-10 0 -20 -1t-13 -1l-1 4l12 41q11 -1 42.5 -2t63.5 -1q26 0 58.5 4t42.5 6l-9 -43q-36 -5 -50 -16.5t-19 -40.5l-44 -294q-3 -27 -3 -50zM403 846h14
l120 -111l-17 -22l-9 -1l-110 65l-125 -65l-9 1l-11 22z" />
    <glyph glyph-name="Udieresis" unicode="&#xdc;" horiz-adv-x="655" 
d="M175 202q0 -78 35.5 -119.5t104.5 -41.5q80 0 127.5 44.5t57.5 129.5q6 44 18.5 165t16.5 162q1 8 1 21q0 20 -6 26.5t-24 6.5q-12 0 -25 -1t-18 -1v4l11 41q12 -1 43.5 -2t63.5 -1q26 0 55.5 4t38.5 6l-10 -43q-30 -4 -44 -9t-20 -15.5t-9 -32.5l-42 -340
q-13 -103 -82 -160.5t-182 -57.5q-90 0 -137.5 46.5t-47.5 132.5q0 21 3 43l41 332q2 18 2 24q0 17 -7 23.5t-25 6.5q-10 0 -20 -1t-13 -1l-1 4l12 41q11 -1 42.5 -2t63.5 -1q26 0 58.5 4t42.5 6l-9 -43q-36 -5 -50 -16.5t-19 -40.5l-44 -294q-3 -27 -3 -50zM279 736
q-9 11 -9 27q0 22 16 38.5t39 16.5q17 0 26.5 -11t9.5 -27q0 -22 -16.5 -38.5t-39.5 -16.5q-17 0 -26 11zM439 736q-9 11 -9 27q0 22 16.5 38.5t38.5 16.5q17 0 26.5 -11t9.5 -27q0 -22 -16.5 -38.5t-39.5 -16.5q-17 0 -26 11z" />
    <glyph glyph-name="Thorn" unicode="&#xde;" horiz-adv-x="523" 
d="M330 506q91 0 139.5 -37t48.5 -106q0 -56 -36 -105t-94.5 -78t-122.5 -29h-68l-4 -39q-2 -24 -2 -30q0 -22 8 -30t28 -8q18 0 32 1t19 2l1 -4l-14 -46q-14 1 -51 2t-76 1q-31 0 -67 -5t-47 -7l12 46q46 9 64 26.5t23 59.5l52 420q2 18 2 23q0 18 -7 24.5t-24 6.5
q-12 0 -24 -1t-16 -1l-2 4l13 44q1 0 40.5 -1.5t74.5 -1.5q27 0 64.5 3.5t48.5 5.5l-10 -45q-40 -5 -54.5 -16.5t-20.5 -40.5l-8 -38h78zM217 286l-12 -74q16 -6 45 -11t50 -6q65 8 98 46t33 103q0 58 -39.5 85.5t-123.5 27.5q-16 0 -20.5 -1.5t-5.5 -6.5q-8 -63 -25 -163z
" />
    <glyph glyph-name="germandbls" unicode="&#xdf;" horiz-adv-x="549" 
d="M371 348.5q19 -19.5 58 -47.5q51 -36 77.5 -66.5t26.5 -74.5q0 -45 -25.5 -84.5t-67.5 -63.5t-90 -24q-49 0 -83.5 16t-32.5 37q2 15 18 43.5t30 42.5h14q-1 -7 -1 -19q0 -36 20.5 -56t58.5 -20q31 0 57 28.5t26 62.5q0 29 -19.5 51t-62.5 54q-48 36 -73 65t-25 72
q0 37 21 65t62 65q36 32 53 54t17 49q0 39 -34.5 62t-92.5 23q-88 0 -103 -114l-72 -644q-9 -79 -50 -123t-105 -44q-32 0 -58 13.5t-32 32.5q4 17 15 43.5t19 40.5h14q-1 -37 18.5 -60t51.5 -23q23 0 42 17.5t27 45.5l15 189l28 340l-7 5l-69 3l-3 5l4 29l79 12l9 80
q8 61 38.5 109t78 75t102.5 27q43 0 79.5 -15t57.5 -41t21 -57q0 -45 -22 -75.5t-64 -67.5q-33 -28 -49 -48.5t-16 -45.5q0 -24 19 -43.5zM73 -116q0 -3 -1 -5q1 2 1 5z" />
    <glyph glyph-name="agrave" unicode="&#xe0;" horiz-adv-x="461" 
d="M354 69.5q13 9.5 59 49.5l12 -1l13 -24q-67 -63 -96 -84.5t-48 -21.5q-14 0 -23 7.5t-9 19.5q0 22 43 210l-6 2q-49 -90 -94 -147.5t-93 -91.5q-38 0 -59 35.5t-21 98.5q0 81 33.5 160t87 128.5t108.5 49.5l100 -16l9 25l5 1l31 -15l8 -12q-24 -80 -47.5 -187.5
t-35.5 -191.5l3 -4q7 0 20 9.5zM183.5 111q33.5 42 73 112t74.5 150q-23 14 -51 23.5t-47 9.5q-34 0 -64 -33t-48.5 -87.5t-18.5 -114.5q0 -44 9 -73t22 -29q17 0 50.5 42zM219 714l10 2q13 -16 59 -69.5t91 -102.5l-20 -19l-9 -2q-52 47 -102.5 87.5t-65.5 51.5l-1 11z" />
    <glyph glyph-name="aacute" unicode="&#xe1;" horiz-adv-x="473" 
d="M366 69.5q13 9.5 59 49.5l12 -1l13 -24q-67 -63 -96 -84.5t-48 -21.5q-14 0 -23 7.5t-9 19.5q0 22 43 210l-6 2q-49 -90 -94 -147.5t-93 -91.5q-38 0 -59 35.5t-21 98.5q0 81 33.5 160t87 128.5t108.5 49.5l100 -16l9 25l5 1l31 -15l8 -12q-24 -80 -47.5 -187.5
t-35.5 -191.5l3 -4q7 0 20 9.5zM195.5 111q33.5 42 73 112t74.5 150q-23 14 -51 23.5t-47 9.5q-34 0 -64 -33t-48.5 -87.5t-18.5 -114.5q0 -44 9 -73t22 -29q17 0 50.5 42zM328 631q-50 -41 -103 -88l-9 2l-20 19q45 49 91 103t59 70l10 -2l38 -41l-1 -11q-15 -11 -65 -52z
" />
    <glyph glyph-name="acircumflex" unicode="&#xe2;" horiz-adv-x="461" 
d="M354 69.5q13 9.5 59 49.5l12 -1l13 -24q-67 -63 -96 -84.5t-48 -21.5q-14 0 -23 7.5t-9 19.5q0 22 43 210l-6 2q-49 -90 -94 -147.5t-93 -91.5q-38 0 -59 35.5t-21 98.5q0 81 33.5 160t87 128.5t108.5 49.5l100 -16l9 25l5 1l31 -15l8 -12q-24 -80 -47.5 -187.5
t-35.5 -191.5l3 -4q7 0 20 9.5zM183.5 111q33.5 42 73 112t74.5 150q-23 14 -51 23.5t-47 9.5q-34 0 -64 -33t-48.5 -87.5t-18.5 -114.5q0 -44 9 -73t22 -29q17 0 50.5 42zM298 705h14l115 -153l-17 -22l-9 -1l-105 97l-129 -97l-9 1l-12 22z" />
    <glyph glyph-name="atilde" unicode="&#xe3;" horiz-adv-x="461" 
d="M354 69.5q13 9.5 59 49.5l12 -1l13 -24q-67 -63 -96 -84.5t-48 -21.5q-14 0 -23 7.5t-9 19.5q0 22 43 210l-6 2q-49 -90 -94 -147.5t-93 -91.5q-38 0 -59 35.5t-21 98.5q0 81 33.5 160t87 128.5t108.5 49.5l100 -16l9 25l5 1l31 -15l8 -12q-24 -80 -47.5 -187.5
t-35.5 -191.5l3 -4q7 0 20 9.5zM183.5 111q33.5 42 73 112t74.5 150q-23 14 -51 23.5t-47 9.5q-34 0 -64 -33t-48.5 -87.5t-18.5 -114.5q0 -44 9 -73t22 -29q17 0 50.5 42zM145 574l1 5l84 89l15 4q18 0 74 -18q7 -2 29.5 -8.5t33.5 -6.5q10 0 25 12t27 25.5t15 17.5h6
l20 -21l-1 -5l-84 -89l-16 -4q-19 0 -73 18q-9 3 -31 9t-32 6t-25 -12t-27 -25.5t-15 -17.5h-7z" />
    <glyph glyph-name="adieresis" unicode="&#xe4;" horiz-adv-x="461" 
d="M354 69.5q13 9.5 59 49.5l12 -1l13 -24q-67 -63 -96 -84.5t-48 -21.5q-14 0 -23 7.5t-9 19.5q0 22 43 210l-6 2q-49 -90 -94 -147.5t-93 -91.5q-38 0 -59 35.5t-21 98.5q0 81 33.5 160t87 128.5t108.5 49.5l100 -16l9 25l5 1l31 -15l8 -12q-24 -80 -47.5 -187.5
t-35.5 -191.5l3 -4q7 0 20 9.5zM183.5 111q33.5 42 73 112t74.5 150q-23 14 -51 23.5t-47 9.5q-34 0 -64 -33t-48.5 -87.5t-18.5 -114.5q0 -44 9 -73t22 -29q17 0 50.5 42zM174 581q-12 13 -12 32q0 20 14 34t35 14q18 0 29 -12.5t11 -32.5t-14 -34t-34 -14q-17 0 -29 13z
M334 581q-12 13 -12 32q0 20 14 34t35 14q18 0 29 -12.5t11 -32.5t-14 -34t-34 -14q-17 0 -29 13z" />
    <glyph glyph-name="aring" unicode="&#xe5;" horiz-adv-x="461" 
d="M354 69.5q13 9.5 59 49.5l12 -1l13 -24q-67 -63 -96 -84.5t-48 -21.5q-14 0 -23 7.5t-9 19.5q0 22 43 210l-6 2q-49 -90 -94 -147.5t-93 -91.5q-38 0 -59 35.5t-21 98.5q0 81 33.5 160t87 128.5t108.5 49.5l100 -16l9 25l5 1l31 -15l8 -12q-24 -80 -47.5 -187.5
t-35.5 -191.5l3 -4q7 0 20 9.5zM183.5 111q33.5 42 73 112t74.5 150q-23 14 -51 23.5t-47 9.5q-34 0 -64 -33t-48.5 -87.5t-18.5 -114.5q0 -44 9 -73t22 -29q17 0 50.5 42zM254 564.5q-17 18.5 -17 49.5q0 41 26.5 68.5t66.5 27.5q34 0 50 -19t16 -47q0 -39 -26.5 -68.5
t-67.5 -29.5q-31 0 -48 18.5zM346.5 593.5q14.5 9.5 14.5 35.5q0 19 -11.5 30.5t-32.5 11.5q-22 0 -34.5 -12t-12.5 -33t13.5 -31.5t29.5 -10.5q19 0 33.5 9.5z" />
    <glyph glyph-name="ae" unicode="&#xe6;" horiz-adv-x="587" 
d="M524 133l15 -24q-29 -53 -73.5 -87t-87.5 -34q-54 0 -85 44t-31 121v10q-76 -124 -150 -175q-38 0 -59 35.5t-21 100.5q0 80 34 158.5t87 128t108 49.5l156 -17q35 21 72 21q38 0 58.5 -20.5t20.5 -57.5q0 -63 -55 -108t-183 -88q-4 -64 15.5 -103t54.5 -39q30 0 60 23.5
t50 62.5zM182.5 111.5q33.5 42.5 73 114.5t75.5 157q-24 10 -52 16.5t-49 6.5q-32 0 -61.5 -33.5t-48 -87.5t-18.5 -112q0 -43 8.5 -73.5t20.5 -30.5q18 0 51.5 42.5zM457 406q-26 0 -51.5 -23.5t-45 -63.5t-26.5 -87q87 27 125 57t38 71q0 46 -40 46z" />
    <glyph glyph-name="ccedilla" unicode="&#xe7;" horiz-adv-x="344" 
d="M169 373q-29 -32 -47 -83.5t-18 -106.5q0 -62 18.5 -99t50.5 -37q30 0 60.5 24.5t48.5 62.5l14 -1l15 -24q-29 -53 -73.5 -87t-87.5 -34q-54 0 -85 44t-31 121t32.5 149t85 117t108.5 45q25 0 48 -5.5t37 -15.5l5 -11l-34 -67l-14 -3q-31 43 -73 43q-31 0 -60 -32z
M207 23l-33 -73q6 -4 26.5 -20t33 -32.5t12.5 -32.5q0 -25 -20 -48t-50 -36.5t-58 -13.5q-23 0 -42.5 9.5t-19.5 24.5q0 16 32 58h8q-2 -27 10.5 -42t35.5 -15q21 0 36 11.5t15 28.5q0 15 -20 33.5t-53 39.5l45 108h42z" />
    <glyph glyph-name="egrave" unicode="&#xe8;" horiz-adv-x="359" 
d="M285 278q-55 -45 -183 -88q-4 -64 15.5 -103t54.5 -39q30 0 60 23.5t50 62.5l14 -1l15 -24q-29 -53 -73.5 -87t-87.5 -34q-54 0 -85 44t-31 121q0 75 33.5 147.5t86 118t107.5 45.5q38 0 58.5 -20.5t20.5 -57.5q0 -63 -55 -108zM177.5 382.5q-25.5 -23.5 -45 -63.5
t-26.5 -87q87 27 125 57t38 71q0 46 -40 46q-26 0 -51.5 -23.5zM188 692l10 2q13 -16 59 -69.5t91 -102.5l-20 -19l-9 -2q-52 47 -102.5 87.5t-65.5 51.5l-1 11z" />
    <glyph glyph-name="eacute" unicode="&#xe9;" horiz-adv-x="359" 
d="M285 278q-55 -45 -183 -88q-4 -64 15.5 -103t54.5 -39q30 0 60 23.5t50 62.5l14 -1l15 -24q-29 -53 -73.5 -87t-87.5 -34q-54 0 -85 44t-31 121q0 75 33.5 147.5t86 118t107.5 45.5q38 0 58.5 -20.5t20.5 -57.5q0 -63 -55 -108zM177.5 382.5q-25.5 -23.5 -45 -63.5
t-26.5 -87q87 27 125 57t38 71q0 46 -40 46q-26 0 -51.5 -23.5zM285 609q-50 -41 -103 -88l-9 2l-20 19q45 49 91 103t59 70l10 -2l38 -41l-1 -11q-15 -11 -65 -52z" />
    <glyph glyph-name="ecircumflex" unicode="&#xea;" horiz-adv-x="325" 
d="M285 278q-55 -45 -183 -88q-4 -64 15.5 -103t54.5 -39q30 0 60 23.5t50 62.5l14 -1l15 -24q-29 -53 -73.5 -87t-87.5 -34q-54 0 -85 44t-31 121q0 75 33.5 147.5t86 118t107.5 45.5q38 0 58.5 -20.5t20.5 -57.5q0 -63 -55 -108zM177.5 382.5q-25.5 -23.5 -45 -63.5
t-26.5 -87q87 27 125 57t38 71q0 46 -40 46q-26 0 -51.5 -23.5zM267 683h14l115 -153l-17 -22l-9 -1l-105 97l-129 -97l-9 1l-12 22z" />
    <glyph glyph-name="edieresis" unicode="&#xeb;" horiz-adv-x="359" 
d="M285 278q-55 -45 -183 -88q-4 -64 15.5 -103t54.5 -39q30 0 60 23.5t50 62.5l14 -1l15 -24q-29 -53 -73.5 -87t-87.5 -34q-54 0 -85 44t-31 121q0 75 33.5 147.5t86 118t107.5 45.5q38 0 58.5 -20.5t20.5 -57.5q0 -63 -55 -108zM177.5 382.5q-25.5 -23.5 -45 -63.5
t-26.5 -87q87 27 125 57t38 71q0 46 -40 46q-26 0 -51.5 -23.5zM143 559q-12 13 -12 32q0 20 14 34t35 14q18 0 29 -12.5t11 -32.5t-14 -34t-34 -14q-17 0 -29 13zM303 559q-12 13 -12 32q0 20 14 34t35 14q18 0 29 -12.5t11 -32.5t-14 -34t-34 -14q-17 0 -29 13z" />
    <glyph glyph-name="igrave" unicode="&#xec;" horiz-adv-x="318" 
d="M141 712l10 2q13 -16 59 -69.5t91 -102.5l-20 -19l-9 -2q-52 47 -102.5 87.5t-65.5 51.5l-1 11zM208.5 70.5q14.5 10.5 57.5 48.5l12 -1l13 -24q-106 -106 -140 -106q-16 0 -23 8.5t-7 26.5q22 130 36.5 228.5t14.5 114.5q0 23 -9.5 32.5t-32.5 9.5h-41l7 38q68 0 162 6
l9 -12q-25 -81 -48.5 -188t-34.5 -188l3 -4q7 0 21.5 10.5z" />
    <glyph glyph-name="iacute" unicode="&#xed;" horiz-adv-x="264" 
d="M154.5 70.5q14.5 10.5 57.5 48.5l12 -1l13 -24q-106 -106 -140 -106q-16 0 -23 8.5t-7 26.5q22 130 36.5 228.5t14.5 114.5q0 23 -9.5 32.5t-32.5 9.5h-41l7 38q68 0 162 6l9 -12q-25 -81 -48.5 -188t-34.5 -188l3 -4q7 0 21.5 10.5zM207 609q-50 -41 -103 -88l-9 2
l-20 19q45 49 91 103t59 70l10 -2l38 -41l-1 -11q-15 -11 -65 -52z" />
    <glyph glyph-name="icircumflex" unicode="&#xee;" horiz-adv-x="264" 
d="M154.5 70.5q14.5 10.5 57.5 48.5l12 -1l13 -24q-106 -106 -140 -106q-16 0 -23 8.5t-7 26.5q22 130 36.5 228.5t14.5 114.5q0 23 -9.5 32.5t-32.5 9.5h-41l7 38q68 0 162 6l9 -12q-25 -81 -48.5 -188t-34.5 -188l3 -4q7 0 21.5 10.5zM189 683h14l115 -153l-17 -22l-9 -1
l-105 97l-129 -97l-9 1l-12 22z" />
    <glyph glyph-name="eth" unicode="&#xf0;" horiz-adv-x="416" 
d="M269 599q50 -58 79 -134t29 -152q0 -86 -31.5 -161t-84 -119.5t-113.5 -44.5q-50 0 -81 45t-31 118q0 80 31.5 151.5t84 114.5t111.5 43h8q-20 59 -59 112l-130 -64l-7 3l-2 30l113 58q-55 63 -134 105l20 33l10 4q91 -46 161 -116l135 67l6 -5l2 -29zM247 71
q26 28 40.5 77t14.5 110q0 66 -22 104.5t-59 38.5q-32 0 -58 -26t-40.5 -72t-14.5 -103q0 -70 22.5 -113.5t57.5 -43.5q33 0 59 28z" />
    <glyph glyph-name="ntilde" unicode="&#xf1;" horiz-adv-x="496" 
d="M461 94q-106 -106 -140 -106q-31 0 -31 29q0 20 8.5 52.5t27.5 95.5q20 63 30 102t10 63q0 18 -9.5 29.5t-24.5 11.5q-31 0 -82.5 -76t-103.5 -198l-11 -83q-1 -5 -25.5 -14t-36.5 -9l-7 9q20 114 37.5 232.5t17.5 135.5q0 21 -10 30.5t-33 9.5h-41l7 38q69 0 162 6
l9 -12q-18 -51 -35 -118t-26 -120l5 -3q52 101 104.5 169.5t98.5 95.5q32 0 54 -27.5t22 -68.5q0 -27 -12 -70.5t-35 -110.5q-30 -90 -37 -123l3 -4q7 0 20 9.5t59 49.5l12 -1zM157 552l1 5l84 89l15 4q18 0 74 -18q7 -2 29.5 -8.5t33.5 -6.5q10 0 25 12t27 25.5t15 17.5h6
l20 -21l-1 -5l-84 -89l-16 -4q-19 0 -73 18q-9 3 -31 9t-32 6t-25 -12t-27 -25.5t-15 -17.5h-7z" />
    <glyph glyph-name="ograve" unicode="&#xf2;" horiz-adv-x="409" 
d="M68 33q-31 45 -31 119q0 81 31.5 153t84 115.5t111.5 43.5q53 0 83.5 -39.5t30.5 -109.5q0 -87 -31 -162t-84 -120t-114 -45q-50 0 -81 45zM248 71q26 28 40.5 77.5t14.5 111.5q0 67 -21.5 105.5t-59.5 38.5q-32 0 -58 -26.5t-40.5 -72.5t-14.5 -103q0 -70 22.5 -114.5
t57.5 -44.5q33 0 59 28zM184 692l10 2q13 -16 59 -69.5t91 -102.5l-20 -19l-9 -2q-52 47 -102.5 87.5t-65.5 51.5l-1 11z" />
    <glyph glyph-name="oacute" unicode="&#xf3;" horiz-adv-x="406" 
d="M65 33q-31 45 -31 119q0 81 31.5 153t84 115.5t111.5 43.5q53 0 83.5 -39.5t30.5 -109.5q0 -87 -31 -162t-84 -120t-114 -45q-50 0 -81 45zM245 71q26 28 40.5 77.5t14.5 111.5q0 67 -21.5 105.5t-59.5 38.5q-32 0 -58 -26.5t-40.5 -72.5t-14.5 -103q0 -70 22.5 -114.5
t57.5 -44.5q33 0 59 28zM278 609q-50 -41 -103 -88l-9 2l-20 19q45 49 91 103t59 70l10 -2l38 -41l-1 -11q-15 -11 -65 -52z" />
    <glyph glyph-name="ocircumflex" unicode="&#xf4;" horiz-adv-x="410" 
d="M69 33q-31 45 -31 119q0 81 31.5 153t84 115.5t111.5 43.5q53 0 83.5 -39.5t30.5 -109.5q0 -87 -31 -162t-84 -120t-114 -45q-50 0 -81 45zM249 71q26 28 40.5 77.5t14.5 111.5q0 67 -21.5 105.5t-59.5 38.5q-32 0 -58 -26.5t-40.5 -72.5t-14.5 -103q0 -70 22.5 -114.5
t57.5 -44.5q33 0 59 28zM264 683h14l115 -153l-17 -22l-9 -1l-105 97l-129 -97l-9 1l-12 22z" />
    <glyph glyph-name="otilde" unicode="&#xf5;" horiz-adv-x="405" 
d="M65 33q-31 45 -31 119q0 81 31.5 153t84 115.5t111.5 43.5q53 0 83.5 -39.5t30.5 -109.5q0 -87 -31 -162t-84 -120t-114 -45q-50 0 -81 45zM245 71q26 28 40.5 77.5t14.5 111.5q0 67 -21.5 105.5t-59.5 38.5q-32 0 -58 -26.5t-40.5 -72.5t-14.5 -103q0 -70 22.5 -114.5
t57.5 -44.5q33 0 59 28zM107 552l1 5l84 89l15 4q18 0 74 -18q7 -2 29.5 -8.5t33.5 -6.5q10 0 25 12t27 25.5t15 17.5h6l20 -21l-1 -5l-84 -89l-16 -4q-19 0 -73 18q-9 3 -31 9t-32 6t-25 -12t-27 -25.5t-15 -17.5h-7z" />
    <glyph glyph-name="divide" unicode="&#xf7;" horiz-adv-x="486" 
d="M219 392.5q-12 14.5 -12 35.5q0 28 19.5 48.5t48.5 20.5q24 0 36.5 -14t12.5 -36q0 -28 -19.5 -48.5t-49.5 -20.5q-24 0 -36 14.5zM463 236l-218 -1l-220 -1l-5 9l17 49l229 -1q48 0 116.5 2.5t89.5 3.5l5 -10zM176.5 43.5q-12.5 14.5 -12.5 35.5q0 28 19.5 48.5
t48.5 20.5q24 0 36.5 -14t12.5 -36q0 -28 -19.5 -48.5t-49.5 -20.5q-23 0 -35.5 14.5z" />
    <glyph glyph-name="oslash" unicode="&#xf8;" horiz-adv-x="406" 
d="M375 315q0 -87 -31 -162t-84 -120t-114 -45q-22 0 -44 11l-51 -97l-27 6l-2 10l53 102q-20 21 -30.5 55t-10.5 77q0 81 31.5 153t84 115.5t111.5 43.5q24 0 41 -7l43 82l29 -7l3 -12l-44 -82q42 -39 42 -123zM161 377.5q-26 -26.5 -40.5 -72.5t-14.5 -103q0 -55 14 -95
l144 278q-19 19 -45 19q-32 0 -58 -26.5zM245 71q26 28 40.5 77.5t14.5 111.5q0 53 -14 89l-146 -280q18 -26 46 -26q33 0 59 28z" />
    <glyph glyph-name="ugrave" unicode="&#xf9;" horiz-adv-x="486" 
d="M462 94q-62 -58 -93.5 -82t-46.5 -24q-36 0 -36 28q0 17 42 210l-7 2q-89 -171 -182 -240q-40 0 -64 23t-24 61q0 20 11 61.5t30 105.5q13 42 23 80.5t10 52.5q0 19 -10 27.5t-32 8.5h-41l8 38q68 0 162 6l9 -12q-42 -117 -70.5 -214t-28.5 -124q0 -18 7 -26.5t23 -8.5
q28 0 82.5 81t112.5 209l17 96l9 3l60 -9l7 -8q-24 -80 -48.5 -186.5t-36.5 -188.5l3 -4q7 0 20 9.5t59 49.5l12 -1zM221 692l10 2q13 -16 59 -69.5t91 -102.5l-20 -19l-9 -2q-52 47 -102.5 87.5t-65.5 51.5l-1 11z" />
    <glyph glyph-name="uacute" unicode="&#xfa;" horiz-adv-x="486" 
d="M462 94q-62 -58 -93.5 -82t-46.5 -24q-36 0 -36 28q0 17 42 210l-7 2q-89 -171 -182 -240q-40 0 -64 23t-24 61q0 20 11 61.5t30 105.5q13 42 23 80.5t10 52.5q0 19 -10 27.5t-32 8.5h-41l8 38q68 0 162 6l9 -12q-42 -117 -70.5 -214t-28.5 -124q0 -18 7 -26.5t23 -8.5
q28 0 82.5 81t112.5 209l17 96l9 3l60 -9l7 -8q-24 -80 -48.5 -186.5t-36.5 -188.5l3 -4q7 0 20 9.5t59 49.5l12 -1zM318 609q-50 -41 -103 -88l-9 2l-20 19q45 49 91 103t59 70l10 -2l38 -41l-1 -11q-15 -11 -65 -52z" />
    <glyph glyph-name="ucircumflex" unicode="&#xfb;" horiz-adv-x="488" 
d="M462 94q-62 -58 -93.5 -82t-46.5 -24q-36 0 -36 28q0 17 42 210l-7 2q-89 -171 -182 -240q-40 0 -64 23t-24 61q0 20 11 61.5t30 105.5q13 42 23 80.5t10 52.5q0 19 -10 27.5t-32 8.5h-41l8 38q68 0 162 6l9 -12q-42 -117 -70.5 -214t-28.5 -124q0 -18 7 -26.5t23 -8.5
q28 0 82.5 81t112.5 209l17 96l9 3l60 -9l7 -8q-24 -80 -48.5 -186.5t-36.5 -188.5l3 -4q7 0 20 9.5t59 49.5l12 -1zM300 683h14l115 -153l-17 -22l-9 -1l-105 97l-129 -97l-9 1l-12 22z" />
    <glyph glyph-name="udieresis" unicode="&#xfc;" horiz-adv-x="488" 
d="M462 94q-62 -58 -93.5 -82t-46.5 -24q-36 0 -36 28q0 17 42 210l-7 2q-89 -171 -182 -240q-40 0 -64 23t-24 61q0 20 11 61.5t30 105.5q13 42 23 80.5t10 52.5q0 19 -10 27.5t-32 8.5h-41l8 38q68 0 162 6l9 -12q-42 -117 -70.5 -214t-28.5 -124q0 -18 7 -26.5t23 -8.5
q28 0 82.5 81t112.5 209l17 96l9 3l60 -9l7 -8q-24 -80 -48.5 -186.5t-36.5 -188.5l3 -4q7 0 20 9.5t59 49.5l12 -1zM176 559q-12 13 -12 32q0 20 14 34t35 14q18 0 29 -12.5t11 -32.5t-14 -34t-34 -14q-17 0 -29 13zM336 559q-12 13 -12 32q0 20 14 34t35 14q18 0 29 -12.5
t11 -32.5t-14 -34t-34 -14q-17 0 -29 13z" />
    <glyph glyph-name="thorn" unicode="&#xfe;" horiz-adv-x="453" 
d="M99.5 307q49.5 322 49.5 343q0 20 -10 29.5t-32 9.5h-41l6 38q38 0 91 2.5t70 3.5l9 -12q-5 -21 -22.5 -99t-40 -193.5t-38.5 -226.5l3 -2q49 105 89 166t85 98q45 0 73.5 -43.5t28.5 -113.5q0 -80 -32 -153t-84 -117.5t-109 -44.5q-40 0 -84 10l-20 -142q-1 -6 -1 -17
q0 -18 9.5 -25t33.5 -7h41l1 -6l-6 -33q-69 0 -126 -3t-72 -4l6 36q25 2 37 15.5t18 50.5q18 118 67.5 440zM232.5 297.5q-49.5 -83.5 -111.5 -228.5q25 -9 59 -16t53 -7q29 0 56.5 30.5t44.5 80t17 102.5q0 47 -14 84.5t-32 37.5q-23 0 -72.5 -83.5z" />
    <glyph glyph-name="ydieresis" unicode="&#xff;" horiz-adv-x="438" 
d="M388 464q16 -10 25.5 -30.5t9.5 -45.5q0 -98 -180 -367q-91 -135 -151.5 -195.5t-106.5 -60.5q-29 0 -50.5 10.5t-25.5 26.5q1 16 6 36.5t12 37.5h14q30 -33 64 -33q64 0 146 114q-12 209 -38 405q-4 23 -12.5 31.5t-28.5 8.5q-7 0 -52 -5l3 38l148 24l11 -10
q20 -146 20 -367v-34h10q139 218 139 298q0 22 -12.5 43t-35.5 36l4 17zM152 559q-12 13 -12 32q0 20 14 34t35 14q18 0 29 -12.5t11 -32.5t-14 -34t-34 -14q-17 0 -29 13zM312 559q-12 13 -12 32q0 20 14 34t35 14q18 0 29 -12.5t11 -32.5t-14 -34t-34 -14q-17 0 -29 13z
" />
    <glyph glyph-name="Amacron" unicode="&#x100;" horiz-adv-x="556" 
d="M482.5 58.5q17.5 -14.5 59.5 -19.5l2 -3l-11 -39q-11 0 -41.5 1.5t-59.5 1.5q-46 0 -88.5 -4t-54.5 -6l-2 7l8 36q38 3 57.5 8t27 14.5t7.5 27.5q0 12 -4 38l-18 113q-24 1 -100 1q-43 0 -107 -8l-49 -108q-14 -29 -14 -46q0 -19 12.5 -27.5t40.5 -8.5h56v-3l-10 -41
q-12 1 -52 4t-80 3q-35 0 -65 -1t-40 -2l13 45q29 3 47.5 19.5t38.5 58.5l248 511l56 17h8q0 -7 30.5 -200t59.5 -337q7 -38 24.5 -52.5zM266 271q47 0 91 6l-44 267h-7l-125 -273h85zM477 721l-137 -1l-138 -1l-5 9l16 45l147 -1q30 0 71 2.5t54 3.5l5 -10z" />
    <glyph glyph-name="amacron" unicode="&#x101;" horiz-adv-x="461" 
d="M354 69.5q13 9.5 59 49.5l12 -1l13 -24q-67 -63 -96 -84.5t-48 -21.5q-14 0 -23 7.5t-9 19.5q0 22 43 210l-6 2q-49 -90 -94 -147.5t-93 -91.5q-38 0 -59 35.5t-21 98.5q0 81 33.5 160t87 128.5t108.5 49.5l100 -16l9 25l5 1l31 -15l8 -12q-24 -80 -47.5 -187.5
t-35.5 -191.5l3 -4q7 0 20 9.5zM183.5 111q33.5 42 73 112t74.5 150q-23 14 -51 23.5t-47 9.5q-34 0 -64 -33t-48.5 -87.5t-18.5 -114.5q0 -44 9 -73t22 -29q17 0 50.5 42zM421 598l-136 -1l-138 -1l-5 9l15 45l148 -1q30 0 71 2.5t54 3.5l4 -10z" />
    <glyph glyph-name="Abreve" unicode="&#x102;" horiz-adv-x="556" 
d="M482.5 58.5q17.5 -14.5 59.5 -19.5l2 -3l-11 -39q-11 0 -41.5 1.5t-59.5 1.5q-46 0 -88.5 -4t-54.5 -6l-2 7l8 36q38 3 57.5 8t27 14.5t7.5 27.5q0 12 -4 38l-18 113q-24 1 -100 1q-43 0 -107 -8l-49 -108q-14 -29 -14 -46q0 -19 12.5 -27.5t40.5 -8.5h56v-3l-10 -41
q-12 1 -52 4t-80 3q-35 0 -65 -1t-40 -2l13 45q29 3 47.5 19.5t38.5 58.5l248 511l56 17h8q0 -7 30.5 -200t59.5 -337q7 -38 24.5 -52.5zM266 271q47 0 91 6l-44 267h-7l-125 -273h85zM397 781q26 13 41 37h8l15 -10q-17 -42 -50 -70t-79 -28q-47 0 -72.5 28t-32.5 70l18 10
h8q9 -24 32 -37t54 -13q32 0 58 13z" />
    <glyph glyph-name="abreve" unicode="&#x103;" horiz-adv-x="461" 
d="M354 69.5q13 9.5 59 49.5l12 -1l13 -24q-67 -63 -96 -84.5t-48 -21.5q-14 0 -23 7.5t-9 19.5q0 22 43 210l-6 2q-49 -90 -94 -147.5t-93 -91.5q-38 0 -59 35.5t-21 98.5q0 81 33.5 160t87 128.5t108.5 49.5l100 -16l9 25l5 1l31 -15l8 -12q-24 -80 -47.5 -187.5
t-35.5 -191.5l3 -4q7 0 20 9.5zM183.5 111q33.5 42 73 112t74.5 150q-23 14 -51 23.5t-47 9.5q-34 0 -64 -33t-48.5 -87.5t-18.5 -114.5q0 -44 9 -73t22 -29q17 0 50.5 42zM338 627q27 17 42 49h9l14 -10q-17 -48 -50 -81t-80 -33t-72.5 33t-30.5 81l17 10h8q8 -32 30.5 -49
t54.5 -17q31 0 58 17z" />
    <glyph glyph-name="Aogonek" unicode="&#x104;" horiz-adv-x="556" 
d="M482.5 58.5q17.5 -14.5 59.5 -19.5l2 -3l-11 -39q-11 0 -41.5 1.5t-59.5 1.5q-46 0 -88.5 -4t-54.5 -6l-2 7l8 36q38 3 57.5 8t27 14.5t7.5 27.5q0 12 -4 38l-18 113q-24 1 -100 1q-43 0 -107 -8l-49 -108q-14 -29 -14 -46q0 -19 12.5 -27.5t40.5 -8.5h56v-3l-10 -41
q-12 1 -52 4t-80 3q-35 0 -65 -1t-40 -2l13 45q29 3 47.5 19.5t38.5 58.5l248 511l56 17h8q0 -7 30.5 -200t59.5 -337q7 -38 24.5 -52.5zM266 271q47 0 91 6l-44 267h-7l-125 -273h85zM491.5 -193.5q-15.5 -11.5 -38.5 -25.5t-46 -22q-44 0 -70 22t-26 61q0 40 31.5 78
t103.5 104l20 18h41q-57 -54 -82.5 -80.5t-37.5 -48.5t-12 -47q0 -21 13.5 -34.5t35.5 -13.5q16 0 33.5 5t29 10.5t14.5 7.5l10 -19q-4 -4 -19.5 -15.5z" />
    <glyph glyph-name="aogonek" unicode="&#x105;" horiz-adv-x="461" 
d="M331.5 -177q16.5 5 28.5 10.5t15 7.5l10 -19q-4 -4 -19.5 -15.5t-38.5 -25.5t-46 -22q-43 0 -69.5 22t-26.5 59q0 35 23.5 68.5t74.5 81.5q-10 2 -15.5 8.5t-5.5 15.5q0 18 18 100t25 111l-6 2q-49 -90 -94 -147.5t-93 -91.5q-38 0 -59 35.5t-21 98.5q0 81 34 160
t87 128.5t108 49.5l100 -16l9 25l5 1l31 -15l8 -12q-4 -15 -19.5 -71.5t-33.5 -140.5t-30 -167l3 -4q7 0 20 10t59 49l12 -1l16 -28q-76 -64 -115.5 -101t-58 -65.5t-18.5 -55.5q0 -24 13.5 -37t36.5 -13q16 0 32.5 5zM182.5 110.5q33.5 41.5 73.5 111.5t75 151
q-24 15 -52 24t-46 9q-34 0 -64.5 -33.5t-48.5 -87.5t-18 -114q0 -42 8.5 -72t22.5 -30q16 0 49.5 41.5z" />
    <glyph glyph-name="Cacute" unicode="&#x106;" horiz-adv-x="601" 
d="M169.5 20.5q-59.5 32.5 -92 92.5t-32.5 140q0 110 49 200.5t134 142.5t189 52q35 0 73.5 -5t65.5 -10.5t34 -7.5l3 -6l-9.5 -28.5t-17.5 -59t-18 -76.5l-43 -4q1 6 5 26.5t4 32.5q0 84 -131 84q-73 0 -130 -39t-89 -110t-32 -163q0 -114 51 -181.5t139 -67.5q66 0 112 39
t74 121l43 4q-5 -15 -21 -65.5t-25 -94.5l-6 -9q0 -1 -28 -11.5t-70.5 -19.5t-93.5 -9q-78 0 -137.5 32.5zM425.5 738.5q-61.5 -21.5 -127.5 -46.5l-8 5l-6 24q59 31 120 65t79 44l9 -6l16 -48l-4 -10q-17 -6 -78.5 -27.5z" />
    <glyph glyph-name="cacute" unicode="&#x107;" horiz-adv-x="344" 
d="M169 373q-29 -32 -47 -83.5t-18 -106.5q0 -62 18.5 -99t50.5 -37q30 0 60.5 24.5t48.5 62.5l14 -1l15 -24q-29 -53 -73.5 -87t-87.5 -34q-54 0 -85 44t-31 121t32.5 149t85 117t108.5 45q25 0 48 -5.5t37 -15.5l5 -11l-34 -67l-14 -3q-31 43 -73 43q-31 0 -60 -32z
M297 609q-50 -41 -103 -88l-9 2l-20 19q45 49 91 103t59 70l10 -2l38 -41l-1 -11q-15 -11 -65 -52z" />
    <glyph glyph-name="Ccircumflex" unicode="&#x108;" horiz-adv-x="601" 
d="M169.5 20.5q-59.5 32.5 -92 92.5t-32.5 140q0 110 49 200.5t134 142.5t189 52q35 0 73.5 -5t65.5 -10.5t34 -7.5l3 -6l-9.5 -28.5t-17.5 -59t-18 -76.5l-43 -4q1 6 5 26.5t4 32.5q0 84 -131 84q-73 0 -130 -39t-89 -110t-32 -163q0 -114 51 -181.5t139 -67.5q66 0 112 39
t74 121l43 4q-5 -15 -21 -65.5t-25 -94.5l-6 -9q0 -1 -28 -11.5t-70.5 -19.5t-93.5 -9q-78 0 -137.5 32.5zM410 867h14l115 -153l-17 -22l-9 -1l-105 97l-129 -97l-9 1l-12 22z" />
    <glyph glyph-name="ccircumflex" unicode="&#x109;" horiz-adv-x="344" 
d="M169 373q-29 -32 -47 -83.5t-18 -106.5q0 -62 18.5 -99t50.5 -37q30 0 60.5 24.5t48.5 62.5l14 -1l15 -24q-29 -53 -73.5 -87t-87.5 -34q-54 0 -85 44t-31 121t32.5 149t85 117t108.5 45q25 0 48 -5.5t37 -15.5l5 -11l-34 -67l-14 -3q-31 43 -73 43q-31 0 -60 -32z
M279 683h14l115 -153l-17 -22l-9 -1l-105 97l-129 -97l-9 1l-12 22z" />
    <glyph glyph-name="Cdotaccent" unicode="&#x10a;" horiz-adv-x="601" 
d="M169.5 20.5q-59.5 32.5 -92 92.5t-32.5 140q0 110 49 200.5t134 142.5t189 52q35 0 73.5 -5t65.5 -10.5t34 -7.5l3 -6l-9.5 -28.5t-17.5 -59t-18 -76.5l-43 -4q1 6 5 26.5t4 32.5q0 84 -131 84q-73 0 -130 -39t-89 -110t-32 -163q0 -114 51 -181.5t139 -67.5q66 0 112 39
t74 121l43 4q-5 -15 -21 -65.5t-25 -94.5l-6 -9q0 -1 -28 -11.5t-70.5 -19.5t-93.5 -9q-78 0 -137.5 32.5zM355 732q-11 13 -11 32q0 27 19 46t47 19q20 0 31 -13t11 -32q0 -26 -19 -45.5t-46 -19.5q-21 0 -32 13z" />
    <glyph glyph-name="cdotaccent" unicode="&#x10b;" horiz-adv-x="344" 
d="M169 373q-29 -32 -47 -83.5t-18 -106.5q0 -62 18.5 -99t50.5 -37q30 0 60.5 24.5t48.5 62.5l14 -1l15 -24q-29 -53 -73.5 -87t-87.5 -34q-54 0 -85 44t-31 121t32.5 149t85 117t108.5 45q25 0 48 -5.5t37 -15.5l5 -11l-34 -67l-14 -3q-31 43 -73 43q-31 0 -60 -32z
M229 591q-11 13 -11 32q0 26 19 45.5t46 19.5q21 0 32 -13t11 -32q0 -26 -19.5 -45.5t-46.5 -19.5q-20 0 -31 13z" />
    <glyph glyph-name="Ccaron" unicode="&#x10c;" horiz-adv-x="601" 
d="M169.5 20.5q-59.5 32.5 -92 92.5t-32.5 140q0 110 49 200.5t134 142.5t189 52q35 0 73.5 -5t65.5 -10.5t34 -7.5l3 -6l-9.5 -28.5t-17.5 -59t-18 -76.5l-43 -4q1 6 5 26.5t4 32.5q0 84 -131 84q-73 0 -130 -39t-89 -110t-32 -163q0 -114 51 -181.5t139 -67.5q66 0 112 39
t74 121l43 4q-5 -15 -21 -65.5t-25 -94.5l-6 -9q0 -1 -28 -11.5t-70.5 -19.5t-93.5 -9q-78 0 -137.5 32.5zM390 704h-13l-120 111l16 22l10 1l109 -65l125 65l9 -1l12 -22z" />
    <glyph glyph-name="ccaron" unicode="&#x10d;" horiz-adv-x="344" 
d="M169 373q-29 -32 -47 -83.5t-18 -106.5q0 -62 18.5 -99t50.5 -37q30 0 60.5 24.5t48.5 62.5l14 -1l15 -24q-29 -53 -73.5 -87t-87.5 -34q-54 0 -85 44t-31 121t32.5 149t85 117t108.5 45q25 0 48 -5.5t37 -15.5l5 -11l-34 -67l-14 -3q-31 43 -73 43q-31 0 -60 -32z
M151 710q47 -48 110 -101q10 8 17 12q9 6 45.5 33t72.5 56l8 -1l13 -23q-47 -44 -96.5 -94.5t-63.5 -65.5h-13q-11 15 -47.5 65.5t-72.5 94.5l19 23z" />
    <glyph glyph-name="Dcaron" unicode="&#x10e;" horiz-adv-x="675" 
d="M220 -5q-50 5 -80 5t-65.5 -5t-46.5 -7l11 43q46 9 64 26.5t23 59.5l52 425q2 18 2 24q0 17 -6.5 23.5t-23.5 6.5q-10 0 -20 -1t-14 -1l-1 4l11 41q10 -1 39.5 -2t60.5 -1q40 0 80.5 1.5t55.5 2.5q85 0 151 -33.5t103 -93.5t37 -137q0 -104 -50 -193t-134 -142t-183 -53
q-16 2 -66 7zM271 591.5q-7 -4.5 -9 -17.5q-19 -123 -28 -171q-18 -114 -30.5 -195.5t-12.5 -100.5q0 -29 10.5 -44.5t35 -21.5t68.5 -6q78 0 137.5 40.5t92 113.5t32.5 167q0 115 -69 177.5t-200 62.5q-20 0 -27 -4.5zM397 704h-13l-120 111l16 22l10 1l109 -65l125 65
l9 -1l12 -22z" />
    <glyph glyph-name="dcaron" unicode="&#x10f;" horiz-adv-x="563" 
d="M352.5 68.5q11.5 8.5 60.5 50.5l12 -1l13 -24q-63 -59 -93.5 -82.5t-46.5 -23.5q-36 0 -36 29q0 13 18 95.5t25 112.5l-7 2q-49 -90 -94 -148t-92 -91q-38 0 -59 35.5t-21 100.5q0 80 34 158.5t87 128t108 49.5l72 -12l26 197l1 11q0 17 -10 25t-32 8h-41l6 38
q38 0 91 2.5t70 3.5l9 -12q-7 -33 -30.5 -148.5t-51 -261.5t-40.5 -247l3 -4q7 0 18.5 8.5zM216 157.5q57 88.5 112 216.5q-24 14 -51 23t-47 9q-32 0 -61.5 -33.5t-48 -87.5t-18.5 -112q0 -43 8.5 -73.5t20.5 -30.5q28 0 85 88.5zM551 617.5q-17 -64.5 -37 -128.5l-28 -14
l-10 2q11 69 16 136.5t5 81.5l71 14l5 -8q-5 -19 -22 -83.5z" />
    <glyph glyph-name="Dcroat" unicode="&#x110;" horiz-adv-x="684" 
d="M523 606.5q66 -33.5 103 -93.5t37 -137q0 -104 -50 -193t-134 -142t-183 -53q-16 2 -66 7t-80 5t-65.5 -5t-46.5 -7l11 43q46 9 64 26.5t23 59.5l23 187h-133l-6 7l11 32h133l24 199q2 18 2 24q0 17 -6.5 23.5t-23.5 6.5q-10 0 -20 -1t-14 -1l-1 4l11 41q10 -1 39.5 -2
t60.5 -1q40 0 80.5 1.5t55.5 2.5q85 0 151 -33.5zM452.5 75.5q59.5 40.5 92 113.5t32.5 167q0 115 -69 177.5t-200 62.5q-20 0 -27 -4.5t-9 -17.5l-37 -231h161l4 -7l-10 -32h-162q-27 -173 -27 -197q0 -29 10.5 -44.5t35 -21.5t68.5 -6q78 0 137.5 40.5z" />
    <glyph glyph-name="dcroat" unicode="&#x111;" horiz-adv-x="463" 
d="M415 538q-64 -316 -84 -474l3 -4q7 0 18.5 8.5t60.5 50.5l12 -1l13 -24q-63 -59 -93.5 -82.5t-46.5 -23.5q-36 0 -36 29q0 13 18 95.5t25 112.5l-7 2q-49 -90 -94 -148t-92 -91q-38 0 -59 35.5t-21 100.5q0 80 34 158.5t87 128t108 49.5l72 -12l12 90l-105 -1l-9 9l7 39
l113 -1l8 61l1 11q0 17 -10 25t-32 8h-41l6 38q38 0 91 2.5t70 3.5l9 -12q-2 -10 -9.5 -45.5t-18.5 -90.5l88 4l13 -13l-4 -37zM216 157.5q57 88.5 112 216.5q-24 14 -51 23t-47 9q-32 0 -61.5 -33.5t-48 -87.5t-18.5 -112q0 -43 8.5 -73.5t20.5 -30.5q28 0 85 88.5z" />
    <glyph glyph-name="Emacron" unicode="&#x112;" horiz-adv-x="567" 
d="M199 48q14 -7 58 -7q82 0 117.5 8t52.5 32t32 83l41 5l2 -5q-5 -14 -20 -64t-27 -102l-5 -5q-32 1 -132.5 4t-156.5 3q-45 0 -83.5 -4t-48.5 -6l11 43q44 6 62 23.5t23 60.5l53 425q2 18 2 24q0 17 -7 23.5t-24 6.5q-10 0 -19.5 -1t-13.5 -1l-1 3l11 42q12 -1 49 -2
t82 -1q115 0 178 2.5t111 9.5l2 -5q-2 -6 -8.5 -26.5t-16 -58.5t-17.5 -79l-44 -4q2 6 5.5 27.5t3.5 37.5q0 23 -11 33.5t-39 13.5t-92 3q-35 0 -47.5 -2t-17.5 -9.5t-8 -27.5l-31 -199l99 -1q21 0 62.5 4.5t55.5 6.5l3 -4l-20 -56q-14 1 -53 2t-82 1q-37 0 -74 -7
q-6 -42 -17 -111q-14 -87 -14 -107q0 -25 14 -32zM493 721l-137 -1l-138 -1l-5 9l16 45l147 -1q30 0 71 2.5t54 3.5l5 -10z" />
    <glyph glyph-name="emacron" unicode="&#x113;" horiz-adv-x="359" 
d="M285 278q-55 -45 -183 -88q-4 -64 15.5 -103t54.5 -39q30 0 60 23.5t50 62.5l14 -1l15 -24q-29 -53 -73.5 -87t-87.5 -34q-54 0 -85 44t-31 121q0 75 33.5 147.5t86 118t107.5 45.5q38 0 58.5 -20.5t20.5 -57.5q0 -63 -55 -108zM177.5 382.5q-25.5 -23.5 -45 -63.5
t-26.5 -87q87 27 125 57t38 71q0 46 -40 46q-26 0 -51.5 -23.5zM390 576l-136 -1l-138 -1l-5 9l15 45l148 -1q30 0 71 2.5t54 3.5l4 -10z" />
    <glyph glyph-name="Ebreve" unicode="&#x114;" horiz-adv-x="567" 
d="M199 48q14 -7 58 -7q82 0 117.5 8t52.5 32t32 83l41 5l2 -5q-5 -14 -20 -64t-27 -102l-5 -5q-32 1 -132.5 4t-156.5 3q-45 0 -83.5 -4t-48.5 -6l11 43q44 6 62 23.5t23 60.5l53 425q2 18 2 24q0 17 -7 23.5t-24 6.5q-10 0 -19.5 -1t-13.5 -1l-1 3l11 42q12 -1 49 -2
t82 -1q115 0 178 2.5t111 9.5l2 -5q-2 -6 -8.5 -26.5t-16 -58.5t-17.5 -79l-44 -4q2 6 5.5 27.5t3.5 37.5q0 23 -11 33.5t-39 13.5t-92 3q-35 0 -47.5 -2t-17.5 -9.5t-8 -27.5l-31 -199l99 -1q21 0 62.5 4.5t55.5 6.5l3 -4l-20 -56q-14 1 -53 2t-82 1q-37 0 -74 -7
q-6 -42 -17 -111q-14 -87 -14 -107q0 -25 14 -32zM413 789q27 17 42 49h9l14 -10q-17 -48 -50 -81t-80 -33t-72.5 33t-30.5 81l17 10h8q8 -32 30.5 -49t54.5 -17q31 0 58 17z" />
    <glyph glyph-name="ebreve" unicode="&#x115;" horiz-adv-x="359" 
d="M285 278q-55 -45 -183 -88q-4 -64 15.5 -103t54.5 -39q30 0 60 23.5t50 62.5l14 -1l15 -24q-29 -53 -73.5 -87t-87.5 -34q-54 0 -85 44t-31 121q0 75 33.5 147.5t86 118t107.5 45.5q38 0 58.5 -20.5t20.5 -57.5q0 -63 -55 -108zM177.5 382.5q-25.5 -23.5 -45 -63.5
t-26.5 -87q87 27 125 57t38 71q0 46 -40 46q-26 0 -51.5 -23.5zM307 605q27 17 42 49h9l14 -10q-17 -48 -50 -81t-80 -33t-72.5 33t-30.5 81l17 10h8q8 -32 30.5 -49t54.5 -17q31 0 58 17z" />
    <glyph glyph-name="Edotaccent" unicode="&#x116;" horiz-adv-x="567" 
d="M199 48q14 -7 58 -7q82 0 117.5 8t52.5 32t32 83l41 5l2 -5q-5 -14 -20 -64t-27 -102l-5 -5q-32 1 -132.5 4t-156.5 3q-45 0 -83.5 -4t-48.5 -6l11 43q44 6 62 23.5t23 60.5l53 425q2 18 2 24q0 17 -7 23.5t-24 6.5q-10 0 -19.5 -1t-13.5 -1l-1 3l11 42q12 -1 49 -2
t82 -1q115 0 178 2.5t111 9.5l2 -5q-2 -6 -8.5 -26.5t-16 -58.5t-17.5 -79l-44 -4q2 6 5.5 27.5t3.5 37.5q0 23 -11 33.5t-39 13.5t-92 3q-35 0 -47.5 -2t-17.5 -9.5t-8 -27.5l-31 -199l99 -1q21 0 62.5 4.5t55.5 6.5l3 -4l-20 -56q-14 1 -53 2t-82 1q-37 0 -74 -7
q-6 -42 -17 -111q-14 -87 -14 -107q0 -25 14 -32zM318 732q-11 13 -11 32q0 27 19 46t47 19q20 0 31 -13t11 -32q0 -26 -19 -45.5t-46 -19.5q-21 0 -32 13z" />
    <glyph glyph-name="edotaccent" unicode="&#x117;" horiz-adv-x="359" 
d="M285 278q-55 -45 -183 -88q-4 -64 15.5 -103t54.5 -39q30 0 60 23.5t50 62.5l14 -1l15 -24q-29 -53 -73.5 -87t-87.5 -34q-54 0 -85 44t-31 121q0 75 33.5 147.5t86 118t107.5 45.5q38 0 58.5 -20.5t20.5 -57.5q0 -63 -55 -108zM177.5 382.5q-25.5 -23.5 -45 -63.5
t-26.5 -87q87 27 125 57t38 71q0 46 -40 46q-26 0 -51.5 -23.5zM217 591q-11 13 -11 32q0 26 19 45.5t46 19.5q21 0 32 -13t11 -32q0 -26 -19.5 -45.5t-46.5 -19.5q-20 0 -31 13z" />
    <glyph glyph-name="Eogonek" unicode="&#x118;" horiz-adv-x="567" 
d="M199 48q14 -7 58 -7q82 0 117.5 8t52.5 32t32 83l41 5l2 -5q-5 -14 -20 -64t-27 -102l-5 -5q-32 1 -132.5 4t-156.5 3q-45 0 -83.5 -4t-48.5 -6l11 43q44 6 62 23.5t23 60.5l53 425q2 18 2 24q0 17 -7 23.5t-24 6.5q-10 0 -19.5 -1t-13.5 -1l-1 3l11 42q12 -1 49 -2
t82 -1q115 0 178 2.5t111 9.5l2 -5q-2 -6 -8.5 -26.5t-16 -58.5t-17.5 -79l-44 -4q2 6 5.5 27.5t3.5 37.5q0 23 -11 33.5t-39 13.5t-92 3q-35 0 -47.5 -2t-17.5 -9.5t-8 -27.5l-31 -199l99 -1q21 0 62.5 4.5t55.5 6.5l3 -4l-20 -56q-14 1 -53 2t-82 1q-37 0 -74 -7
q-6 -42 -17 -111q-14 -87 -14 -107q0 -25 14 -32zM423.5 -195.5q-15.5 -11.5 -38.5 -25.5t-46 -22q-44 0 -70 22t-26 61q0 40 31.5 78t103.5 104l20 18h41q-57 -54 -82.5 -80.5t-37.5 -48.5t-12 -47q0 -21 13.5 -34.5t35.5 -13.5q16 0 33.5 5t29 10.5t14.5 7.5l10 -19
q-4 -4 -19.5 -15.5z" />
    <glyph glyph-name="eogonek" unicode="&#x119;" horiz-adv-x="359" 
d="M263 44.5q-24 -27.5 -60 -63.5q-39 -38 -56 -61.5t-17 -53.5q0 -21 13.5 -34.5t35.5 -13.5q16 0 33.5 5t29 10.5t14.5 7.5l10 -19q-4 -4 -19.5 -15.5t-38.5 -25.5t-46 -22q-44 0 -70 22t-26 61q0 34 24.5 68t73.5 80q-8 -2 -14 -2q-54 0 -85 44t-31 121q0 75 33.5 147.5
t86 118t107.5 45.5q38 0 58.5 -20.5t20.5 -57.5q0 -63 -55 -108t-183 -88q-4 -64 15.5 -103t54.5 -39q30 0 60 23.5t50 62.5l14 -1l15 -24q-24 -37 -48 -64.5zM177.5 382.5q-25.5 -23.5 -45 -63.5t-26.5 -87q87 27 125 57t38 71q0 46 -40 46q-26 0 -51.5 -23.5z" />
    <glyph glyph-name="Ecaron" unicode="&#x11a;" horiz-adv-x="567" 
d="M199 48q14 -7 58 -7q82 0 117.5 8t52.5 32t32 83l41 5l2 -5q-5 -14 -20 -64t-27 -102l-5 -5q-32 1 -132.5 4t-156.5 3q-45 0 -83.5 -4t-48.5 -6l11 43q44 6 62 23.5t23 60.5l53 425q2 18 2 24q0 17 -7 23.5t-24 6.5q-10 0 -19.5 -1t-13.5 -1l-1 3l11 42q12 -1 49 -2
t82 -1q115 0 178 2.5t111 9.5l2 -5q-2 -6 -8.5 -26.5t-16 -58.5t-17.5 -79l-44 -4q2 6 5.5 27.5t3.5 37.5q0 23 -11 33.5t-39 13.5t-92 3q-35 0 -47.5 -2t-17.5 -9.5t-8 -27.5l-31 -199l99 -1q21 0 62.5 4.5t55.5 6.5l3 -4l-20 -56q-14 1 -53 2t-82 1q-37 0 -74 -7
q-6 -42 -17 -111q-14 -87 -14 -107q0 -25 14 -32zM353 704h-13l-120 111l16 22l10 1l109 -65l125 65l9 -1l12 -22z" />
    <glyph glyph-name="ecaron" unicode="&#x11b;" horiz-adv-x="359" 
d="M285 278q-55 -45 -183 -88q-4 -64 15.5 -103t54.5 -39q30 0 60 23.5t50 62.5l14 -1l15 -24q-29 -53 -73.5 -87t-87.5 -34q-54 0 -85 44t-31 121q0 75 33.5 147.5t86 118t107.5 45.5q38 0 58.5 -20.5t20.5 -57.5q0 -63 -55 -108zM177.5 382.5q-25.5 -23.5 -45 -63.5
t-26.5 -87q87 27 125 57t38 71q0 46 -40 46q-26 0 -51.5 -23.5zM139 710q47 -48 110 -101q10 8 17 12q9 6 45.5 33t72.5 56l8 -1l13 -23q-47 -44 -96.5 -94.5t-63.5 -65.5h-13q-11 15 -47.5 65.5t-72.5 94.5l19 23z" />
    <glyph glyph-name="Gcircumflex" unicode="&#x11c;" horiz-adv-x="640" 
d="M543 301q25 2 32 3l1 -20q-30 -20 -40 -89q-5 -32 -9.5 -70t-4.5 -52l1 -30l-6 -8q0 -1 -31.5 -13.5t-78 -23t-100.5 -10.5q-78 0 -137.5 32.5t-92 92.5t-32.5 140q0 110 49 200.5t134 142.5t189 52q35 0 73.5 -5t65.5 -10.5t34 -7.5l3 -6l-9.5 -28.5t-17.5 -59
t-18 -76.5l-43 -4q1 6 5 26.5t4 32.5q0 84 -131 84q-73 0 -130 -39t-89 -110t-32 -163q0 -114 51 -181.5t139 -67.5q35 0 65 8.5t50 19t20 11.5l15 126q1 8 1 20q0 21 -10 27.5t-38 6.5h-67l-1 4l14 47q1 0 36.5 -2t84.5 -2q26 0 51 2zM419 867h14l115 -153l-17 -22l-9 -1
l-105 97l-129 -97l-9 1l-12 22z" />
    <glyph glyph-name="gcircumflex" unicode="&#x11d;" horiz-adv-x="444" 
d="M1.5 -222.5q-37.5 18.5 -60.5 48t-21 59.5l2 5q55 44 187 122l1 9q-24 14 -37.5 48t-13.5 80q0 73 32.5 145.5t83.5 119t102 46.5l102 -16l11 25l5 1l31 -15l8 -9q-70 -130 -79 -208q-3 -28 -10 -144q-4 -73 -6 -94q-7 -57 -48 -113t-99 -92t-112 -36q-41 0 -78.5 18.5z
M236 163q48 76 111 212q-62 31 -101 31q-29 0 -56.5 -30.5t-44.5 -79t-17 -100.5q0 -43 11.5 -76t26.5 -33q22 0 70 76zM222 -136.5q45 46.5 55 125.5l25 207l-8 2q-46 -85 -75 -124t-66 -66q-27 -19 -68 -46q-45 -29 -65.5 -44.5t-20.5 -24.5q0 -17 17.5 -34.5t44 -29.5
t52.5 -12q64 0 109 46.5zM294 715h14l115 -153l-17 -22l-9 -1l-105 97l-129 -97l-9 1l-12 22z" />
    <glyph glyph-name="Gbreve" unicode="&#x11e;" horiz-adv-x="640" 
d="M543 301q25 2 32 3l1 -20q-30 -20 -40 -89q-5 -32 -9.5 -70t-4.5 -52l1 -30l-6 -8q0 -1 -31.5 -13.5t-78 -23t-100.5 -10.5q-78 0 -137.5 32.5t-92 92.5t-32.5 140q0 110 49 200.5t134 142.5t189 52q35 0 73.5 -5t65.5 -10.5t34 -7.5l3 -6l-9.5 -28.5t-17.5 -59
t-18 -76.5l-43 -4q1 6 5 26.5t4 32.5q0 84 -131 84q-73 0 -130 -39t-89 -110t-32 -163q0 -114 51 -181.5t139 -67.5q35 0 65 8.5t50 19t20 11.5l15 126q1 8 1 20q0 21 -10 27.5t-38 6.5h-67l-1 4l14 47q1 0 36.5 -2t84.5 -2q26 0 51 2zM459 781q26 13 41 37h8l15 -10
q-17 -42 -50 -70t-79 -28q-47 0 -72.5 28t-32.5 70l18 10h8q9 -24 32 -37t54 -13q32 0 58 13z" />
    <glyph glyph-name="gbreve" unicode="&#x11f;" horiz-adv-x="444" 
d="M1.5 -222.5q-37.5 18.5 -60.5 48t-21 59.5l2 5q55 44 187 122l1 9q-24 14 -37.5 48t-13.5 80q0 73 32.5 145.5t83.5 119t102 46.5l102 -16l11 25l5 1l31 -15l8 -9q-70 -130 -79 -208q-3 -28 -10 -144q-4 -73 -6 -94q-7 -57 -48 -113t-99 -92t-112 -36q-41 0 -78.5 18.5z
M236 163q48 76 111 212q-62 31 -101 31q-29 0 -56.5 -30.5t-44.5 -79t-17 -100.5q0 -43 11.5 -76t26.5 -33q22 0 70 76zM222 -136.5q45 46.5 55 125.5l25 207l-8 2q-46 -85 -75 -124t-66 -66q-27 -19 -68 -46q-45 -29 -65.5 -44.5t-20.5 -24.5q0 -17 17.5 -34.5t44 -29.5
t52.5 -12q64 0 109 46.5zM334 637q27 17 42 49h9l14 -10q-17 -48 -50 -81t-80 -33t-72.5 33t-30.5 81l17 10h8q8 -32 30.5 -49t54.5 -17q31 0 58 17z" />
    <glyph glyph-name="Gdotaccent" unicode="&#x120;" horiz-adv-x="640" 
d="M543 301q25 2 32 3l1 -20q-30 -20 -40 -89q-5 -32 -9.5 -70t-4.5 -52l1 -30l-6 -8q0 -1 -31.5 -13.5t-78 -23t-100.5 -10.5q-78 0 -137.5 32.5t-92 92.5t-32.5 140q0 110 49 200.5t134 142.5t189 52q35 0 73.5 -5t65.5 -10.5t34 -7.5l3 -6l-9.5 -28.5t-17.5 -59
t-18 -76.5l-43 -4q1 6 5 26.5t4 32.5q0 84 -131 84q-73 0 -130 -39t-89 -110t-32 -163q0 -114 51 -181.5t139 -67.5q35 0 65 8.5t50 19t20 11.5l15 126q1 8 1 20q0 21 -10 27.5t-38 6.5h-67l-1 4l14 47q1 0 36.5 -2t84.5 -2q26 0 51 2zM364 732q-11 13 -11 32q0 27 19 46
t47 19q20 0 31 -13t11 -32q0 -26 -19 -45.5t-46 -19.5q-21 0 -32 13z" />
    <glyph glyph-name="gdotaccent" unicode="&#x121;" horiz-adv-x="444" 
d="M1.5 -222.5q-37.5 18.5 -60.5 48t-21 59.5l2 5q55 44 187 122l1 9q-24 14 -37.5 48t-13.5 80q0 73 32.5 145.5t83.5 119t102 46.5l102 -16l11 25l5 1l31 -15l8 -9q-70 -130 -79 -208q-3 -28 -10 -144q-4 -73 -6 -94q-7 -57 -48 -113t-99 -92t-112 -36q-41 0 -78.5 18.5z
M236 163q48 76 111 212q-62 31 -101 31q-29 0 -56.5 -30.5t-44.5 -79t-17 -100.5q0 -43 11.5 -76t26.5 -33q22 0 70 76zM222 -136.5q45 46.5 55 125.5l25 207l-8 2q-46 -85 -75 -124t-66 -66q-27 -19 -68 -46q-45 -29 -65.5 -44.5t-20.5 -24.5q0 -17 17.5 -34.5t44 -29.5
t52.5 -12q64 0 109 46.5zM244 623q-11 13 -11 32q0 26 19 45.5t46 19.5q21 0 32 -13t11 -32q0 -26 -19.5 -45.5t-46.5 -19.5q-20 0 -31 13z" />
    <glyph glyph-name="Gcommaaccent" unicode="&#x122;" horiz-adv-x="640" 
d="M543 301q25 2 32 3l1 -20q-30 -20 -40 -89q-5 -32 -9.5 -70t-4.5 -52l1 -30l-6 -8q0 -1 -31.5 -13.5t-78 -23t-100.5 -10.5q-78 0 -137.5 32.5t-92 92.5t-32.5 140q0 110 49 200.5t134 142.5t189 52q35 0 73.5 -5t65.5 -10.5t34 -7.5l3 -6l-9.5 -28.5t-17.5 -59
t-18 -76.5l-43 -4q1 6 5 26.5t4 32.5q0 84 -131 84q-73 0 -130 -39t-89 -110t-32 -163q0 -114 51 -181.5t139 -67.5q35 0 65 8.5t50 19t20 11.5l15 126q1 8 1 20q0 21 -10 27.5t-38 6.5h-67l-1 4l14 47q1 0 36.5 -2t84.5 -2q26 0 51 2zM309 -67q23 0 38.5 -19.5t15.5 -51.5
q0 -49 -38 -88.5t-90 -66.5l-18 15v10q31 19 51.5 46.5t20.5 52.5q0 19 -11 35.5t-29 26.5l2 14q34 26 58 26z" />
    <glyph glyph-name="gcommaaccent" unicode="&#x123;" horiz-adv-x="444" 
d="M1.5 -222.5q-37.5 18.5 -60.5 48t-21 59.5l2 5q55 44 187 122l1 9q-24 14 -37.5 48t-13.5 80q0 73 32.5 145.5t83.5 119t102 46.5l102 -16l11 25l5 1l31 -15l8 -9q-70 -130 -79 -208q-3 -28 -10 -144q-4 -73 -6 -94q-7 -57 -48 -113t-99 -92t-112 -36q-41 0 -78.5 18.5z
M236 163q48 76 111 212q-62 31 -101 31q-29 0 -56.5 -30.5t-44.5 -79t-17 -100.5q0 -43 11.5 -76t26.5 -33q22 0 70 76zM222 -136.5q45 46.5 55 125.5l25 207l-8 2q-46 -85 -75 -124t-66 -66q-27 -19 -68 -46q-45 -29 -65.5 -44.5t-20.5 -24.5q0 -17 17.5 -34.5t44 -29.5
t52.5 -12q64 0 109 46.5zM310 510q-24 0 -39.5 20.5t-15.5 52.5q0 41 30.5 82t86.5 76l19 -14l1 -10q-30 -22 -47.5 -49.5t-17.5 -50.5q0 -19 11.5 -36t32.5 -27l-1 -14q-33 -30 -60 -30z" />
    <glyph glyph-name="Hcircumflex" unicode="&#x124;" horiz-adv-x="723" 
d="M711 646l-8 -43q-37 -5 -51 -16.5t-19 -40.5q-68 -417 -68 -462q0 -24 8 -33.5t28 -9.5q11 0 44 3q0 -1 0.5 -1.5t-0.5 -1.5l-13 -44q-14 0 -21 1q-64 2 -98 2h-31q-30 0 -50 -1t-25 -1l13 43q32 1 48 9.5t24.5 30.5t14.5 68l19 154l-149 1q-41 0 -162 -11l-17 -120
l-4 -28q-7 -42 -7 -64q0 -24 7 -31.5t29 -7.5q11 0 44 3l1 -4l-14 -44q-8 1 -31 2t-47 1q-44 0 -95.5 -4t-52.5 -8l11 43q36 7 53.5 18t25.5 33.5t12 68.5l48 391q2 20 2 24q0 18 -6.5 24t-24.5 6l-32 -2l-2 3l12 43q66 -4 106 -4q33 0 100 10l-8 -43q-30 -5 -43 -12
t-19.5 -24t-12.5 -56l-27 -164l164 -1q49 0 146 10l23 186q2 18 2 23q0 18 -7 24.5t-24 6.5l-33 -2l-2 3l13 43q10 -1 37.5 -2.5t52.5 -1.5q34 0 116 10zM436 846h14l120 -111l-17 -22l-9 -1l-110 65l-125 -65l-9 1l-11 22z" />
    <glyph glyph-name="hcircumflex" unicode="&#x125;" horiz-adv-x="490" 
d="M363 70q13 10 59 49l12 -1l13 -24q-107 -106 -140 -106q-31 0 -31 29q0 20 8.5 52.5t27.5 95.5q20 63 30 102t10 63q0 18 -9.5 29.5t-24.5 11.5q-31 0 -82.5 -75.5t-103.5 -197.5l-11 -84q-1 -5 -25.5 -14t-36.5 -9l-7 9q15 96 55.5 360.5t40.5 289.5q0 20 -10 29.5
t-32 9.5h-41l6 38q38 0 91 2.5t70 3.5l9 -12q-5 -21 -22.5 -99t-40 -193.5t-38.5 -226.5l5 -3q52 101 104.5 169.5t98.5 95.5q32 0 55.5 -28.5t23.5 -68.5q0 -27 -12 -69t-36 -109q-33 -93 -39 -125l3 -4q7 0 20 10zM191 907h14l120 -111l-17 -22l-9 -1l-110 65l-125 -65
l-9 1l-11 22z" />
    <glyph glyph-name="Hbar" unicode="&#x126;" horiz-adv-x="723" 
d="M617 450q-52 -327 -52 -366q0 -24 8 -33.5t28 -9.5q11 0 44 3q0 -1 0.5 -1.5t-0.5 -1.5l-13 -44q-14 0 -21 1q-64 2 -98 2h-31q-30 0 -50 -1t-25 -1l13 43q32 1 48 9.5t24.5 30.5t14.5 68l19 154l-149 1q-41 0 -162 -11l-17 -120l-4 -28q-7 -42 -7 -64q0 -24 7 -31.5
t29 -7.5q11 0 44 3l1 -4l-14 -44q-8 1 -31 2t-47 1q-44 0 -95.5 -4t-52.5 -8l11 43q36 7 53.5 18t25.5 33.5t12 68.5l37 297h-98l-9 9l7 39h105l6 46q2 20 2 24q0 18 -6.5 24t-24.5 6l-32 -2l-2 3l12 43q66 -4 106 -4q33 0 100 10l-8 -43q-30 -5 -43 -12t-19.5 -24
t-12.5 -56l-3 -16h167l136 1l6 46q2 18 2 23q0 18 -7 24.5t-24 6.5l-33 -2l-2 3l13 43q10 -1 37.5 -2.5t52.5 -1.5q34 0 116 10l-8 -43q-37 -5 -51 -16.5t-19 -40.5l-8 -48l87 2l13 -13l-4 -37h-104zM544 449h-152h-152l-17 -102l164 -1q49 0 146 10z" />
    <glyph glyph-name="hbar" unicode="&#x127;" horiz-adv-x="490" 
d="M447 94q-107 -106 -140 -106q-31 0 -31 29q0 20 8.5 52.5t27.5 95.5q20 63 30 102t10 63q0 18 -9.5 29.5t-24.5 11.5q-31 0 -82.5 -75.5t-103.5 -197.5l-11 -84q-1 -5 -25.5 -14t-36.5 -9l-7 9q9 55 32.5 207.5t47.5 314.5l-91 -1l-9 9l7 39l99 -1q10 73 10 82
q0 20 -10 29.5t-32 9.5h-41l6 38q38 0 91 2.5t70 3.5l9 -12q-3 -11 -12 -50.5t-22 -101.5l112 4l13 -13l-4 -37l-130 -1q-36 -167 -58 -320l5 -3q52 101 104.5 169.5t98.5 95.5q32 0 55.5 -28.5t23.5 -68.5q0 -27 -12 -69t-36 -109q-33 -93 -39 -125l3 -4q7 0 20 10t59 49
l12 -1z" />
    <glyph glyph-name="Imacron" unicode="&#x12a;" horiz-adv-x="346" 
d="M276 586.5q-15 -11.5 -20 -40.5q-70 -406 -70 -461q0 -24 8.5 -33.5t28.5 -9.5q18 0 32 1t19 2l2 -4l-14 -44q-13 1 -49.5 2t-75.5 1q-30 0 -65 -5t-46 -7l12 43q46 9 64.5 27t23.5 60l52 424q2 18 2 23q0 18 -7 24.5t-24 6.5q-12 0 -24.5 -1t-16.5 -1l-1 3l12 43
q2 0 42 -2t71 -2q28 0 63.5 4t46.5 6l-10 -43q-41 -5 -56 -16.5zM379 721l-137 -1l-138 -1l-5 9l16 45l147 -1q30 0 71 2.5t54 3.5l5 -10z" />
    <glyph glyph-name="imacron" unicode="&#x12b;" horiz-adv-x="270" 
d="M289.801 576l-122.396 -1l-124.195 -1l-4.49902 9l13.499 45l133.194 -1q26.999 0 63.8975 2.5t48.5986 3.5l3.59961 -10zM145.5 70.5q14.5 10.5 57.5 48.5l12 -1l13 -24q-106 -106 -140 -106q-16 0 -23 8.5t-7 26.5q22 130 36.5 228.5t14.5 114.5q0 23 -9.5 32.5
t-32.5 9.5h-41l7 38q68 0 162 6l9 -12q-25 -81 -48.5 -188t-34.5 -188l3 -4q7 0 21.5 10.5z" />
    <glyph glyph-name="Ibreve" unicode="&#x12c;" horiz-adv-x="346" 
d="M276 586.5q-15 -11.5 -20 -40.5q-70 -406 -70 -461q0 -24 8.5 -33.5t28.5 -9.5q18 0 32 1t19 2l2 -4l-14 -44q-13 1 -49.5 2t-75.5 1q-30 0 -65 -5t-46 -7l12 43q46 9 64.5 27t23.5 60l52 424q2 18 2 23q0 18 -7 24.5t-24 6.5q-12 0 -24.5 -1t-16.5 -1l-1 3l12 43
q2 0 42 -2t71 -2q28 0 63.5 4t46.5 6l-10 -43q-41 -5 -56 -16.5zM299 781q26 13 41 37h8l15 -10q-17 -42 -50 -70t-79 -28q-47 0 -72.5 28t-32.5 70l18 10h8q9 -24 32 -37t54 -13q32 0 58 13z" />
    <glyph glyph-name="ibreve" unicode="&#x12d;" horiz-adv-x="282" 
d="M273 605q27 17 42 49h9l14 -10q-17 -48 -50 -81t-80 -33t-72.5 33t-30.5 81l17 10h8q8 -32 30.5 -49t54.5 -17q31 0 58 17zM180.5 70.5q14.5 10.5 57.5 48.5l12 -1l13 -24q-106 -106 -140 -106q-16 0 -23 8.5t-7 26.5q22 130 36.5 228.5t14.5 114.5q0 23 -9.5 32.5
t-32.5 9.5h-41l7 38q68 0 162 6l9 -12q-25 -81 -48.5 -188t-34.5 -188l3 -4q7 0 21.5 10.5z" />
    <glyph glyph-name="Iogonek" unicode="&#x12e;" horiz-adv-x="346" 
d="M276 586.5q-15 -11.5 -20 -40.5q-70 -406 -70 -461q0 -24 8.5 -33.5t28.5 -9.5q18 0 32 1t19 2l2 -4l-14 -44q-13 1 -49.5 2t-75.5 1q-30 0 -65 -5t-46 -7l12 43q46 9 64.5 27t23.5 60l52 424q2 18 2 23q0 18 -7 24.5t-24 6.5q-12 0 -24.5 -1t-16.5 -1l-1 3l12 43
q2 0 42 -2t71 -2q28 0 63.5 4t46.5 6l-10 -43q-41 -5 -56 -16.5zM231.5 -200.5q-15.5 -11.5 -38.5 -25.5t-46 -22q-44 0 -70 22t-26 61q0 40 31.5 78t103.5 104l20 18h41q-57 -54 -82.5 -80.5t-37.5 -48.5t-12 -47q0 -21 13.5 -34.5t35.5 -13.5q16 0 33.5 5t29 10.5
t14.5 7.5l10 -19q-4 -4 -19.5 -15.5z" />
    <glyph glyph-name="iogonek" unicode="&#x12f;" horiz-adv-x="264" 
d="M147 605q-11 13 -11 31q0 26 18.5 46t45.5 20q19 0 30 -13t11 -31q0 -27 -18 -46.5t-45 -19.5q-20 0 -31 13zM175 37q-52 -48 -76 -73t-37.5 -48.5t-13.5 -49.5q0 -21 13.5 -34.5t35.5 -13.5q16 0 33.5 5t29 10.5t14.5 7.5l10 -19q-4 -4 -19.5 -15.5t-38.5 -25.5t-46 -22
q-44 0 -70 22t-26 61q0 34 25 68t74 80q-16 7 -16 33q8 49 29.5 185t21.5 158q0 23 -9.5 32.5t-32.5 9.5h-41l7 38q38 0 91.5 2.5t70.5 3.5l9 -12q-4 -15 -19.5 -70.5t-33.5 -139t-30 -166.5l3 -4q7 0 21.5 10.5t57.5 48.5l12 -1l13 -24z" />
    <glyph glyph-name="Idotaccent" unicode="&#x130;" horiz-adv-x="346" 
d="M276 586.5q-15 -11.5 -20 -40.5q-70 -406 -70 -461q0 -24 8.5 -33.5t28.5 -9.5q18 0 32 1t19 2l2 -4l-14 -44q-13 1 -49.5 2t-75.5 1q-30 0 -65 -5t-46 -7l12 43q46 9 64.5 27t23.5 60l52 424q2 18 2 23q0 18 -7 24.5t-24 6.5q-12 0 -24.5 -1t-16.5 -1l-1 3l12 43
q2 0 42 -2t71 -2q28 0 63.5 4t46.5 6l-10 -43q-41 -5 -56 -16.5zM204 732q-11 13 -11 32q0 27 19 46t47 19q20 0 31 -13t11 -32q0 -26 -19 -45.5t-46 -19.5q-21 0 -32 13z" />
    <glyph glyph-name="dotlessi" unicode="&#x131;" horiz-adv-x="264" 
d="M154.5 70.5q14.5 10.5 57.5 48.5l12 -1l13 -24q-106 -106 -140 -106q-16 0 -23 8.5t-7 26.5q22 130 36.5 228.5t14.5 114.5q0 23 -9.5 32.5t-32.5 9.5h-41l7 38q68 0 162 6l9 -12q-25 -81 -48.5 -188t-34.5 -188l3 -4q7 0 21.5 10.5z" />
    <glyph glyph-name="IJ" unicode="&#x132;" horiz-adv-x="659" 
d="M276 586.5q-15 -11.5 -20 -40.5q-70 -406 -70 -461q0 -24 8.5 -33.5t28.5 -9.5q18 0 32 1t19 2l2 -4l-14 -44q-13 1 -49.5 2t-75.5 1q-30 0 -65 -5t-46 -7l12 43q46 9 64.5 27t23.5 60l52 424q2 18 2 23q0 18 -7 24.5t-24 6.5q-12 0 -24.5 -1t-16.5 -1l-1 3l12 43
q2 0 42 -2t71 -2q28 0 63.5 4t46.5 6l-10 -43q-41 -5 -56 -16.5zM516 565q0 17 -7 23.5t-24 6.5q-12 0 -26.5 -1.5t-20.5 -2.5v3l11 42h103q24 0 61 3.5t49 5.5l-8 -42q-35 -5 -46.5 -15.5t-16.5 -41.5q-15 -93 -34 -216.5t-31 -211.5q-13 -102 -56.5 -164t-127.5 -97
l-12 32l3 8q43 24 68 51.5t38.5 66t20.5 99.5l54 428q2 18 2 23z" />
    <glyph glyph-name="ij" unicode="&#x133;" horiz-adv-x="509" 
d="M154.5 70.5q14.5 10.5 57.5 48.5l12 -1l13 -24q-106 -106 -140 -106q-16 0 -23 8.5t-7 26.5q22 130 36.5 228.5t14.5 114.5q0 23 -9.5 32.5t-32.5 9.5h-41l7 38q68 0 162 6l9 -12q-25 -81 -48.5 -188t-34.5 -188l3 -4q7 0 21.5 10.5zM139 591q-11 13 -11 32q0 26 19 45.5
t46 19.5q21 0 32 -13t11 -32q0 -26 -19.5 -45.5t-46.5 -19.5q-20 0 -31 13zM408.5 604q-11.5 12 -11.5 32q0 27 19 46.5t45 19.5q19 0 30.5 -12t11.5 -32q0 -27 -19 -46.5t-45 -19.5q-19 0 -30.5 12zM332 -141.5q-42 -61.5 -116 -99.5l-15 19l3 8q40 29 64.5 60t39.5 76
t24 116q8 46 29 175.5t21 151.5q0 23 -10.5 33t-33.5 10h-41l8 38q38 0 90.5 2.5t68.5 3.5l10 -12q-5 -20 -21.5 -91.5t-36 -164.5t-28.5 -163q-14 -101 -56 -162.5z" />
    <glyph glyph-name="Jcircumflex" unicode="&#x134;" horiz-adv-x="313" 
d="M170 565q0 17 -7 23.5t-24 6.5q-12 0 -26.5 -1.5t-20.5 -2.5v3l11 42h103q24 0 61 3.5t49 5.5l-8 -42q-35 -5 -46.5 -15.5t-16.5 -41.5q-15 -93 -34 -216.5t-31 -211.5q-13 -102 -56.5 -164t-127.5 -97l-12 32l3 8q43 24 68 51.5t38.5 66t20.5 99.5l54 428q2 18 2 23z
M236 867h14l115 -153l-17 -22l-9 -1l-105 97l-129 -97l-9 1l-12 22z" />
    <glyph glyph-name="jcircumflex" unicode="&#x135;" horiz-adv-x="245" 
d="M68 -141.5q-42 -61.5 -116 -99.5l-15 19l3 8q40 29 64.5 60t39.5 76t24 116q8 46 29 175.5t21 151.5q0 23 -10.5 33t-33.5 10h-41l8 38q38 0 90.5 2.5t68.5 3.5l10 -12q-5 -20 -21.5 -91.5t-36 -164.5t-28.5 -163q-14 -101 -56 -162.5zM180 683h14l115 -153l-17 -22
l-9 -1l-105 97l-129 -97l-9 1l-12 22z" />
    <glyph glyph-name="Kcommaaccent" unicode="&#x136;" horiz-adv-x="601" 
d="M180 566q0 17 -7 23.5t-24 6.5q-10 0 -19.5 -1t-12.5 -1l-2 3l12 43q11 -1 42 -2.5t63 -1.5q26 0 58.5 4t42.5 6l-8 -43q-37 -5 -52 -18t-20 -42l-65 -434q-3 -18 -3 -30q0 -21 9 -29t29 -8q15 0 27.5 1t16.5 2l2 -4l-15 -44q-12 1 -46.5 2t-70.5 1l-109 -1l15 43
q32 3 48 10t23.5 22t11.5 44l52 424q2 18 2 24zM442 517q36 35 36 54q0 24 -57 28l-2 4l12 41q11 -1 46 -4.5t58 -3.5t51 1.5t36 2.5l2 -6l-10 -39q-25 -4 -47 -20t-74 -65l-183 -174l136 -218q30 -47 55 -66t58 -19l3 -3l-9 -32q-10 -2 -39 -7t-35 -5q-23 0 -48 22.5
t-49 63.5l-140 243l2 13zM369 -67q23 0 38.5 -19.5t15.5 -51.5q0 -49 -38 -88.5t-90 -66.5l-18 15v10q31 19 51.5 46.5t20.5 52.5q0 19 -11 35.5t-29 26.5l2 14q34 26 58 26z" />
    <glyph glyph-name="kcommaaccent" unicode="&#x137;" horiz-adv-x="432" 
d="M211 194q70 35 103 69t33 71q0 16 -9.5 26.5t-23.5 10.5q-31 0 -83.5 -76.5t-103.5 -197.5l-11 -83q-1 -5 -25.5 -14t-36.5 -9l-7 9q15 96 55.5 360.5t40.5 289.5q0 20 -10 29.5t-32 9.5h-41l6 38q38 0 91 2.5t70 3.5l9 -12q-5 -21 -22.5 -99t-40 -193.5t-38.5 -226.5
l5 -3q52 101 104.5 169.5t98.5 95.5q32 0 54 -27t22 -65q0 -46 -39.5 -94t-114.5 -92q28 -44 55 -81t44.5 -58.5t22.5 -26.5l2 -12l-61 -32l-13 7l-108 196zM212 -67q23 0 38.5 -19.5t15.5 -51.5q0 -49 -38 -88.5t-90 -66.5l-18 15v10q31 19 51.5 46.5t20.5 52.5
q0 19 -11 35.5t-29 26.5l2 14q34 26 58 26z" />
    <glyph glyph-name="kgreenlandic" unicode="&#x138;" horiz-adv-x="464" 
d="M334 -17l-108 196l4 15q70 35 103 69t33 71q0 16 -9.5 26.5t-23.5 10.5q-31 0 -83.5 -76.5t-103.5 -197.5l-11 -83q-1 -5 -25.5 -14t-36.5 -9l-7 9q9 53 32 200.5t23 167.5q0 21 -10 30.5t-33 9.5h-41l7 38q38 0 91.5 2.5t70.5 3.5l9 -12q-3 -9 -14 -44.5t-25 -88.5
t-22 -105l5 -3q52 101 104.5 169.5t98.5 95.5q32 0 54 -27t22 -65q0 -46 -39.5 -94t-114.5 -92q28 -44 55 -81t44.5 -58.5t22.5 -26.5l2 -12l-61 -32z" />
    <glyph glyph-name="Lacute" unicode="&#x139;" horiz-adv-x="485" 
d="M478 182q-5 -15 -21 -70t-30 -116l-5 -5q-27 2 -113 5.5t-142 3.5q-45 0 -82 -4t-47 -6l12 43q38 6 54 24t21 60l53 425q1 9 1 22q0 19 -6.5 25.5t-23.5 6.5q-10 0 -19.5 -1t-13.5 -1l-1 3l12 43q1 0 38 -2t68 -2q26 0 58 4t42 6l-8 -42q-30 -5 -42 -11.5t-18 -23
t-15 -61.5q-16 -86 -39 -239.5t-23 -177.5q0 -21 6 -31.5t22 -14.5t48 -4q59 0 88.5 10t47 38.5t35.5 92.5l42 4zM277.5 738.5q-61.5 -21.5 -127.5 -46.5l-8 5l-6 24q59 31 120 65t79 44l9 -6l16 -48l-4 -10q-17 -6 -78.5 -27.5z" />
    <glyph glyph-name="lacute" unicode="&#x13a;" horiz-adv-x="250" 
d="M142.5 70.5q14.5 10.5 57.5 48.5l12 -1l13 -24q-106 -106 -140 -106q-31 0 -31 29q0 4 11 76t21 138q62 385 62 418q0 21 -10 30.5t-32 9.5h-41l6 38q38 0 91 2.5t70 3.5l9 -12q-7 -31 -30 -140.5t-50.5 -255.5t-42.5 -261l3 -4q7 0 21.5 10.5zM239 887q-50 -41 -103 -88
l-9 2l-20 19q45 49 91 103t59 70l10 -2l38 -41l-1 -11q-15 -11 -65 -52z" />
    <glyph glyph-name="Lcommaaccent" unicode="&#x13b;" horiz-adv-x="485" 
d="M478 182q-5 -15 -21 -70t-30 -116l-5 -5q-27 2 -113 5.5t-142 3.5q-45 0 -82 -4t-47 -6l12 43q38 6 54 24t21 60l53 425q1 9 1 22q0 19 -6.5 25.5t-23.5 6.5q-10 0 -19.5 -1t-13.5 -1l-1 3l12 43q1 0 38 -2t68 -2q26 0 58 4t42 6l-8 -42q-30 -5 -42 -11.5t-18 -23
t-15 -61.5q-16 -86 -39 -239.5t-23 -177.5q0 -21 6 -31.5t22 -14.5t48 -4q59 0 88.5 10t47 38.5t35.5 92.5l42 4zM252 -67q23 0 38.5 -19.5t15.5 -51.5q0 -49 -38 -88.5t-90 -66.5l-18 15v10q31 19 51.5 46.5t20.5 52.5q0 19 -11 35.5t-29 26.5l2 14q34 26 58 26z" />
    <glyph glyph-name="lcommaaccent" unicode="&#x13c;" horiz-adv-x="250" 
d="M142.5 70.5q14.5 10.5 57.5 48.5l12 -1l13 -24q-106 -106 -140 -106q-31 0 -31 29q0 4 11 76t21 138q62 385 62 418q0 21 -10 30.5t-32 9.5h-41l6 38q38 0 91 2.5t70 3.5l9 -12q-7 -31 -30 -140.5t-50.5 -255.5t-42.5 -261l3 -4q7 0 21.5 10.5zM94 -67q23 0 38.5 -19.5
t15.5 -51.5q0 -49 -38 -88.5t-90 -66.5l-18 15v10q31 19 51.5 46.5t20.5 52.5q0 19 -11 35.5t-29 26.5l2 14q34 26 58 26z" />
    <glyph glyph-name="Lcaron" unicode="&#x13d;" horiz-adv-x="488" 
d="M477 186l1 -4q-5 -15 -21 -70t-30 -116l-5 -5q-27 2 -113 5.5t-142 3.5q-45 0 -82 -4t-47 -6l12 43q38 6 54 24t21 60l53 425q1 9 1 22q0 19 -6.5 25.5t-23.5 6.5q-10 0 -19.5 -1t-13.5 -1l-1 3l12 43q1 0 38 -2t68 -2q26 0 58 4t42 6l-8 -42q-30 -5 -42 -11.5t-18 -23
t-15 -61.5q-16 -86 -39 -239.5t-23 -177.5q0 -21 6 -31.5t22 -14.5t48 -4q59 0 88.5 10t47 38.5t35.5 92.5zM429 400l-11 2q11 69 16 136.5t5 81.5l71 14l6 -8q-5 -19 -22.5 -83.5t-38.5 -128.5z" />
    <glyph glyph-name="lcaron" unicode="&#x13e;" horiz-adv-x="350" 
d="M142.5 70.5q14.5 10.5 57.5 48.5l12 -1l13 -24q-106 -106 -140 -106q-31 0 -31 29q0 4 11 76t21 138q62 385 62 418q0 21 -10 30.5t-32 9.5h-41l6 38q38 0 91 2.5t70 3.5l9 -12q-7 -31 -30 -140.5t-50.5 -255.5t-42.5 -261l3 -4q7 0 21.5 10.5zM338 617.5
q-17 -64.5 -37 -128.5l-28 -14l-10 2q11 69 16 136.5t5 81.5l71 14l5 -8q-5 -19 -22 -83.5z" />
    <glyph glyph-name="Ldot" unicode="&#x13f;" horiz-adv-x="511" 
d="M478 182q-5 -15 -21 -70t-30 -116l-5 -5q-27 2 -113 5.5t-142 3.5q-45 0 -82 -4t-47 -6l12 43q38 6 54 24t21 60l53 425q1 9 1 22q0 19 -6.5 25.5t-23.5 6.5q-10 0 -19.5 -1t-13.5 -1l-1 3l12 43q1 0 38 -2t68 -2q26 0 58 4t42 6l-8 -42q-30 -5 -42 -11.5t-18 -23
t-15 -61.5q-16 -86 -39 -239.5t-23 -177.5q0 -21 6 -31.5t22 -14.5t48 -4q59 0 88.5 10t47 38.5t35.5 92.5l42 4zM384 427.5q-12 14.5 -12 35.5q0 28 19.5 48.5t48.5 20.5q24 0 37 -14t13 -36q0 -28 -20 -48.5t-50 -20.5q-24 0 -36 14.5z" />
    <glyph glyph-name="ldot" unicode="&#x140;" horiz-adv-x="353" 
d="M142.5 70.5q14.5 10.5 57.5 48.5l12 -1l13 -24q-106 -106 -140 -106q-31 0 -31 29q0 4 11 76t21 138q62 385 62 418q0 21 -10 30.5t-32 9.5h-41l6 38q38 0 91 2.5t70 3.5l9 -12q-7 -31 -30 -140.5t-50.5 -255.5t-42.5 -261l3 -4q7 0 21.5 10.5zM217 233.5
q-12 14.5 -12 35.5q0 28 19.5 48.5t48.5 20.5q24 0 37 -14t13 -36q0 -28 -20 -48.5t-50 -20.5q-24 0 -36 14.5z" />
    <glyph glyph-name="Lslash" unicode="&#x141;" horiz-adv-x="488" 
d="M478 182q-5 -15 -21 -70t-30 -116l-5 -5q-27 2 -113 5.5t-142 3.5q-45 0 -82 -4t-47 -6l12 43q38 6 54 24t21 60l24 191l-101 -50l-9 3l-5 32l120 60l24 189q1 9 1 22q0 19 -6.5 25.5t-23.5 6.5q-10 0 -19.5 -1t-13.5 -1l-1 3l12 43q1 0 38 -2t68 -2q26 0 58 4t42 6
l-8 -42q-30 -5 -42 -11.5t-18 -23t-15 -61.5l-15 -88l-6 -36l142 70l8 -5l5 -31l-162 -80q-14 -84 -24 -157.5t-10 -89.5q0 -21 6 -31.5t22 -14.5t48 -4q59 0 88.5 10t47 38.5t35.5 92.5l42 4z" />
    <glyph glyph-name="lslash" unicode="&#x142;" horiz-adv-x="274" 
d="M224 118l13 -24q-106 -106 -140 -106q-31 0 -31 29q0 9 22 148q8 49 15 94.5t13 85.5l-66 -37l-9 2l-6 32l88 49q37 235 37 258q0 21 -10 30.5t-32 9.5h-41l6 38q38 0 91 2.5t70 3.5l9 -12q-5 -23 -23.5 -108.5t-37.5 -187.5l68 38l8 -4l6 -31l-92 -51q-37 -192 -52 -313
l3 -4q7 0 21.5 10.5t57.5 48.5z" />
    <glyph glyph-name="Nacute" unicode="&#x143;" horiz-adv-x="689" 
d="M669.5 639.5q30.5 3.5 39.5 5.5l-10 -44q-34 -5 -52 -19.5t-22 -43.5l-82 -566l-25 -14q-68 138 -133 263.5t-107 203t-53 97.5h-4l-60 -441q-1 -5 -1 -14q0 -14 6 -19.5t20 -5.5h49l2 -3l-14 -43q-10 1 -42 2.5t-58 1.5q-23 0 -51.5 -3.5t-37.5 -4.5l11 43q31 4 47 18.5
t20 44.5l67 443q1 4 1 12q0 23 -17.5 33.5t-60.5 15.5l-1 5l11 34q9 -1 37 -3t44 -2q19 0 38 1.5t24 2.5q58 -117 117 -229.5t98 -185t50 -91.5h4l52 418q4 43 -27 43l-36 -1l-2 4l14 42q9 -1 35.5 -2.5t53.5 -1.5q25 0 55.5 3.5zM439.5 738.5q-61.5 -21.5 -127.5 -46.5
l-8 5l-6 24q59 31 120 65t79 44l9 -6l16 -48l-4 -10q-17 -6 -78.5 -27.5z" />
    <glyph glyph-name="nacute" unicode="&#x144;" horiz-adv-x="496" 
d="M461 94q-106 -106 -140 -106q-31 0 -31 29q0 20 8.5 52.5t27.5 95.5q20 63 30 102t10 63q0 18 -9.5 29.5t-24.5 11.5q-31 0 -82.5 -76t-103.5 -198l-11 -83q-1 -5 -25.5 -14t-36.5 -9l-7 9q20 114 37.5 232.5t17.5 135.5q0 21 -10 30.5t-33 9.5h-41l7 38q69 0 162 6
l9 -12q-18 -51 -35 -118t-26 -120l5 -3q52 101 104.5 169.5t98.5 95.5q32 0 54 -27.5t22 -68.5q0 -27 -12 -70.5t-35 -110.5q-30 -90 -37 -123l3 -4q7 0 20 9.5t59 49.5l12 -1zM328 609q-50 -41 -103 -88l-9 2l-20 19q45 49 91 103t59 70l10 -2l38 -41l-1 -11
q-15 -11 -65 -52z" />
    <glyph glyph-name="Ncommaaccent" unicode="&#x145;" horiz-adv-x="689" 
d="M669.5 639.5q30.5 3.5 39.5 5.5l-10 -44q-34 -5 -52 -19.5t-22 -43.5l-82 -566l-25 -14q-68 138 -133 263.5t-107 203t-53 97.5h-4l-60 -441q-1 -5 -1 -14q0 -14 6 -19.5t20 -5.5h49l2 -3l-14 -43q-10 1 -42 2.5t-58 1.5q-23 0 -51.5 -3.5t-37.5 -4.5l11 43q31 4 47 18.5
t20 44.5l67 443q1 4 1 12q0 23 -17.5 33.5t-60.5 15.5l-1 5l11 34q9 -1 37 -3t44 -2q19 0 38 1.5t24 2.5q58 -117 117 -229.5t98 -185t50 -91.5h4l52 418q4 43 -27 43l-36 -1l-2 4l14 42q9 -1 35.5 -2.5t53.5 -1.5q25 0 55.5 3.5zM314 -67q23 0 38.5 -19.5t15.5 -51.5
q0 -49 -38 -88.5t-90 -66.5l-18 15v10q31 19 51.5 46.5t20.5 52.5q0 19 -11 35.5t-29 26.5l2 14q34 26 58 26z" />
    <glyph glyph-name="ncommaaccent" unicode="&#x146;" horiz-adv-x="496" 
d="M461 94q-106 -106 -140 -106q-31 0 -31 29q0 20 8.5 52.5t27.5 95.5q20 63 30 102t10 63q0 18 -9.5 29.5t-24.5 11.5q-31 0 -82.5 -76t-103.5 -198l-11 -83q-1 -5 -25.5 -14t-36.5 -9l-7 9q20 114 37.5 232.5t17.5 135.5q0 21 -10 30.5t-33 9.5h-41l7 38q69 0 162 6
l9 -12q-18 -51 -35 -118t-26 -120l5 -3q52 101 104.5 169.5t98.5 95.5q32 0 54 -27.5t22 -68.5q0 -27 -12 -70.5t-35 -110.5q-30 -90 -37 -123l3 -4q7 0 20 9.5t59 49.5l12 -1zM222 -67q23 0 38.5 -19.5t15.5 -51.5q0 -49 -38 -88.5t-90 -66.5l-18 15v10q31 19 51.5 46.5
t20.5 52.5q0 19 -11 35.5t-29 26.5l2 14q34 26 58 26z" />
    <glyph glyph-name="Ncaron" unicode="&#x147;" horiz-adv-x="689" 
d="M669.5 639.5q30.5 3.5 39.5 5.5l-10 -44q-34 -5 -52 -19.5t-22 -43.5l-82 -566l-25 -14q-68 138 -133 263.5t-107 203t-53 97.5h-4l-60 -441q-1 -5 -1 -14q0 -14 6 -19.5t20 -5.5h49l2 -3l-14 -43q-10 1 -42 2.5t-58 1.5q-23 0 -51.5 -3.5t-37.5 -4.5l11 43q31 4 47 18.5
t20 44.5l67 443q1 4 1 12q0 23 -17.5 33.5t-60.5 15.5l-1 5l11 34q9 -1 37 -3t44 -2q19 0 38 1.5t24 2.5q58 -117 117 -229.5t98 -185t50 -91.5h4l52 418q4 43 -27 43l-36 -1l-2 4l14 42q9 -1 35.5 -2.5t53.5 -1.5q25 0 55.5 3.5zM404 704h-13l-120 111l16 22l10 1l109 -65
l125 65l9 -1l12 -22z" />
    <glyph glyph-name="ncaron" unicode="&#x148;" horiz-adv-x="496" 
d="M461 94q-106 -106 -140 -106q-31 0 -31 29q0 20 8.5 52.5t27.5 95.5q20 63 30 102t10 63q0 18 -9.5 29.5t-24.5 11.5q-31 0 -82.5 -76t-103.5 -198l-11 -83q-1 -5 -25.5 -14t-36.5 -9l-7 9q20 114 37.5 232.5t17.5 135.5q0 21 -10 30.5t-33 9.5h-41l7 38q69 0 162 6
l9 -12q-18 -51 -35 -118t-26 -120l5 -3q52 101 104.5 169.5t98.5 95.5q32 0 54 -27.5t22 -68.5q0 -27 -12 -70.5t-35 -110.5q-30 -90 -37 -123l3 -4q7 0 20 9.5t59 49.5l12 -1zM182 710q47 -48 110 -101q10 8 17 12q9 6 45.5 33t72.5 56l8 -1l13 -23q-47 -44 -96.5 -94.5
t-63.5 -65.5h-13q-11 15 -47.5 65.5t-72.5 94.5l19 23z" />
    <glyph glyph-name="Eng" unicode="&#x14a;" horiz-adv-x="691" 
d="M228.5 638.5q22.5 1.5 31.5 2.5q48 -99 105 -209t99 -188t54 -99h5l50 405q2 22 -4.5 32.5t-22.5 10.5l-36 -1l-2 4l15 45q10 -1 37.5 -2.5t54.5 -1.5q26 0 57 3.5t40 4.5l-10 -46q-35 -4 -51.5 -19t-21.5 -44l-64 -450q-16 -97 -62 -153t-136 -87l-13 33l4 8
q52 21 83 50t49 71q-87 176 -174.5 340.5t-87.5 162.5h-5l-57 -427q-1 -6 -1 -15q0 -14 6 -19.5t20 -5.5l48 2l2 -4l-14 -46q-11 1 -45.5 2.5t-63.5 1.5q-24 0 -51 -3.5t-35 -4.5l11 46q33 3 48 20.5t23 65.5l62 414q1 4 1 12q0 22 -16 32.5t-60 17.5l-3 5l12 37
q9 -1 33.5 -3t45.5 -2q17 0 39.5 1.5z" />
    <glyph glyph-name="eng" unicode="&#x14b;" horiz-adv-x="491" 
d="M317 101q22 85 34.5 140t12.5 89q0 18 -9.5 29.5t-24.5 11.5q-31 0 -82.5 -76t-103.5 -199l-11 -82q-1 -5 -25.5 -14t-36.5 -9l-7 9q9 53 32 200.5t23 167.5q0 21 -10 30.5t-33 9.5h-41l7 38q38 0 91.5 2.5t70.5 3.5l9 -12q-3 -9 -14 -44.5t-25 -88.5t-22 -105l5 -3
q52 101 104.5 169.5t98.5 95.5q32 0 54 -27.5t22 -68.5q0 -34 -17 -102.5t-46 -167.5q-5 -17 -10.5 -36.5t-10.5 -38.5q-22 -77 -44.5 -125t-56.5 -81.5t-87 -57.5l-15 19l3 8q46 28 70 55t40 69t38 128q6 24 17 63z" />
    <glyph glyph-name="Omacron" unicode="&#x14c;" horiz-adv-x="665" 
d="M167 22.5q-57 34.5 -89.5 95t-32.5 136.5q0 108 46 198.5t124.5 143t171.5 52.5q73 0 131.5 -34.5t92 -95t33.5 -136.5q0 -108 -46.5 -198.5t-126.5 -143t-175 -52.5q-72 0 -129 34.5zM437 75q56 40 88 110.5t32 157.5q0 75 -23.5 131.5t-66.5 87.5t-99 31
q-68 0 -123 -40t-86.5 -110.5t-31.5 -157.5q0 -75 23 -131.5t64.5 -87.5t96.5 -31q70 0 126 40zM532 721l-137 -1l-138 -1l-5 9l16 45l147 -1q30 0 71 2.5t54 3.5l5 -10z" />
    <glyph glyph-name="omacron" unicode="&#x14d;" horiz-adv-x="406" 
d="M65 33q-31 45 -31 119q0 81 31.5 153t84 115.5t111.5 43.5q53 0 83.5 -39.5t30.5 -109.5q0 -87 -31 -162t-84 -120t-114 -45q-50 0 -81 45zM245 71q26 28 40.5 77.5t14.5 111.5q0 67 -21.5 105.5t-59.5 38.5q-32 0 -58 -26.5t-40.5 -72.5t-14.5 -103q0 -70 22.5 -114.5
t57.5 -44.5q33 0 59 28zM383 576l-136 -1l-138 -1l-5 9l15 45l148 -1q30 0 71 2.5t54 3.5l4 -10z" />
    <glyph glyph-name="Obreve" unicode="&#x14e;" horiz-adv-x="665" 
d="M167 22.5q-57 34.5 -89.5 95t-32.5 136.5q0 108 46 198.5t124.5 143t171.5 52.5q73 0 131.5 -34.5t92 -95t33.5 -136.5q0 -108 -46.5 -198.5t-126.5 -143t-175 -52.5q-72 0 -129 34.5zM437 75q56 40 88 110.5t32 157.5q0 75 -23.5 131.5t-66.5 87.5t-99 31
q-68 0 -123 -40t-86.5 -110.5t-31.5 -157.5q0 -75 23 -131.5t64.5 -87.5t96.5 -31q70 0 126 40zM452 789q27 17 42 49h9l14 -10q-17 -48 -50 -81t-80 -33t-72.5 33t-30.5 81l17 10h8q8 -32 30.5 -49t54.5 -17q31 0 58 17z" />
    <glyph glyph-name="obreve" unicode="&#x14f;" horiz-adv-x="406" 
d="M65 33q-31 45 -31 119q0 81 31.5 153t84 115.5t111.5 43.5q53 0 83.5 -39.5t30.5 -109.5q0 -87 -31 -162t-84 -120t-114 -45q-50 0 -81 45zM245 71q26 28 40.5 77.5t14.5 111.5q0 67 -21.5 105.5t-59.5 38.5q-32 0 -58 -26.5t-40.5 -72.5t-14.5 -103q0 -70 22.5 -114.5
t57.5 -44.5q33 0 59 28zM300 605q27 17 42 49h9l14 -10q-17 -48 -50 -81t-80 -33t-72.5 33t-30.5 81l17 10h8q8 -32 30.5 -49t54.5 -17q31 0 58 17z" />
    <glyph glyph-name="Ohungarumlaut" unicode="&#x150;" horiz-adv-x="665" 
d="M167 22.5q-57 34.5 -89.5 95t-32.5 136.5q0 108 46 198.5t124.5 143t171.5 52.5q73 0 131.5 -34.5t92 -95t33.5 -136.5q0 -108 -46.5 -198.5t-126.5 -143t-175 -52.5q-72 0 -129 34.5zM437 75q56 40 88 110.5t32 157.5q0 75 -23.5 131.5t-66.5 87.5t-99 31
q-68 0 -123 -40t-86.5 -110.5t-31.5 -157.5q0 -75 23 -131.5t64.5 -87.5t96.5 -31q70 0 126 40zM384.5 748.5q-48.5 -25.5 -101.5 -54.5l-8 5l-9 21q45 33 92 69.5t61 47.5l9 -4l22 -43l-3 -9q-14 -7 -62.5 -32.5zM524 739.5q-49 -25.5 -101 -54.5l-7 4l-10 21
q54 41 96.5 74t56.5 44l9 -5l22 -42l-3 -9q-14 -7 -63 -32.5z" />
    <glyph glyph-name="ohungarumlaut" unicode="&#x151;" horiz-adv-x="406" 
d="M65 33q-31 45 -31 119q0 81 31.5 153t84 115.5t111.5 43.5q53 0 83.5 -39.5t30.5 -109.5q0 -87 -31 -162t-84 -120t-114 -45q-50 0 -81 45zM245 71q26 28 40.5 77.5t14.5 111.5q0 67 -21.5 105.5t-59.5 38.5q-32 0 -58 -26.5t-40.5 -72.5t-14.5 -103q0 -70 22.5 -114.5
t57.5 -44.5q33 0 59 28zM247.5 610q-46.5 -35 -95.5 -76l-9 2l-16 18q41 43 84 90t56 61l9 -3l33 -38l-2 -9q-13 -10 -59.5 -45zM375.5 610q-46.5 -35 -95.5 -76l-9 2l-16 18q41 42 84 89.5t56 61.5l9 -3l33 -38l-2 -9q-13 -10 -59.5 -45z" />
    <glyph glyph-name="OE" unicode="&#x152;" horiz-adv-x="923" 
d="M544 79q0 -22 13.5 -28t56.5 -6q79 0 114 8t52 32t32 82l45 5l2 -5q-5 -14 -19.5 -64.5t-26.5 -103.5l-6 -6q-33 1 -133.5 4.5t-158.5 3.5q-43 0 -139 -7q-68 -6 -96 -6q-68 0 -121.5 33.5t-83.5 94t-30 137.5q0 108 46.5 199t125.5 144t173 53q39 0 100 -7
q10 -1 47.5 -4t71.5 -3q196 0 294 14l3 -6q-2 -6 -9 -28.5t-16.5 -59.5t-17.5 -78l-49 -4q2 6 5.5 26.5t3.5 36.5q0 23 -11 33.5t-39 14t-89 3.5q-33 0 -46 -2t-17.5 -9.5t-7.5 -27.5l-32 -194l99 -1q22 0 63.5 4.5t55.5 6.5l3 -5l-21 -59q-14 1 -52.5 2t-80.5 1l-76 -7
l-26 -191q-2 -22 -2 -26zM439 78q42 38 55 130l33 259q2 24 2 33q0 36 -15 55.5t-48.5 27.5t-94.5 8q-66 0 -120 -39.5t-85 -110.5t-31 -161q0 -108 46 -174t125 -66q91 0 133 38z" />
    <glyph glyph-name="oe" unicode="&#x153;" horiz-adv-x="622" 
d="M559 133l15 -24q-29 -53 -73.5 -87t-87.5 -34q-42 0 -68.5 28t-35.5 79q-31 -50 -73 -78.5t-90 -28.5q-50 0 -81 45t-31 119q0 81 31.5 153t84 115.5t111.5 43.5q44 0 70 -28.5t32 -82.5q32 51 74.5 81t86.5 30q38 0 58.5 -20.5t20.5 -57.5q0 -63 -55 -108t-183 -88
q-4 -64 15.5 -103t54.5 -39q30 0 60 23.5t50 62.5zM440.5 382.5q-25.5 -23.5 -45 -63.5t-26.5 -87q87 27 125 57t38 71q0 46 -40 46q-26 0 -51.5 -23.5zM245 71q26 28 40.5 77.5t14.5 111.5q0 67 -21.5 105.5t-59.5 38.5q-32 0 -58 -26.5t-40.5 -72.5t-14.5 -103
q0 -70 22.5 -114.5t57.5 -44.5q33 0 59 28z" />
    <glyph glyph-name="Racute" unicode="&#x154;" horiz-adv-x="585" 
d="M190 122q-4 -34 -4 -41q0 -26 13 -34t50 -8l1 -3l-13 -40q-12 1 -45 2t-71 1q-33 0 -59 -1t-34 -2l14 43q32 4 48 11t24 22t12 45l52 424q2 18 2 23q0 18 -7 25t-24 7q-10 0 -19.5 -1t-12.5 -1l-2 4l12 42q11 -1 42 -2.5t63 -1.5q29 0 57.5 1.5t39.5 2.5q83 0 138 -37.5
t55 -99.5q0 -67 -40 -121.5t-117 -88.5l85 -178q24 -48 47.5 -66.5t62.5 -18.5l3 -3l-9 -32l-81 -11q-24 0 -48 26t-42 69l-80 197h-91zM447.5 381.5q-60.5 -31.5 -32.5 6t28 98.5q0 57 -40.5 86.5t-121.5 29.5q-9 0 -13 -4.5t-8 -18.5q-21 -107 -39 -251l98 -10
q189 95 128.5 63.5zM387.5 738.5q-61.5 -21.5 -127.5 -46.5l-8 5l-6 24q59 31 120 65t79 44l9 -6l16 -48l-4 -10q-17 -6 -78.5 -27.5z" />
    <glyph glyph-name="racute" unicode="&#x155;" horiz-adv-x="346" 
d="M96 195q23 144 23 169q0 24 -9.5 34t-33.5 10h-41l7 38q38 0 91.5 2.5t70.5 3.5l9 -12q-3 -8 -11.5 -37t-21.5 -77.5t-21 -92.5l4 -1q43 97 96 160.5t93 67.5q9 -6 15.5 -23.5t6.5 -36.5q0 -17 -2.5 -28t-5.5 -15.5t-4 -5.5l-10 -3q-10 10 -25 10q-38 0 -87 -62.5
t-92 -168.5l-15 -113q-1 -5 -25.5 -14t-36.5 -9l-7 9q9 51 32 195zM268 609q-50 -41 -103 -88l-9 2l-20 19q45 49 91 103t59 70l10 -2l38 -41l-1 -11q-15 -11 -65 -52z" />
    <glyph glyph-name="Rcommaaccent" unicode="&#x156;" horiz-adv-x="585" 
d="M190 122q-4 -34 -4 -41q0 -26 13 -34t50 -8l1 -3l-13 -40q-12 1 -45 2t-71 1q-33 0 -59 -1t-34 -2l14 43q32 4 48 11t24 22t12 45l52 424q2 18 2 23q0 18 -7 25t-24 7q-10 0 -19.5 -1t-12.5 -1l-2 4l12 42q11 -1 42 -2.5t63 -1.5q29 0 57.5 1.5t39.5 2.5q83 0 138 -37.5
t55 -99.5q0 -67 -40 -121.5t-117 -88.5l85 -178q24 -48 47.5 -66.5t62.5 -18.5l3 -3l-9 -32l-81 -11q-24 0 -48 26t-42 69l-80 197h-91zM447.5 381.5q-60.5 -31.5 -32.5 6t28 98.5q0 57 -40.5 86.5t-121.5 29.5q-9 0 -13 -4.5t-8 -18.5q-21 -107 -39 -251l98 -10
q189 95 128.5 63.5zM262 -67q23 0 38.5 -19.5t15.5 -51.5q0 -49 -38 -88.5t-90 -66.5l-18 15v10q31 19 51.5 46.5t20.5 52.5q0 19 -11 35.5t-29 26.5l2 14q34 26 58 26z" />
    <glyph glyph-name="rcommaaccent" unicode="&#x157;" horiz-adv-x="346" 
d="M96 195q23 144 23 169q0 24 -9.5 34t-33.5 10h-41l7 38q38 0 91.5 2.5t70.5 3.5l9 -12q-3 -8 -11.5 -37t-21.5 -77.5t-21 -92.5l4 -1q43 97 96 160.5t93 67.5q9 -6 15.5 -23.5t6.5 -36.5q0 -17 -2.5 -28t-5.5 -15.5t-4 -5.5l-10 -3q-10 10 -25 10q-38 0 -87 -62.5
t-92 -168.5l-15 -113q-1 -5 -25.5 -14t-36.5 -9l-7 9q9 51 32 195zM105 -67q23 0 38.5 -19.5t15.5 -51.5q0 -49 -38 -88.5t-90 -66.5l-18 15v10q31 19 51.5 46.5t20.5 52.5q0 19 -11 35.5t-29 26.5l2 14q34 26 58 26z" />
    <glyph glyph-name="Rcaron" unicode="&#x158;" horiz-adv-x="585" 
d="M190 122q-4 -34 -4 -41q0 -26 13 -34t50 -8l1 -3l-13 -40q-12 1 -45 2t-71 1q-33 0 -59 -1t-34 -2l14 43q32 4 48 11t24 22t12 45l52 424q2 18 2 23q0 18 -7 25t-24 7q-10 0 -19.5 -1t-12.5 -1l-2 4l12 42q11 -1 42 -2.5t63 -1.5q29 0 57.5 1.5t39.5 2.5q83 0 138 -37.5
t55 -99.5q0 -67 -40 -121.5t-117 -88.5l85 -178q24 -48 47.5 -66.5t62.5 -18.5l3 -3l-9 -32l-81 -11q-24 0 -48 26t-42 69l-80 197h-91zM447.5 381.5q-60.5 -31.5 -32.5 6t28 98.5q0 57 -40.5 86.5t-121.5 29.5q-9 0 -13 -4.5t-8 -18.5q-21 -107 -39 -251l98 -10
q189 95 128.5 63.5zM352 704h-13l-120 111l16 22l10 1l109 -65l125 65l9 -1l12 -22z" />
    <glyph glyph-name="rcaron" unicode="&#x159;" horiz-adv-x="346" 
d="M96 195q23 144 23 169q0 24 -9.5 34t-33.5 10h-41l7 38q38 0 91.5 2.5t70.5 3.5l9 -12q-3 -8 -11.5 -37t-21.5 -77.5t-21 -92.5l4 -1q43 97 96 160.5t93 67.5q9 -6 15.5 -23.5t6.5 -36.5q0 -17 -2.5 -28t-5.5 -15.5t-4 -5.5l-10 -3q-10 10 -25 10q-38 0 -87 -62.5
t-92 -168.5l-15 -113q-1 -5 -25.5 -14t-36.5 -9l-7 9q9 51 32 195zM122 710q47 -48 110 -101q10 8 17 12q9 6 45.5 33t72.5 56l8 -1l13 -23q-47 -44 -96.5 -94.5t-63.5 -65.5h-13q-11 15 -47.5 65.5t-72.5 94.5l19 23z" />
    <glyph glyph-name="Sacute" unicode="&#x15a;" horiz-adv-x="507" 
d="M117.5 -4.5q-34.5 7.5 -55.5 15t-26 10.5l-4 10q2 6 8 29.5t13.5 62t12.5 82.5l41 5q-6 -49 -6 -82q0 -39 10.5 -59.5t33.5 -28.5t66 -8q66 0 108 34t42 88q0 36 -27 63.5t-79 58.5q-58 35 -86 54t-50.5 49.5t-22.5 70.5q0 54 30.5 99.5t84 72t117.5 26.5q38 0 71.5 -5.5
t54.5 -11t26 -7.5l2 -5q-4 -13 -17 -62.5t-24 -106.5l-36 -4l-5 5q2 7 6.5 31t4.5 43q0 41 -23.5 57.5t-81.5 16.5q-57 0 -96.5 -30.5t-39.5 -76.5q0 -30 19 -53.5t54 -48.5l54 -33q48 -29 76.5 -49t48.5 -48.5t20 -64.5q0 -58 -31.5 -105.5t-88.5 -74.5t-130 -27
q-40 0 -74.5 7.5zM358.5 738.5q-61.5 -21.5 -127.5 -46.5l-8 5l-6 24q59 31 120 65t79 44l9 -6l16 -48l-4 -10q-17 -6 -78.5 -27.5z" />
    <glyph glyph-name="sacute" unicode="&#x15b;" horiz-adv-x="339" 
d="M81.5 60.5q24.5 -26.5 71.5 -26.5q29 0 49.5 19t20.5 45q0 23 -16 44t-47 47q-33 29 -50.5 45.5t-30.5 40t-13 49.5q0 37 21.5 69t57.5 51.5t77 19.5q34 0 61.5 -10.5t41.5 -29.5q-7 -21 -34 -78h-14q-11 33 -34 51.5t-53 18.5q-24 0 -40.5 -15.5t-16.5 -38.5
q0 -28 30 -60q19 -19 40 -37q42 -36 64 -64.5t22 -63.5q0 -38 -23.5 -72.5t-61.5 -55.5t-80 -21q-46 0 -77.5 15t-39.5 41q6 23 17 51.5t19 42.5h14q0 -51 24.5 -77.5zM245 609q-50 -41 -103 -88l-9 2l-20 19q45 49 91 103t59 70l10 -2l38 -41l-1 -11q-15 -11 -65 -52z" />
    <glyph glyph-name="Scircumflex" unicode="&#x15c;" horiz-adv-x="507" 
d="M117.5 -4.5q-34.5 7.5 -55.5 15t-26 10.5l-4 10q2 6 8 29.5t13.5 62t12.5 82.5l41 5q-6 -49 -6 -82q0 -39 10.5 -59.5t33.5 -28.5t66 -8q66 0 108 34t42 88q0 36 -27 63.5t-79 58.5q-58 35 -86 54t-50.5 49.5t-22.5 70.5q0 54 30.5 99.5t84 72t117.5 26.5q38 0 71.5 -5.5
t54.5 -11t26 -7.5l2 -5q-4 -13 -17 -62.5t-24 -106.5l-36 -4l-5 5q2 7 6.5 31t4.5 43q0 41 -23.5 57.5t-81.5 16.5q-57 0 -96.5 -30.5t-39.5 -76.5q0 -30 19 -53.5t54 -48.5l54 -33q48 -29 76.5 -49t48.5 -48.5t20 -64.5q0 -58 -31.5 -105.5t-88.5 -74.5t-130 -27
q-40 0 -74.5 7.5zM338 846h14l120 -111l-17 -22l-9 -1l-110 65l-125 -65l-9 1l-11 22z" />
    <glyph glyph-name="scircumflex" unicode="&#x15d;" horiz-adv-x="339" 
d="M81.5 60.5q24.5 -26.5 71.5 -26.5q29 0 49.5 19t20.5 45q0 23 -16 44t-47 47q-33 29 -50.5 45.5t-30.5 40t-13 49.5q0 37 21.5 69t57.5 51.5t77 19.5q34 0 61.5 -10.5t41.5 -29.5q-7 -21 -34 -78h-14q-11 33 -34 51.5t-53 18.5q-24 0 -40.5 -15.5t-16.5 -38.5
q0 -28 30 -60q19 -19 40 -37q42 -36 64 -64.5t22 -63.5q0 -38 -23.5 -72.5t-61.5 -55.5t-80 -21q-46 0 -77.5 15t-39.5 41q6 23 17 51.5t19 42.5h14q0 -51 24.5 -77.5zM227 683h14l115 -153l-17 -22l-9 -1l-105 97l-129 -97l-9 1l-12 22z" />
    <glyph glyph-name="Scedilla" unicode="&#x15e;" horiz-adv-x="507" 
d="M117.5 -4.5q-34.5 7.5 -55.5 15t-26 10.5l-4 10q2 6 8 29.5t13.5 62t12.5 82.5l41 5q-6 -49 -6 -82q0 -39 10.5 -59.5t33.5 -28.5t66 -8q66 0 108 34t42 88q0 36 -27 63.5t-79 58.5q-58 35 -86 54t-50.5 49.5t-22.5 70.5q0 54 30.5 99.5t84 72t117.5 26.5q38 0 71.5 -5.5
t54.5 -11t26 -7.5l2 -5q-4 -13 -17 -62.5t-24 -106.5l-36 -4l-5 5q2 7 6.5 31t4.5 43q0 41 -23.5 57.5t-81.5 16.5q-57 0 -96.5 -30.5t-39.5 -76.5q0 -30 19 -53.5t54 -48.5l54 -33q48 -29 76.5 -49t48.5 -48.5t20 -64.5q0 -58 -31.5 -105.5t-88.5 -74.5t-130 -27
q-40 0 -74.5 7.5zM259 23l-33 -73q6 -4 26.5 -20t33 -32.5t12.5 -32.5q0 -25 -20 -48t-50 -36.5t-58 -13.5q-23 0 -42.5 9.5t-19.5 24.5q0 16 32 58h8q-2 -27 10.5 -42t35.5 -15q21 0 36 11.5t15 28.5q0 15 -20 33.5t-53 39.5l45 108h42z" />
    <glyph glyph-name="scedilla" unicode="&#x15f;" horiz-adv-x="339" 
d="M81.5 60.5q24.5 -26.5 71.5 -26.5q29 0 49.5 19t20.5 45q0 23 -16 44t-47 47q-33 29 -50.5 45.5t-30.5 40t-13 49.5q0 37 21.5 69t57.5 51.5t77 19.5q34 0 61.5 -10.5t41.5 -29.5q-7 -21 -34 -78h-14q-11 33 -34 51.5t-53 18.5q-24 0 -40.5 -15.5t-16.5 -38.5
q0 -28 30 -60q19 -19 40 -37q42 -36 64 -64.5t22 -63.5q0 -38 -23.5 -72.5t-61.5 -55.5t-80 -21q-46 0 -77.5 15t-39.5 41q6 23 17 51.5t19 42.5h14q0 -51 24.5 -77.5zM175 23l-33 -73q6 -4 26.5 -20t33 -32.5t12.5 -32.5q0 -25 -20 -48t-50 -36.5t-58 -13.5
q-23 0 -42.5 9.5t-19.5 24.5q0 16 32 58h8q-2 -27 10.5 -42t35.5 -15q21 0 36 11.5t15 28.5q0 15 -20 33.5t-53 39.5l45 108h42z" />
    <glyph glyph-name="Scaron" unicode="&#x160;" horiz-adv-x="507" 
d="M117.5 -4.5q-34.5 7.5 -55.5 15t-26 10.5l-4 10q2 6 8 29.5t13.5 62t12.5 82.5l41 5q-6 -49 -6 -82q0 -39 10.5 -59.5t33.5 -28.5t66 -8q66 0 108 34t42 88q0 36 -27 63.5t-79 58.5q-58 35 -86 54t-50.5 49.5t-22.5 70.5q0 54 30.5 99.5t84 72t117.5 26.5q38 0 71.5 -5.5
t54.5 -11t26 -7.5l2 -5q-4 -13 -17 -62.5t-24 -106.5l-36 -4l-5 5q2 7 6.5 31t4.5 43q0 41 -23.5 57.5t-81.5 16.5q-57 0 -96.5 -30.5t-39.5 -76.5q0 -30 19 -53.5t54 -48.5l54 -33q48 -29 76.5 -49t48.5 -48.5t20 -64.5q0 -58 -31.5 -105.5t-88.5 -74.5t-130 -27
q-40 0 -74.5 7.5zM323 704h-13l-120 111l16 22l10 1l109 -65l125 65l9 -1l12 -22z" />
    <glyph glyph-name="scaron" unicode="&#x161;" horiz-adv-x="339" 
d="M81.5 60.5q24.5 -26.5 71.5 -26.5q29 0 49.5 19t20.5 45q0 23 -16 44t-47 47q-33 29 -50.5 45.5t-30.5 40t-13 49.5q0 37 21.5 69t57.5 51.5t77 19.5q34 0 61.5 -10.5t41.5 -29.5q-7 -21 -34 -78h-14q-11 33 -34 51.5t-53 18.5q-24 0 -40.5 -15.5t-16.5 -38.5
q0 -28 30 -60q19 -19 40 -37q42 -36 64 -64.5t22 -63.5q0 -38 -23.5 -72.5t-61.5 -55.5t-80 -21q-46 0 -77.5 15t-39.5 41q6 23 17 51.5t19 42.5h14q0 -51 24.5 -77.5zM99 710q47 -48 110 -101q10 8 17 12q9 6 45.5 33t72.5 56l8 -1l13 -23q-47 -44 -96.5 -94.5t-63.5 -65.5
h-13q-11 15 -47.5 65.5t-72.5 94.5l19 23z" />
    <glyph glyph-name="uni0162" unicode="&#x162;" horiz-adv-x="523" 
d="M156 590q-30 -7 -42.5 -28.5t-29.5 -85.5l-44 -4q4 15 15.5 65.5t19.5 102.5l10 7l76 -11h298l82 11l8 -7q-5 -52 -5.5 -101t-0.5 -63l-44 -4q-2 65 -9.5 88t-34 30t-104.5 11q-15 -71 -46.5 -276t-31.5 -233q0 -27 11 -39t36 -12q22 0 36.5 1t18.5 2l2 -4l-14 -43
q-15 0 -57 1.5t-83 1.5q-40 0 -77.5 -1.5t-51.5 -2.5l12 40q48 5 67.5 13.5t28 31.5t16.5 81l53 439q-85 -4 -115 -11zM267 23l-33 -73q6 -4 26.5 -20t33 -32.5t12.5 -32.5q0 -25 -20 -48t-50 -36.5t-58 -13.5q-23 0 -42.5 9.5t-19.5 24.5q0 16 32 58h8q-2 -27 10.5 -42
t35.5 -15q21 0 36 11.5t15 28.5q0 15 -20 33.5t-53 39.5l45 108h42z" />
    <glyph glyph-name="uni0163" unicode="&#x163;" horiz-adv-x="285" 
d="M267 104q-46 -51 -87 -83.5t-64 -32.5q-27 0 -43 15t-16 41l1 11l55 343l-5 4l-69 3l-3 5l4 29l80 13l16 120l90 35l6 -12q-4 -12 -16.5 -54.5t-23.5 -91.5l122 1l4 -3l-8 -40l-118 1l-11 -6l-61 -307l-1 -9q0 -26 24 -26q14 0 36.5 15.5t62.5 53.5l13 -1zM148 23
l-33 -73q6 -4 26.5 -20t33 -32.5t12.5 -32.5q0 -25 -20 -48t-50 -36.5t-58 -13.5q-23 0 -42.5 9.5t-19.5 24.5q0 16 32 58h8q-2 -27 10.5 -42t35.5 -15q21 0 36 11.5t15 28.5q0 15 -20 33.5t-53 39.5l45 108h42z" />
    <glyph glyph-name="Tcaron" unicode="&#x164;" horiz-adv-x="523" 
d="M156 590q-30 -7 -42.5 -28.5t-29.5 -85.5l-44 -4q4 15 15.5 65.5t19.5 102.5l10 7l76 -11h298l82 11l8 -7q-5 -52 -5.5 -101t-0.5 -63l-44 -4q-2 65 -9.5 88t-34 30t-104.5 11q-15 -71 -46.5 -276t-31.5 -233q0 -27 11 -39t36 -12q22 0 36.5 1t18.5 2l2 -4l-14 -43
q-15 0 -57 1.5t-83 1.5q-40 0 -77.5 -1.5t-51.5 -2.5l12 40q48 5 67.5 13.5t28 31.5t16.5 81l53 439q-85 -4 -115 -11zM321 704h-13l-120 111l16 22l10 1l109 -65l125 65l9 -1l12 -22z" />
    <glyph glyph-name="tcaron" unicode="&#x165;" horiz-adv-x="355" 
d="M267 104q-46 -51 -87 -83.5t-64 -32.5q-27 0 -43 15t-16 41l1 11l55 343l-5 4l-69 3l-3 5l4 29l80 13l16 120l90 35l6 -12q-4 -12 -16.5 -54.5t-23.5 -91.5l122 1l4 -3l-8 -40l-118 1l-11 -6l-61 -307l-1 -9q0 -26 24 -26q14 0 36.5 15.5t62.5 53.5l13 -1zM363 647.5
q-17 -64.5 -37 -128.5l-28 -14l-10 2q11 69 16 136.5t5 81.5l71 14l5 -8q-5 -19 -22 -83.5z" />
    <glyph glyph-name="Tbar" unicode="&#x166;" horiz-adv-x="526" 
d="M543.5 539q-0.5 -49 -0.5 -63l-44 -4q-2 65 -9.5 88t-34 30t-104.5 11q-16 -79 -43 -255l89 4l13 -13l-4 -37l-105 -1q-12 -72 -20 -133t-8 -74q0 -27 11 -39t36 -12q22 0 36.5 1t18.5 2l2 -4l-14 -43q-15 0 -57 1.5t-83 1.5q-40 0 -77.5 -1.5t-51.5 -2.5l12 40
q48 5 67.5 13.5t28 31.5t16.5 81l17 137l-101 -1l-9 9l7 39l108 -1l31 256q-85 -4 -115 -11t-42.5 -28.5t-29.5 -85.5l-44 -4q4 15 15.5 65.5t19.5 102.5l10 7l76 -11h298l82 11l8 -7q-5 -52 -5.5 -101z" />
    <glyph glyph-name="tbar" unicode="&#x167;" horiz-adv-x="285" 
d="M181 402l-23 -117l98 5l13 -13l-4 -37l-116 -1l-29 -144l-1 -9q0 -26 24 -26q14 0 36.5 15.5t62.5 53.5l13 -1l12 -24q-46 -51 -87 -83.5t-64 -32.5q-27 0 -43 15t-16 41l1 11l29 184l-74 -1l-9 9l7 39l84 -1l18 113l-5 4l-69 3l-3 5l4 29l80 13l16 120l90 35l6 -12
q-4 -12 -16.5 -54.5t-23.5 -91.5l122 1l4 -3l-8 -40l-118 1z" />
    <glyph glyph-name="Umacron" unicode="&#x16a;" horiz-adv-x="655" 
d="M175 202q0 -78 35.5 -119.5t104.5 -41.5q80 0 127.5 44.5t57.5 129.5q6 44 18.5 165t16.5 162q1 8 1 21q0 20 -6 26.5t-24 6.5q-12 0 -25 -1t-18 -1v4l11 41q12 -1 43.5 -2t63.5 -1q26 0 55.5 4t38.5 6l-10 -43q-30 -4 -44 -9t-20 -15.5t-9 -32.5l-42 -340
q-13 -103 -82 -160.5t-182 -57.5q-90 0 -137.5 46.5t-47.5 132.5q0 21 3 43l41 332q2 18 2 24q0 17 -7 23.5t-25 6.5q-10 0 -20 -1t-13 -1l-1 4l12 41q11 -1 42.5 -2t63.5 -1q26 0 58.5 4t42.5 6l-9 -43q-36 -5 -50 -16.5t-19 -40.5l-44 -294q-3 -27 -3 -50zM528 721
l-137 -1l-138 -1l-5 9l16 45l147 -1q30 0 71 2.5t54 3.5l5 -10z" />
    <glyph glyph-name="umacron" unicode="&#x16b;" horiz-adv-x="488" 
d="M462 94q-62 -58 -93.5 -82t-46.5 -24q-36 0 -36 28q0 17 42 210l-7 2q-89 -171 -182 -240q-40 0 -64 23t-24 61q0 20 11 61.5t30 105.5q13 42 23 80.5t10 52.5q0 19 -10 27.5t-32 8.5h-41l8 38q68 0 162 6l9 -12q-42 -117 -70.5 -214t-28.5 -124q0 -18 7 -26.5t23 -8.5
q28 0 82.5 81t112.5 209l17 96l9 3l60 -9l7 -8q-24 -80 -48.5 -186.5t-36.5 -188.5l3 -4q7 0 20 9.5t59 49.5l12 -1zM423 576l-136 -1l-138 -1l-5 9l15 45l148 -1q30 0 71 2.5t54 3.5l4 -10z" />
    <glyph glyph-name="Ubreve" unicode="&#x16c;" horiz-adv-x="655" 
d="M175 202q0 -78 35.5 -119.5t104.5 -41.5q80 0 127.5 44.5t57.5 129.5q6 44 18.5 165t16.5 162q1 8 1 21q0 20 -6 26.5t-24 6.5q-12 0 -25 -1t-18 -1v4l11 41q12 -1 43.5 -2t63.5 -1q26 0 55.5 4t38.5 6l-10 -43q-30 -4 -44 -9t-20 -15.5t-9 -32.5l-42 -340
q-13 -103 -82 -160.5t-182 -57.5q-90 0 -137.5 46.5t-47.5 132.5q0 21 3 43l41 332q2 18 2 24q0 17 -7 23.5t-25 6.5q-10 0 -20 -1t-13 -1l-1 4l12 41q11 -1 42.5 -2t63.5 -1q26 0 58.5 4t42.5 6l-9 -43q-36 -5 -50 -16.5t-19 -40.5l-44 -294q-3 -27 -3 -50zM448 789
q27 17 42 49h9l14 -10q-17 -48 -50 -81t-80 -33t-72.5 33t-30.5 81l17 10h8q8 -32 30.5 -49t54.5 -17q31 0 58 17z" />
    <glyph glyph-name="ubreve" unicode="&#x16d;" horiz-adv-x="488" 
d="M462 94q-62 -58 -93.5 -82t-46.5 -24q-36 0 -36 28q0 17 42 210l-7 2q-89 -171 -182 -240q-40 0 -64 23t-24 61q0 20 11 61.5t30 105.5q13 42 23 80.5t10 52.5q0 19 -10 27.5t-32 8.5h-41l8 38q68 0 162 6l9 -12q-42 -117 -70.5 -214t-28.5 -124q0 -18 7 -26.5t23 -8.5
q28 0 82.5 81t112.5 209l17 96l9 3l60 -9l7 -8q-24 -80 -48.5 -186.5t-36.5 -188.5l3 -4q7 0 20 9.5t59 49.5l12 -1zM340 605q27 17 42 49h9l14 -10q-17 -48 -50 -81t-80 -33t-72.5 33t-30.5 81l17 10h8q8 -32 30.5 -49t54.5 -17q31 0 58 17z" />
    <glyph glyph-name="Uring" unicode="&#x16e;" horiz-adv-x="655" 
d="M175 202q0 -78 35.5 -119.5t104.5 -41.5q80 0 127.5 44.5t57.5 129.5q6 44 18.5 165t16.5 162q1 8 1 21q0 20 -6 26.5t-24 6.5q-12 0 -25 -1t-18 -1v4l11 41q12 -1 43.5 -2t63.5 -1q26 0 55.5 4t38.5 6l-10 -43q-30 -4 -44 -9t-20 -15.5t-9 -32.5l-42 -340
q-13 -103 -82 -160.5t-182 -57.5q-90 0 -137.5 46.5t-47.5 132.5q0 21 3 43l41 332q2 18 2 24q0 17 -7 23.5t-25 6.5q-10 0 -20 -1t-13 -1l-1 4l12 41q11 -1 42.5 -2t63.5 -1q26 0 58.5 4t42.5 6l-9 -43q-36 -5 -50 -16.5t-19 -40.5l-44 -294q-3 -27 -3 -50zM331 692.5
q-17 18.5 -17 49.5q0 41 26.5 68.5t66.5 27.5q34 0 50 -19t16 -47q0 -39 -26.5 -68.5t-67.5 -29.5q-31 0 -48 18.5zM423.5 721.5q14.5 9.5 14.5 35.5q0 19 -11.5 30.5t-32.5 11.5q-22 0 -34.5 -12t-12.5 -33t13.5 -31.5t29.5 -10.5q19 0 33.5 9.5z" />
    <glyph glyph-name="uring" unicode="&#x16f;" horiz-adv-x="488" 
d="M462 94q-62 -58 -93.5 -82t-46.5 -24q-36 0 -36 28q0 17 42 210l-7 2q-89 -171 -182 -240q-40 0 -64 23t-24 61q0 20 11 61.5t30 105.5q13 42 23 80.5t10 52.5q0 19 -10 27.5t-32 8.5h-41l8 38q68 0 162 6l9 -12q-42 -117 -70.5 -214t-28.5 -124q0 -18 7 -26.5t23 -8.5
q28 0 82.5 81t112.5 209l17 96l9 3l60 -9l7 -8q-24 -80 -48.5 -186.5t-36.5 -188.5l3 -4q7 0 20 9.5t59 49.5l12 -1zM256 542.5q-17 18.5 -17 49.5q0 41 26.5 68.5t66.5 27.5q34 0 50 -19t16 -47q0 -39 -26.5 -68.5t-67.5 -29.5q-31 0 -48 18.5zM348.5 571.5
q14.5 9.5 14.5 35.5q0 19 -11.5 30.5t-32.5 11.5q-22 0 -34.5 -12t-12.5 -33t13.5 -31.5t29.5 -10.5q19 0 33.5 9.5z" />
    <glyph glyph-name="Uhungarumlaut" unicode="&#x170;" horiz-adv-x="655" 
d="M175 202q0 -78 35.5 -119.5t104.5 -41.5q80 0 127.5 44.5t57.5 129.5q6 44 18.5 165t16.5 162q1 8 1 21q0 20 -6 26.5t-24 6.5q-12 0 -25 -1t-18 -1v4l11 41q12 -1 43.5 -2t63.5 -1q26 0 55.5 4t38.5 6l-10 -43q-30 -4 -44 -9t-20 -15.5t-9 -32.5l-42 -340
q-13 -103 -82 -160.5t-182 -57.5q-90 0 -137.5 46.5t-47.5 132.5q0 21 3 43l41 332q2 18 2 24q0 17 -7 23.5t-25 6.5q-10 0 -20 -1t-13 -1l-1 4l12 41q11 -1 42.5 -2t63.5 -1q26 0 58.5 4t42.5 6l-9 -43q-36 -5 -50 -16.5t-19 -40.5l-44 -294q-3 -27 -3 -50zM380.5 748.5
q-48.5 -25.5 -101.5 -54.5l-8 5l-9 21q45 33 92 69.5t61 47.5l9 -4l22 -43l-3 -9q-14 -7 -62.5 -32.5zM520 739.5q-49 -25.5 -101 -54.5l-7 4l-10 21q54 41 96.5 74t56.5 44l9 -5l22 -42l-3 -9q-14 -7 -63 -32.5z" />
    <glyph glyph-name="uhungarumlaut" unicode="&#x171;" horiz-adv-x="488" 
d="M462 94q-62 -58 -93.5 -82t-46.5 -24q-36 0 -36 28q0 17 42 210l-7 2q-89 -171 -182 -240q-40 0 -64 23t-24 61q0 20 11 61.5t30 105.5q13 42 23 80.5t10 52.5q0 19 -10 27.5t-32 8.5h-41l8 38q68 0 162 6l9 -12q-42 -117 -70.5 -214t-28.5 -124q0 -18 7 -26.5t23 -8.5
q28 0 82.5 81t112.5 209l17 96l9 3l60 -9l7 -8q-24 -80 -48.5 -186.5t-36.5 -188.5l3 -4q7 0 20 9.5t59 49.5l12 -1zM287.5 610q-46.5 -35 -95.5 -76l-9 2l-16 18q41 43 84 90t56 61l9 -3l33 -38l-2 -9q-13 -10 -59.5 -45zM415.5 610q-46.5 -35 -95.5 -76l-9 2l-16 18
q41 42 84 89.5t56 61.5l9 -3l33 -38l-2 -9q-13 -10 -59.5 -45z" />
    <glyph glyph-name="Uogonek" unicode="&#x172;" horiz-adv-x="652" 
d="M636.5 640q29.5 4 38.5 6l-10 -43q-31 -5 -45.5 -10.5t-20 -15.5t-7.5 -31l-42 -340q-8 -65 -40.5 -112.5t-88.5 -103.5q-41 -41 -60.5 -67.5t-19.5 -56.5q0 -22 13.5 -35t35.5 -13q16 0 33.5 5t29 10.5t14.5 7.5l10 -19q-4 -4 -19.5 -15.5t-38.5 -25.5t-46 -22
q-44 0 -70 22.5t-26 60.5q0 30 24 67.5t77 90.5q-42 -12 -92 -12q-89 0 -137 46.5t-48 132.5q0 21 3 43l41 332q2 18 2 23q0 18 -7 24.5t-25 6.5q-10 0 -20 -1t-13 -1l-1 4l12 41q11 -1 42.5 -2t63.5 -1q26 0 58.5 4t42.5 6l-9 -43q-37 -5 -50.5 -16.5t-18.5 -40.5l-44 -294
q-3 -27 -3 -50q0 -79 36 -120t104 -41q80 0 127.5 44.5t57.5 129.5q6 44 18.5 165t16.5 162q1 8 1 21q0 20 -6 26.5t-24 6.5q-12 0 -25 -1t-18 -1v4l11 41q12 -1 43.5 -2t63.5 -1q26 0 55.5 4z" />
    <glyph glyph-name="uogonek" unicode="&#x173;" horiz-adv-x="486" 
d="M355.5 -177q17.5 5 29 10.5t14.5 7.5l10 -19q-4 -4 -19.5 -15.5t-38.5 -25.5t-46 -22q-44 0 -70 22t-26 61q0 34 24.5 68t73.5 80q-21 4 -21 26q0 17 42 210l-7 2q-89 -171 -182 -240q-40 0 -64 23t-24 61q0 20 11 61.5t30 105.5q13 42 23 80.5t10 52.5q0 19 -10 27.5
t-32 8.5h-41l8 38q68 0 162 6l9 -12q-42 -117 -70.5 -214t-28.5 -124q0 -18 7 -26.5t23 -8.5q28 0 82.5 81t112.5 209l17 96l9 3l60 -9l7 -8q-24 -80 -48.5 -186.5t-36.5 -188.5l3 -4q7 0 20 9.5t59 49.5l12 -1l13 -24l-52 -48q-76 -69 -106.5 -106t-30.5 -74
q0 -21 13.5 -34.5t35.5 -13.5q16 0 33.5 5z" />
    <glyph glyph-name="Wcircumflex" unicode="&#x174;" horiz-adv-x="893" 
d="M468 405h-6l-190 -400l-59 -22q-7 49 -34 218.5t-58 336.5q-5 29 -24 42.5t-55 14.5l-2 4l11 40q12 0 44.5 -1.5t61.5 -1.5q42 0 85 5t55 7l2 -7l-7 -37q-40 -3 -60 -7.5t-27.5 -13t-7.5 -24.5q0 -35 26.5 -218t36.5 -248h6q39 84 119 250l66 137q-2 13 -6 29
q-4 18 -5 27q-7 31 -24 44.5t-52 14.5l-1 4l12 40q12 0 44 -1.5t62 -1.5q36 0 81 5t59 7l1 -7l-8 -37q-41 -3 -60.5 -7.5t-27 -12.5t-7.5 -24q0 -30 27 -215.5t37 -251.5h6l45 94q170 357 170 381q0 16 -15 23.5t-47 7.5h-43l-2 4l12 41q12 -1 53 -4.5t79 -3.5q27 0 59 1.5
t42 2.5l-12 -45q-28 -2 -41 -10.5t-27 -37.5l-270 -542l-57 -22zM521 846h14l120 -111l-17 -22l-9 -1l-110 65l-125 -65l-9 1l-11 22z" />
    <glyph glyph-name="wcircumflex" unicode="&#x175;" horiz-adv-x="643" 
d="M323 294l-17 143l7 10l56 17q16 -10 25.5 -30.5t9.5 -45.5q0 -29 -18 -75l27 -255h9q62 91 98 169t36 120q0 23 -13.5 45t-34.5 33l4 17l81 22q17 -11 26 -31t9 -45q0 -102 -196 -399h-58l-15 12l-21 198h-7q-34 -65 -125 -210h-58l-15 12q-2 79 -12.5 182t-23.5 179
q-4 23 -12.5 31.5t-28.5 8.5q-7 0 -52 -5l3 38q58 7 148 24l11 -10q22 -183 21 -391h9q93 136 127 236zM398 683h14l115 -153l-17 -22l-9 -1l-105 97l-129 -97l-9 1l-12 22z" />
    <glyph glyph-name="Ycircumflex" unicode="&#x176;" horiz-adv-x="512" 
d="M584 634l-11 -35q-32 -6 -49.5 -16t-32.5 -28t-46 -65q-4 -7 -14 -21l-117 -175q-16 -22 -22.5 -47.5t-15.5 -92.5l-6 -44q-3 -19 -3 -32q0 -20 8 -28.5t28 -8.5q15 0 28.5 1t18.5 2l2 -4l-14 -43q-13 1 -48 2t-71 1q-30 0 -64.5 -5t-44.5 -7l11 43q36 8 52.5 19t24 31
t11.5 60l5 45q2 26 2 35q0 36 -16 80l-63 182l-7 20q-14 41 -22.5 58t-26 26.5t-51.5 12.5l-2 4l11 36q10 -1 42.5 -2.5t60.5 -1.5q34 0 78.5 3.5t58.5 5.5l2 -7l-8 -33q-49 -4 -66 -12t-17 -26q0 -16 17.5 -75.5t35.5 -115.5t24 -72h4l139 218q21 32 21 53q0 12 -12 19
t-40 9l-2 4l11 37q1 0 37.5 -4t66.5 -4q23 0 51.5 1.5t37.5 2.5zM350 846h14l120 -111l-17 -22l-9 -1l-110 65l-125 -65l-9 1l-11 22z" />
    <glyph glyph-name="ycircumflex" unicode="&#x177;" horiz-adv-x="438" 
d="M388 464q16 -10 25.5 -30.5t9.5 -45.5q0 -98 -180 -367q-91 -135 -151.5 -195.5t-106.5 -60.5q-29 0 -50.5 10.5t-25.5 26.5q1 16 6 36.5t12 37.5h14q30 -33 64 -33q64 0 146 114q-12 209 -38 405q-4 23 -12.5 31.5t-28.5 8.5q-7 0 -52 -5l3 38l148 24l11 -10
q20 -146 20 -367v-34h10q139 218 139 298q0 22 -12.5 43t-35.5 36l4 17zM276 683h14l115 -153l-17 -22l-9 -1l-105 97l-129 -97l-9 1l-12 22z" />
    <glyph glyph-name="Ydieresis" unicode="&#x178;" horiz-adv-x="512" 
d="M584 634l-11 -35q-32 -6 -49.5 -16t-32.5 -28t-46 -65q-4 -7 -14 -21l-117 -175q-16 -22 -22.5 -47.5t-15.5 -92.5l-6 -44q-3 -19 -3 -32q0 -20 8 -28.5t28 -8.5q15 0 28.5 1t18.5 2l2 -4l-14 -43q-13 1 -48 2t-71 1q-30 0 -64.5 -5t-44.5 -7l11 43q36 8 52.5 19t24 31
t11.5 60l5 45q2 26 2 35q0 36 -16 80l-63 182l-7 20q-14 41 -22.5 58t-26 26.5t-51.5 12.5l-2 4l11 36q10 -1 42.5 -2.5t60.5 -1.5q34 0 78.5 3.5t58.5 5.5l2 -7l-8 -33q-49 -4 -66 -12t-17 -26q0 -16 17.5 -75.5t35.5 -115.5t24 -72h4l139 218q21 32 21 53q0 12 -12 19
t-40 9l-2 4l11 37q1 0 37.5 -4t66.5 -4q23 0 51.5 1.5t37.5 2.5zM226 736q-9 11 -9 27q0 22 16 38.5t39 16.5q17 0 26.5 -11t9.5 -27q0 -22 -16.5 -38.5t-39.5 -16.5q-17 0 -26 11zM386 736q-9 11 -9 27q0 22 16.5 38.5t38.5 16.5q17 0 26.5 -11t9.5 -27q0 -22 -16.5 -38.5
t-39.5 -16.5q-17 0 -26 11z" />
    <glyph glyph-name="Zacute" unicode="&#x179;" horiz-adv-x="544" 
d="M87 3l-69 -6l-8 31l429 564l-170 -6q-45 -1 -73 -13.5t-45 -41t-29 -80.5l-44 -4q2 8 9 35t16.5 72t15.5 85l11 9l167 -11l244 -7l7 -28q-133 -162 -253.5 -319t-183.5 -243l194 7q50 1 85.5 39.5t62.5 123.5l43 5q-3 -8 -11 -36.5t-19.5 -76t-18.5 -89.5l-16 -16z
M386.5 738.5q-61.5 -21.5 -127.5 -46.5l-8 5l-6 24q59 31 120 65t79 44l9 -6l16 -48l-4 -10q-17 -6 -78.5 -27.5z" />
    <glyph glyph-name="zacute" unicode="&#x17a;" horiz-adv-x="398" 
d="M67 371q12 44 18 83l14 10q27 -4 106.5 -14.5t103.5 -10.5q10 0 15 2.5t11 9.5l16 20l44 -7l5 -19q-84 -99 -166.5 -200.5t-128.5 -162.5l29 7q26 0 70 -11q6 -1 29.5 -6t42.5 -5q28 0 47 16.5t26 48.5l18 -2q8 -25 8 -39q0 -42 -26 -72.5t-62 -30.5q-20 0 -39 5.5
t-45 15.5q-30 12 -53 18t-48 6q-41 0 -92 -30l-11 17l284 364l-101 1q-40 0 -60 -14t-32 -51l-39 -6q4 13 16 57zM274 609q-50 -41 -103 -88l-9 2l-20 19q45 49 91 103t59 70l10 -2l38 -41l-1 -11q-15 -11 -65 -52z" />
    <glyph glyph-name="Zdotaccent" unicode="&#x17b;" horiz-adv-x="544" 
d="M87 3l-69 -6l-8 31l429 564l-170 -6q-45 -1 -73 -13.5t-45 -41t-29 -80.5l-44 -4q2 8 9 35t16.5 72t15.5 85l11 9l167 -11l244 -7l7 -28q-133 -162 -253.5 -319t-183.5 -243l194 7q50 1 85.5 39.5t62.5 123.5l43 5q-3 -8 -11 -36.5t-19.5 -76t-18.5 -89.5l-16 -16z
M316 732q-11 13 -11 32q0 27 19 46t47 19q20 0 31 -13t11 -32q0 -26 -19 -45.5t-46 -19.5q-21 0 -32 13z" />
    <glyph glyph-name="zdotaccent" unicode="&#x17c;" horiz-adv-x="398" 
d="M67 371q12 44 18 83l14 10q27 -4 106.5 -14.5t103.5 -10.5q10 0 15 2.5t11 9.5l16 20l44 -7l5 -19q-84 -99 -166.5 -200.5t-128.5 -162.5l29 7q26 0 70 -11q6 -1 29.5 -6t42.5 -5q28 0 47 16.5t26 48.5l18 -2q8 -25 8 -39q0 -42 -26 -72.5t-62 -30.5q-20 0 -39 5.5
t-45 15.5q-30 12 -53 18t-48 6q-41 0 -92 -30l-11 17l284 364l-101 1q-40 0 -60 -14t-32 -51l-39 -6q4 13 16 57zM206 591q-11 13 -11 32q0 26 19 45.5t46 19.5q21 0 32 -13t11 -32q0 -26 -19.5 -45.5t-46.5 -19.5q-20 0 -31 13z" />
    <glyph glyph-name="Zcaron" unicode="&#x17d;" horiz-adv-x="544" 
d="M87 3l-69 -6l-8 31l429 564l-170 -6q-45 -1 -73 -13.5t-45 -41t-29 -80.5l-44 -4q2 8 9 35t16.5 72t15.5 85l11 9l167 -11l244 -7l7 -28q-133 -162 -253.5 -319t-183.5 -243l194 7q50 1 85.5 39.5t62.5 123.5l43 5q-3 -8 -11 -36.5t-19.5 -76t-18.5 -89.5l-16 -16z
M351 704h-13l-120 111l16 22l10 1l109 -65l125 65l9 -1l12 -22z" />
    <glyph glyph-name="zcaron" unicode="&#x17e;" horiz-adv-x="398" 
d="M67 371q12 44 18 83l14 10q27 -4 106.5 -14.5t103.5 -10.5q10 0 15 2.5t11 9.5l16 20l44 -7l5 -19q-84 -99 -166.5 -200.5t-128.5 -162.5l29 7q26 0 70 -11q6 -1 29.5 -6t42.5 -5q28 0 47 16.5t26 48.5l18 -2q8 -25 8 -39q0 -42 -26 -72.5t-62 -30.5q-20 0 -39 5.5
t-45 15.5q-30 12 -53 18t-48 6q-41 0 -92 -30l-11 17l284 364l-101 1q-40 0 -60 -14t-32 -51l-39 -6q4 13 16 57zM128 710q47 -48 110 -101q10 8 17 12q9 6 45.5 33t72.5 56l8 -1l13 -23q-47 -44 -96.5 -94.5t-63.5 -65.5h-13q-11 15 -47.5 65.5t-72.5 94.5l19 23z" />
    <glyph glyph-name="uni018F" unicode="&#x18f;" horiz-adv-x="636" 
d="M488 610.5q59 -36.5 92.5 -100.5t33.5 -142q0 -12 -2 -38q-10 -90 -61 -169t-128 -126t-163 -47q-71 0 -124.5 32.5t-82.5 91.5t-29 136q0 13 2 39h1l10 16h493q2 24 2 36q0 67 -26 120t-72 82.5t-106 29.5q-40 0 -91 -12t-96 -32l-9 2l-9 28q83 51 133.5 70.5
t100.5 19.5q72 0 131 -36.5zM394 62q49 29 83 81.5t47 119.5l-422 -5q6 -103 57 -164t130 -61q56 0 105 29z" />
    <glyph glyph-name="florin" unicode="&#x192;" horiz-adv-x="359" 
d="M137.5 299.5q-3.5 6.5 -15.5 8t-46 2.5l-4 6l7 34l70 10l10 97q6 62 48 101.5t100 39.5q36 0 66.5 -10.5t30.5 -25.5q0 -16 -6 -41.5t-12 -32.5h-13q-13 27 -39.5 47t-55.5 20q-26 0 -38 -17.5t-15.5 -40t-7.5 -71.5l-6 -69l130 3l3 -3l-10 -53l-128 3l-30 -328
q-4 -40 -27.5 -71.5t-58 -49t-71.5 -17.5q-30 0 -54.5 10t-24.5 24q0 15 6 39.5t12 30.5h11q11 -26 34 -44.5t49 -18.5q23 0 38 18.5t19 56.5l32 319q0 17 -3.5 23.5z" />
    <glyph glyph-name="Ohorn" unicode="&#x1a0;" horiz-adv-x="684" 
d="M694 642.5q-21 -30.5 -54.5 -47.5t-69.5 -15q36 -36 55 -87t19 -111q0 -107 -48.5 -197.5t-131 -143.5t-178.5 -53q-70 0 -125 33.5t-85.5 94t-30.5 138.5q0 106 47.5 197t128.5 144.5t176 53.5h1q33 0 56.5 -5.5t48.5 -15.5q35 -13 57 -13q32 0 52.5 15t20.5 42
q0 16 -6 33t-16 29l3 14q34 26 60 26q19 0 30 -17t11 -46q0 -38 -21 -68.5zM437 75q56 40 88 110.5t32 157.5q0 75 -23.5 131.5t-66.5 87.5t-99 31q-68 0 -123 -40.5t-86.5 -111t-31.5 -156.5q0 -75 23 -131.5t64.5 -87.5t96.5 -31q70 0 126 40z" />
    <glyph glyph-name="ohorn" unicode="&#x1a1;" horiz-adv-x="422" 
d="M65 33q-31 45 -31 119q0 25 3 49q9 72 42 132.5t81 95.5t101 35q22 0 56 -12q28 -10 40 -10q22 0 35 12.5t13 34.5q0 18 -8.5 37t-23.5 33l2 14q19 14 30 19q16 7 28 7q23 0 37 -21.5t14 -56.5q0 -31 -18 -57.5t-48 -42.5t-65 -16q22 -41 22 -90q0 -87 -31.5 -162.5
t-84 -120t-113.5 -44.5q-50 0 -81 45zM245 71q26 28 40.5 77.5t14.5 111.5q0 67 -21.5 105.5t-59.5 38.5q-32 0 -58 -26.5t-40.5 -72.5t-14.5 -103q0 -70 22.5 -114.5t57.5 -44.5q33 0 59 28z" />
    <glyph glyph-name="Uhorn" unicode="&#x1af;" horiz-adv-x="663" 
d="M702 752q12 -13 12 -36q0 -40 -18 -66t-45 -39q-5 -2 -22 -10t-26 -21t-11 -34l-42 -340q-13 -103 -82 -160.5t-182 -57.5q-90 0 -137.5 46.5t-47.5 132.5q0 21 3 43l41 332q2 18 2 24q0 17 -7 23.5t-25 6.5q-10 0 -20 -1t-13 -1l-1 4l12 41q11 -1 42.5 -2t63.5 -1
q26 0 58.5 4t42.5 6l-9 -43q-36 -5 -50 -16.5t-19 -40.5l-44 -294q-3 -27 -3 -50q0 -78 35.5 -119.5t104.5 -41.5q80 0 127.5 44.5t57.5 129.5q6 44 18.5 165t16.5 162q1 8 1 21q0 20 -6 26.5t-24 6.5q-12 0 -25 -1t-18 -1v4l11 41q12 0 43.5 -1t63.5 -1q53 0 53 42
q0 12 -6.5 24.5t-18.5 21.5l4 14q36 26 57 26q20 0 32 -13z" />
    <glyph glyph-name="uhorn" unicode="&#x1b0;" horiz-adv-x="486" 
d="M493.5 468q-21.5 -26 -56.5 -38q-24 -79 -47 -182.5t-35 -183.5l3 -4q7 0 20 9.5t59 49.5l12 -1l13 -24q-62 -58 -93.5 -82t-46.5 -24q-36 0 -36 28q0 17 42 210l-7 2q-89 -171 -182 -240q-40 0 -64 23t-24 61q0 20 11 61.5t30 105.5q13 42 23 80.5t10 52.5
q0 19 -10 27.5t-32 8.5h-41l8 38q68 0 162 6l9 -12q-42 -117 -70.5 -214t-28.5 -124q0 -18 7 -26.5t23 -8.5q28 0 82.5 81t112.5 209l17 96l9 3q30 4 46.5 13t16.5 26q0 18 -8.5 37t-23.5 33l2 14q13 11 30 19q14 7 28 7q23 0 37 -21.5t14 -56.5q0 -33 -21.5 -59z" />
    <glyph glyph-name="uni01C4" unicode="&#x1c4;" horiz-adv-x="1219" 
d="M220 -5q-50 5 -80 5t-65.5 -5t-46.5 -7l11 43q46 9 64 26.5t23 59.5l52 425q2 18 2 24q0 17 -6.5 23.5t-23.5 6.5q-10 0 -20 -1t-14 -1l-1 4l11 41q10 -1 39.5 -2t60.5 -1q40 0 80.5 1.5t55.5 2.5q85 0 151 -33.5t103 -93.5t37 -137q0 -104 -50 -193t-134 -142t-183 -53
q-16 2 -66 7zM271 591.5q-7 -4.5 -9 -17.5q-19 -123 -28 -171q-18 -114 -30.5 -195.5t-12.5 -100.5q0 -29 10.5 -44.5t35 -21.5t68.5 -6q78 0 137.5 40.5t92 113.5t32.5 167q0 115 -69 177.5t-200 62.5q-20 0 -27 -4.5zM762 3l-69 -6l-8 31l429 564l-170 -6
q-45 -1 -73 -13.5t-45 -41t-29 -80.5l-44 -4q2 8 9 35t16.5 72t15.5 85l11 9l167 -11l244 -7l7 -28q-133 -162 -253.5 -319t-183.5 -243l194 7q50 1 85.5 39.5t62.5 123.5l43 5q-3 -8 -11 -36.5t-19.5 -76t-18.5 -89.5l-16 -16zM1026 704h-13l-120 111l16 22l10 1l109 -65
l125 65l9 -1l12 -22z" />
    <glyph glyph-name="uni01C5" unicode="&#x1c5;" horiz-adv-x="1073" 
d="M220 -5q-50 5 -80 5t-65.5 -5t-46.5 -7l11 43q46 9 64 26.5t23 59.5l52 425q2 18 2 24q0 17 -6.5 23.5t-23.5 6.5q-10 0 -20 -1t-14 -1l-1 4l11 41q10 -1 39.5 -2t60.5 -1q40 0 80.5 1.5t55.5 2.5q85 0 151 -33.5t103 -93.5t37 -137q0 -104 -50 -193t-134 -142t-183 -53
q-16 2 -66 7zM271 591.5q-7 -4.5 -9 -17.5q-19 -123 -28 -171q-18 -114 -30.5 -195.5t-12.5 -100.5q0 -29 10.5 -44.5t35 -21.5t68.5 -6q78 0 137.5 40.5t92 113.5t32.5 167q0 115 -69 177.5t-200 62.5q-20 0 -27 -4.5zM742 371q12 44 18 83l14 10q27 -4 106.5 -14.5
t103.5 -10.5q10 0 15 2.5t11 9.5l16 20l44 -7l5 -19q-84 -99 -166.5 -200.5t-128.5 -162.5l29 7q26 0 70 -11q6 -1 29.5 -6t42.5 -5q28 0 47 16.5t26 48.5l18 -2q8 -25 8 -39q0 -42 -26 -72.5t-62 -30.5q-20 0 -39 5.5t-45 15.5q-30 12 -53 18t-48 6q-41 0 -92 -30l-11 17
l284 364l-101 1q-40 0 -60 -14t-32 -51l-39 -6q4 13 16 57zM803 710q47 -48 110 -101q10 8 17 12q9 6 45.5 33t72.5 56l8 -1l13 -23q-47 -44 -96.5 -94.5t-63.5 -65.5h-13q-11 15 -47.5 65.5t-72.5 94.5l19 23z" />
    <glyph glyph-name="uni01C6" unicode="&#x1c6;" horiz-adv-x="861" 
d="M352.5 68.5q11.5 8.5 60.5 50.5l12 -1l13 -24q-63 -59 -93.5 -82.5t-46.5 -23.5q-36 0 -36 29q0 13 18 95.5t25 112.5l-7 2q-49 -90 -94 -148t-92 -91q-38 0 -59 35.5t-21 100.5q0 80 34 158.5t87 128t108 49.5l72 -12l26 197l1 11q0 17 -10 25t-32 8h-41l6 38
q38 0 91 2.5t70 3.5l9 -12q-7 -33 -30.5 -148.5t-51 -261.5t-40.5 -247l3 -4q7 0 18.5 8.5zM216 157.5q57 88.5 112 216.5q-24 14 -51 23t-47 9q-32 0 -61.5 -33.5t-48 -87.5t-18.5 -112q0 -43 8.5 -73.5t20.5 -30.5q28 0 85 88.5zM530 371q12 44 18 83l14 10
q27 -4 106.5 -14.5t103.5 -10.5q10 0 15 2.5t11 9.5l16 20l44 -7l5 -19q-84 -99 -166.5 -200.5t-128.5 -162.5l29 7q26 0 70 -11q6 -1 29.5 -6t42.5 -5q28 0 47 16.5t26 48.5l18 -2q8 -25 8 -39q0 -42 -26 -72.5t-62 -30.5q-20 0 -39 5.5t-45 15.5q-30 12 -53 18t-48 6
q-41 0 -92 -30l-11 17l284 364l-101 1q-40 0 -60 -14t-32 -51l-39 -6q4 13 16 57zM591 710q47 -48 110 -101q10 8 17 12q9 6 45.5 33t72.5 56l8 -1l13 -23q-47 -44 -96.5 -94.5t-63.5 -65.5h-13q-11 15 -47.5 65.5t-72.5 94.5l19 23z" />
    <glyph glyph-name="uni01C7" unicode="&#x1c7;" horiz-adv-x="798" 
d="M478 182q-5 -15 -21 -70t-30 -116l-5 -5q-27 2 -113 5.5t-142 3.5q-45 0 -82 -4t-47 -6l12 43q38 6 54 24t21 60l53 425q1 9 1 22q0 19 -6.5 25.5t-23.5 6.5q-10 0 -19.5 -1t-13.5 -1l-1 3l12 43q1 0 38 -2t68 -2q26 0 58 4t42 6l-8 -42q-30 -5 -42 -11.5t-18 -23
t-15 -61.5q-16 -86 -39 -239.5t-23 -177.5q0 -21 6 -31.5t22 -14.5t48 -4q59 0 88.5 10t47 38.5t35.5 92.5l42 4zM655 565q0 17 -7 23.5t-24 6.5q-12 0 -26.5 -1.5t-20.5 -2.5v3l11 42h103q24 0 61 3.5t49 5.5l-8 -42q-35 -5 -46.5 -15.5t-16.5 -41.5q-15 -93 -34 -216.5
t-31 -211.5q-13 -102 -56.5 -164t-127.5 -97l-12 32l3 8q43 24 68 51.5t38.5 66t20.5 99.5l54 428q2 18 2 23z" />
    <glyph glyph-name="uni01C8" unicode="&#x1c8;" horiz-adv-x="730" 
d="M478 182q-5 -15 -21 -70t-30 -116l-5 -5q-27 2 -113 5.5t-142 3.5q-45 0 -82 -4t-47 -6l12 43q38 6 54 24t21 60l53 425q1 9 1 22q0 19 -6.5 25.5t-23.5 6.5q-10 0 -19.5 -1t-13.5 -1l-1 3l12 43q1 0 38 -2t68 -2q26 0 58 4t42 6l-8 -42q-30 -5 -42 -11.5t-18 -23
t-15 -61.5q-16 -86 -39 -239.5t-23 -177.5q0 -21 6 -31.5t22 -14.5t48 -4q59 0 88.5 10t47 38.5t35.5 92.5l42 4zM629.5 604q-11.5 12 -11.5 32q0 27 19 46.5t45 19.5q19 0 30.5 -12t11.5 -32q0 -27 -19 -46.5t-45 -19.5q-19 0 -30.5 12zM553 -141.5q-42 -61.5 -116 -99.5
l-15 19l3 8q40 29 64.5 60t39.5 76t24 116q8 46 29 175.5t21 151.5q0 23 -10.5 33t-33.5 10h-41l8 38q38 0 90.5 2.5t68.5 3.5l10 -12q-5 -20 -21.5 -91.5t-36 -164.5t-28.5 -163q-14 -101 -56 -162.5z" />
    <glyph glyph-name="uni01C9" unicode="&#x1c9;" horiz-adv-x="495" 
d="M142.5 70.5q14.5 10.5 57.5 48.5l12 -1l13 -24q-106 -106 -140 -106q-31 0 -31 29q0 4 11 76t21 138q62 385 62 418q0 21 -10 30.5t-32 9.5h-41l6 38q38 0 91 2.5t70 3.5l9 -12q-7 -31 -30 -140.5t-50.5 -255.5t-42.5 -261l3 -4q7 0 21.5 10.5zM394.5 604
q-11.5 12 -11.5 32q0 27 19 46.5t45 19.5q19 0 30.5 -12t11.5 -32q0 -27 -19 -46.5t-45 -19.5q-19 0 -30.5 12zM318 -141.5q-42 -61.5 -116 -99.5l-15 19l3 8q40 29 64.5 60t39.5 76t24 116q8 46 29 175.5t21 151.5q0 23 -10.5 33t-33.5 10h-41l8 38q38 0 90.5 2.5t68.5 3.5
l10 -12q-5 -20 -21.5 -91.5t-36 -164.5t-28.5 -163q-14 -101 -56 -162.5z" />
    <glyph glyph-name="uni01CA" unicode="&#x1ca;" horiz-adv-x="1002" 
d="M669.5 639.5q30.5 3.5 39.5 5.5l-10 -44q-34 -5 -52 -19.5t-22 -43.5l-82 -566l-25 -14q-68 138 -133 263.5t-107 203t-53 97.5h-4l-60 -441q-1 -5 -1 -14q0 -14 6 -19.5t20 -5.5h49l2 -3l-14 -43q-10 1 -42 2.5t-58 1.5q-23 0 -51.5 -3.5t-37.5 -4.5l11 43q31 4 47 18.5
t20 44.5l67 443q1 4 1 12q0 23 -17.5 33.5t-60.5 15.5l-1 5l11 34q9 -1 37 -3t44 -2q19 0 38 1.5t24 2.5q58 -117 117 -229.5t98 -185t50 -91.5h4l52 418q4 43 -27 43l-36 -1l-2 4l14 42q9 -1 35.5 -2.5t53.5 -1.5q25 0 55.5 3.5zM859 565q0 17 -7 23.5t-24 6.5
q-12 0 -26.5 -1.5t-20.5 -2.5v3l11 42h103q24 0 61 3.5t49 5.5l-8 -42q-35 -5 -46.5 -15.5t-16.5 -41.5q-15 -93 -34 -216.5t-31 -211.5q-13 -102 -56.5 -164t-127.5 -97l-12 32l3 8q43 24 68 51.5t38.5 66t20.5 99.5l54 428q2 18 2 23z" />
    <glyph glyph-name="uni01CB" unicode="&#x1cb;" horiz-adv-x="934" 
d="M669.5 639.5q30.5 3.5 39.5 5.5l-10 -44q-34 -5 -52 -19.5t-22 -43.5l-82 -566l-25 -14q-68 138 -133 263.5t-107 203t-53 97.5h-4l-60 -441q-1 -5 -1 -14q0 -14 6 -19.5t20 -5.5h49l2 -3l-14 -43q-10 1 -42 2.5t-58 1.5q-23 0 -51.5 -3.5t-37.5 -4.5l11 43q31 4 47 18.5
t20 44.5l67 443q1 4 1 12q0 23 -17.5 33.5t-60.5 15.5l-1 5l11 34q9 -1 37 -3t44 -2q19 0 38 1.5t24 2.5q58 -117 117 -229.5t98 -185t50 -91.5h4l52 418q4 43 -27 43l-36 -1l-2 4l14 42q9 -1 35.5 -2.5t53.5 -1.5q25 0 55.5 3.5zM833.5 604q-11.5 12 -11.5 32q0 27 19 46.5
t45 19.5q19 0 30.5 -12t11.5 -32q0 -27 -19 -46.5t-45 -19.5q-19 0 -30.5 12zM757 -141.5q-42 -61.5 -116 -99.5l-15 19l3 8q40 29 64.5 60t39.5 76t24 116q8 46 29 175.5t21 151.5q0 23 -10.5 33t-33.5 10h-41l8 38q38 0 90.5 2.5t68.5 3.5l10 -12q-5 -20 -21.5 -91.5
t-36 -164.5t-28.5 -163q-14 -101 -56 -162.5z" />
    <glyph glyph-name="uni01CC" unicode="&#x1cc;" horiz-adv-x="741" 
d="M461 94q-106 -106 -140 -106q-31 0 -31 29q0 20 8.5 52.5t27.5 95.5q20 63 30 102t10 63q0 18 -9.5 29.5t-24.5 11.5q-31 0 -82.5 -76t-103.5 -198l-11 -83q-1 -5 -25.5 -14t-36.5 -9l-7 9q20 114 37.5 232.5t17.5 135.5q0 21 -10 30.5t-33 9.5h-41l7 38q69 0 162 6
l9 -12q-18 -51 -35 -118t-26 -120l5 -3q52 101 104.5 169.5t98.5 95.5q32 0 54 -27.5t22 -68.5q0 -27 -12 -70.5t-35 -110.5q-30 -90 -37 -123l3 -4q7 0 20 9.5t59 49.5l12 -1zM640.5 604q-11.5 12 -11.5 32q0 27 19 46.5t45 19.5q19 0 30.5 -12t11.5 -32q0 -27 -19 -46.5
t-45 -19.5q-19 0 -30.5 12zM564 -141.5q-42 -61.5 -116 -99.5l-15 19l3 8q40 29 64.5 60t39.5 76t24 116q8 46 29 175.5t21 151.5q0 23 -10.5 33t-33.5 10h-41l8 38q38 0 90.5 2.5t68.5 3.5l10 -12q-5 -20 -21.5 -91.5t-36 -164.5t-28.5 -163q-14 -101 -56 -162.5z" />
    <glyph glyph-name="uni01CD" unicode="&#x1cd;" horiz-adv-x="556" 
d="M482.5 58.5q17.5 -14.5 59.5 -19.5l2 -3l-11 -39q-11 0 -41.5 1.5t-59.5 1.5q-46 0 -88.5 -4t-54.5 -6l-2 7l8 36q38 3 57.5 8t27 14.5t7.5 27.5q0 12 -4 38l-18 113q-24 1 -100 1q-43 0 -107 -8l-49 -108q-14 -29 -14 -46q0 -19 12.5 -27.5t40.5 -8.5h56v-3l-10 -41
q-12 1 -52 4t-80 3q-35 0 -65 -1t-40 -2l13 45q29 3 47.5 19.5t38.5 58.5l248 511l56 17h8q0 -7 30.5 -200t59.5 -337q7 -38 24.5 -52.5zM266 271q47 0 91 6l-44 267h-7l-125 -273h85zM337 704h-13l-120 111l16 22l10 1l109 -65l125 65l9 -1l12 -22z" />
    <glyph glyph-name="uni01CE" unicode="&#x1ce;" horiz-adv-x="461" 
d="M354 69.5q13 9.5 59 49.5l12 -1l13 -24q-67 -63 -96 -84.5t-48 -21.5q-14 0 -23 7.5t-9 19.5q0 22 43 210l-6 2q-49 -90 -94 -147.5t-93 -91.5q-38 0 -59 35.5t-21 98.5q0 81 33.5 160t87 128.5t108.5 49.5l100 -16l9 25l5 1l31 -15l8 -12q-24 -80 -47.5 -187.5
t-35.5 -191.5l3 -4q7 0 20 9.5zM183.5 111q33.5 42 73 112t74.5 150q-23 14 -51 23.5t-47 9.5q-34 0 -64 -33t-48.5 -87.5t-18.5 -114.5q0 -44 9 -73t22 -29q17 0 50.5 42zM170 732q47 -48 110 -101q10 8 17 12q9 6 45.5 33t72.5 56l8 -1l13 -23q-47 -44 -96.5 -94.5
t-63.5 -65.5h-13q-11 15 -47.5 65.5t-72.5 94.5l19 23z" />
    <glyph glyph-name="uni01CF" unicode="&#x1cf;" horiz-adv-x="346" 
d="M276 586.5q-15 -11.5 -20 -40.5q-70 -406 -70 -461q0 -24 8.5 -33.5t28.5 -9.5q18 0 32 1t19 2l2 -4l-14 -44q-13 1 -49.5 2t-75.5 1q-30 0 -65 -5t-46 -7l12 43q46 9 64.5 27t23.5 60l52 424q2 18 2 23q0 18 -7 24.5t-24 6.5q-12 0 -24.5 -1t-16.5 -1l-1 3l12 43
q2 0 42 -2t71 -2q28 0 63.5 4t46.5 6l-10 -43q-41 -5 -56 -16.5zM239 704h-13l-120 111l16 22l10 1l109 -65l125 65l9 -1l12 -22z" />
    <glyph glyph-name="uni01D0" unicode="&#x1d0;" horiz-adv-x="264" 
d="M154.5 70.5q14.5 10.5 57.5 48.5l12 -1l13 -24q-106 -106 -140 -106q-16 0 -23 8.5t-7 26.5q22 130 36.5 228.5t14.5 114.5q0 23 -9.5 32.5t-32.5 9.5h-41l7 38q68 0 162 6l9 -12q-25 -81 -48.5 -188t-34.5 -188l3 -4q7 0 21.5 10.5zM61 710q47 -48 110 -101q10 8 17 12
q9 6 45.5 33t72.5 56l8 -1l13 -23q-47 -44 -96.5 -94.5t-63.5 -65.5h-13q-11 15 -47.5 65.5t-72.5 94.5l19 23z" />
    <glyph glyph-name="uni01D1" unicode="&#x1d1;" horiz-adv-x="665" 
d="M167 22.5q-57 34.5 -89.5 95t-32.5 136.5q0 108 46 198.5t124.5 143t171.5 52.5q73 0 131.5 -34.5t92 -95t33.5 -136.5q0 -108 -46.5 -198.5t-126.5 -143t-175 -52.5q-72 0 -129 34.5zM437 75q56 40 88 110.5t32 157.5q0 75 -23.5 131.5t-66.5 87.5t-99 31
q-68 0 -123 -40t-86.5 -110.5t-31.5 -157.5q0 -75 23 -131.5t64.5 -87.5t96.5 -31q70 0 126 40zM392 704h-13l-120 111l16 22l10 1l109 -65l125 65l9 -1l12 -22z" />
    <glyph glyph-name="uni01D2" unicode="&#x1d2;" horiz-adv-x="406" 
d="M65 33q-31 45 -31 119q0 81 31.5 153t84 115.5t111.5 43.5q53 0 83.5 -39.5t30.5 -109.5q0 -87 -31 -162t-84 -120t-114 -45q-50 0 -81 45zM245 71q26 28 40.5 77.5t14.5 111.5q0 67 -21.5 105.5t-59.5 38.5q-32 0 -58 -26.5t-40.5 -72.5t-14.5 -103q0 -70 22.5 -114.5
t57.5 -44.5q33 0 59 28zM132 710q47 -48 110 -101q10 8 17 12q9 6 45.5 33t72.5 56l8 -1l13 -23q-47 -44 -96.5 -94.5t-63.5 -65.5h-13q-11 15 -47.5 65.5t-72.5 94.5l19 23z" />
    <glyph glyph-name="uni01D3" unicode="&#x1d3;" horiz-adv-x="655" 
d="M175 202q0 -78 35.5 -119.5t104.5 -41.5q80 0 127.5 44.5t57.5 129.5q6 44 18.5 165t16.5 162q1 8 1 21q0 20 -6 26.5t-24 6.5q-12 0 -25 -1t-18 -1v4l11 41q12 -1 43.5 -2t63.5 -1q26 0 55.5 4t38.5 6l-10 -43q-30 -4 -44 -9t-20 -15.5t-9 -32.5l-42 -340
q-13 -103 -82 -160.5t-182 -57.5q-90 0 -137.5 46.5t-47.5 132.5q0 21 3 43l41 332q2 18 2 24q0 17 -7 23.5t-25 6.5q-10 0 -20 -1t-13 -1l-1 4l12 41q11 -1 42.5 -2t63.5 -1q26 0 58.5 4t42.5 6l-9 -43q-36 -5 -50 -16.5t-19 -40.5l-44 -294q-3 -27 -3 -50zM388 704h-13
l-120 111l16 22l10 1l109 -65l125 65l9 -1l12 -22z" />
    <glyph glyph-name="uni01D4" unicode="&#x1d4;" horiz-adv-x="488" 
d="M462 94q-62 -58 -93.5 -82t-46.5 -24q-36 0 -36 28q0 17 42 210l-7 2q-89 -171 -182 -240q-40 0 -64 23t-24 61q0 20 11 61.5t30 105.5q13 42 23 80.5t10 52.5q0 19 -10 27.5t-32 8.5h-41l8 38q68 0 162 6l9 -12q-42 -117 -70.5 -214t-28.5 -124q0 -18 7 -26.5t23 -8.5
q28 0 82.5 81t112.5 209l17 96l9 3l60 -9l7 -8q-24 -80 -48.5 -186.5t-36.5 -188.5l3 -4q7 0 20 9.5t59 49.5l12 -1zM172 710q47 -48 110 -101q10 8 17 12q9 6 45.5 33t72.5 56l8 -1l13 -23q-47 -44 -96.5 -94.5t-63.5 -65.5h-13q-11 15 -47.5 65.5t-72.5 94.5l19 23z" />
    <glyph glyph-name="uni01D5" unicode="&#x1d5;" horiz-adv-x="655" 
d="M175 202q0 -78 35.5 -119.5t104.5 -41.5q80 0 127.5 44.5t57.5 129.5q6 44 18.5 165t16.5 162q1 8 1 21q0 20 -6 26.5t-24 6.5q-12 0 -25 -1t-18 -1v4l11 41q12 -1 43.5 -2t63.5 -1q26 0 55.5 4t38.5 6l-10 -43q-30 -4 -44 -9t-20 -15.5t-9 -32.5l-42 -340
q-13 -103 -82 -160.5t-182 -57.5q-90 0 -137.5 46.5t-47.5 132.5q0 21 3 43l41 332q2 18 2 24q0 17 -7 23.5t-25 6.5q-10 0 -20 -1t-13 -1l-1 4l12 41q11 -1 42.5 -2t63.5 -1q26 0 58.5 4t42.5 6l-9 -43q-36 -5 -50 -16.5t-19 -40.5l-44 -294q-3 -27 -3 -50zM535 860
l-137 -1l-138 -1l-5 9l16 45l147 -1q30 0 71 2.5t54 3.5l4 -10zM269 730q-9 11 -9 27q0 22 16.5 38.5t38.5 16.5q17 0 26.5 -11t9.5 -27q0 -22 -16.5 -38.5t-39.5 -16.5q-17 0 -26 11zM429 730q-9 11 -9 27q0 22 16.5 38.5t38.5 16.5q17 0 26.5 -11t9.5 -27
q0 -22 -16.5 -38.5t-39.5 -16.5q-17 0 -26 11z" />
    <glyph glyph-name="uni01D6" unicode="&#x1d6;" horiz-adv-x="488" 
d="M462 94q-62 -58 -93.5 -82t-46.5 -24q-36 0 -36 28q0 17 42 210l-7 2q-89 -171 -182 -240q-40 0 -64 23t-24 61q0 20 11 61.5t30 105.5q13 42 23 80.5t10 52.5q0 19 -10 27.5t-32 8.5h-41l8 38q68 0 162 6l9 -12q-42 -117 -70.5 -214t-28.5 -124q0 -18 7 -26.5t23 -8.5
q28 0 82.5 81t112.5 209l17 96l9 3l60 -9l7 -8q-24 -80 -48.5 -186.5t-36.5 -188.5l3 -4q7 0 20 9.5t59 49.5l12 -1zM427 676l-137 -1l-138 -1l-5 9l16 45l147 -1q30 0 71 2.5t54 3.5l4 -10zM161 546q-9 11 -9 27q0 22 16.5 38.5t38.5 16.5q17 0 26.5 -11t9.5 -27
q0 -22 -16.5 -38.5t-39.5 -16.5q-17 0 -26 11zM321 546q-9 11 -9 27q0 22 16.5 38.5t38.5 16.5q17 0 26.5 -11t9.5 -27q0 -22 -16.5 -38.5t-39.5 -16.5q-17 0 -26 11z" />
    <glyph glyph-name="uni01D7" unicode="&#x1d7;" horiz-adv-x="655" 
d="M175 202q0 -78 35.5 -119.5t104.5 -41.5q80 0 127.5 44.5t57.5 129.5q6 44 18.5 165t16.5 162q1 8 1 21q0 20 -6 26.5t-24 6.5q-12 0 -25 -1t-18 -1v4l11 41q12 -1 43.5 -2t63.5 -1q26 0 55.5 4t38.5 6l-10 -43q-30 -4 -44 -9t-20 -15.5t-9 -32.5l-42 -340
q-13 -103 -82 -160.5t-182 -57.5q-90 0 -137.5 46.5t-47.5 132.5q0 21 3 43l41 332q2 18 2 24q0 17 -7 23.5t-25 6.5q-10 0 -20 -1t-13 -1l-1 4l12 41q11 -1 42.5 -2t63.5 -1q26 0 58.5 4t42.5 6l-9 -43q-36 -5 -50 -16.5t-19 -40.5l-44 -294q-3 -27 -3 -50zM449.5 903.5
q-61.5 -21.5 -127.5 -46.5l-8 5l-6 24q59 31 120 65t79 44l9 -6l16 -48l-4 -10q-17 -6 -78.5 -27.5zM291 750q-9 11 -9 27q0 22 16.5 38.5t38.5 16.5q17 0 26.5 -11t9.5 -27q0 -22 -16.5 -38.5t-39.5 -16.5q-17 0 -26 11zM451 750q-9 11 -9 27q0 22 16.5 38.5t38.5 16.5
q17 0 26.5 -11t9.5 -27q0 -22 -16.5 -38.5t-39.5 -16.5q-17 0 -26 11z" />
    <glyph glyph-name="uni01D8" unicode="&#x1d8;" horiz-adv-x="488" 
d="M462 94q-62 -58 -93.5 -82t-46.5 -24q-36 0 -36 28q0 17 42 210l-7 2q-89 -171 -182 -240q-40 0 -64 23t-24 61q0 20 11 61.5t30 105.5q13 42 23 80.5t10 52.5q0 19 -10 27.5t-32 8.5h-41l8 38q68 0 162 6l9 -12q-42 -117 -70.5 -214t-28.5 -124q0 -18 7 -26.5t23 -8.5
q28 0 82.5 81t112.5 209l17 96l9 3l60 -9l7 -8q-24 -80 -48.5 -186.5t-36.5 -188.5l3 -4q7 0 20 9.5t59 49.5l12 -1zM341.5 719.5q-61.5 -21.5 -127.5 -46.5l-8 5l-6 24q59 31 120 65t79 44l9 -6l16 -48l-4 -10q-17 -6 -78.5 -27.5zM183 566q-9 11 -9 27q0 22 16.5 38.5
t38.5 16.5q17 0 26.5 -11t9.5 -27q0 -22 -16.5 -38.5t-39.5 -16.5q-17 0 -26 11zM343 566q-9 11 -9 27q0 22 16.5 38.5t38.5 16.5q17 0 26.5 -11t9.5 -27q0 -22 -16.5 -38.5t-39.5 -16.5q-17 0 -26 11z" />
    <glyph glyph-name="uni01D9" unicode="&#x1d9;" horiz-adv-x="655" 
d="M175 202q0 -78 35.5 -119.5t104.5 -41.5q80 0 127.5 44.5t57.5 129.5q6 44 18.5 165t16.5 162q1 8 1 21q0 20 -6 26.5t-24 6.5q-12 0 -25 -1t-18 -1v4l11 41q12 -1 43.5 -2t63.5 -1q26 0 55.5 4t38.5 6l-10 -43q-30 -4 -44 -9t-20 -15.5t-9 -32.5l-42 -340
q-13 -103 -82 -160.5t-182 -57.5q-90 0 -137.5 46.5t-47.5 132.5q0 21 3 43l41 332q2 18 2 24q0 17 -7 23.5t-25 6.5q-10 0 -20 -1t-13 -1l-1 4l12 41q11 -1 42.5 -2t63.5 -1q26 0 58.5 4t42.5 6l-9 -43q-36 -5 -50 -16.5t-19 -40.5l-44 -294q-3 -27 -3 -50zM460.5 879.5
q-45.5 -34.5 -58.5 -45.5h-14q-11 11 -47.5 45.5t-72.5 65.5l17 22l9 1q59 -38 109 -65q50 22 126 65l8 -1l12 -22q-43 -31 -88.5 -65.5zM272 750q-9 11 -9 27q0 22 16.5 38.5t38.5 16.5q17 0 26.5 -11t9.5 -27q0 -22 -16.5 -38.5t-39.5 -16.5q-17 0 -26 11zM432 750
q-9 11 -9 27q0 22 16.5 38.5t38.5 16.5q17 0 26.5 -11t9.5 -27q0 -22 -16.5 -38.5t-39.5 -16.5q-17 0 -26 11z" />
    <glyph glyph-name="uni01DA" unicode="&#x1da;" horiz-adv-x="488" 
d="M462 94q-62 -58 -93.5 -82t-46.5 -24q-36 0 -36 28q0 17 42 210l-7 2q-89 -171 -182 -240q-40 0 -64 23t-24 61q0 20 11 61.5t30 105.5q13 42 23 80.5t10 52.5q0 19 -10 27.5t-32 8.5h-41l8 38q68 0 162 6l9 -12q-42 -117 -70.5 -214t-28.5 -124q0 -18 7 -26.5t23 -8.5
q28 0 82.5 81t112.5 209l17 96l9 3l60 -9l7 -8q-24 -80 -48.5 -186.5t-36.5 -188.5l3 -4q7 0 20 9.5t59 49.5l12 -1zM352.5 695.5q-45.5 -34.5 -58.5 -45.5h-14q-11 11 -47.5 45.5t-72.5 65.5l17 22l9 1q59 -38 109 -65q50 22 126 65l8 -1l12 -22q-43 -31 -88.5 -65.5z
M164 566q-9 11 -9 27q0 22 16.5 38.5t38.5 16.5q17 0 26.5 -11t9.5 -27q0 -22 -16.5 -38.5t-39.5 -16.5q-17 0 -26 11zM324 566q-9 11 -9 27q0 22 16.5 38.5t38.5 16.5q17 0 26.5 -11t9.5 -27q0 -22 -16.5 -38.5t-39.5 -16.5q-17 0 -26 11z" />
    <glyph glyph-name="uni01DB" unicode="&#x1db;" horiz-adv-x="655" 
d="M175 202q0 -78 35.5 -119.5t104.5 -41.5q80 0 127.5 44.5t57.5 129.5q6 44 18.5 165t16.5 162q1 8 1 21q0 20 -6 26.5t-24 6.5q-12 0 -25 -1t-18 -1v4l11 41q12 -1 43.5 -2t63.5 -1q26 0 55.5 4t38.5 6l-10 -43q-30 -4 -44 -9t-20 -15.5t-9 -32.5l-42 -340
q-13 -103 -82 -160.5t-182 -57.5q-90 0 -137.5 46.5t-47.5 132.5q0 21 3 43l41 332q2 18 2 24q0 17 -7 23.5t-25 6.5q-10 0 -20 -1t-13 -1l-1 4l12 41q11 -1 42.5 -2t63.5 -1q26 0 58.5 4t42.5 6l-9 -43q-36 -5 -50 -16.5t-19 -40.5l-44 -294q-3 -27 -3 -50zM324 989l9 6
q18 -10 79 -44t120 -65l-6 -24l-8 -5q-66 25 -127.5 46.5t-78.5 27.5l-4 10zM291 750q-9 11 -9 27q0 22 16.5 38.5t38.5 16.5q17 0 26.5 -11t9.5 -27q0 -22 -16.5 -38.5t-39.5 -16.5q-17 0 -26 11zM451 750q-9 11 -9 27q0 22 16.5 38.5t38.5 16.5q17 0 26.5 -11t9.5 -27
q0 -22 -16.5 -38.5t-39.5 -16.5q-17 0 -26 11z" />
    <glyph glyph-name="uni01DC" unicode="&#x1dc;" horiz-adv-x="488" 
d="M462 94q-62 -58 -93.5 -82t-46.5 -24q-36 0 -36 28q0 17 42 210l-7 2q-89 -171 -182 -240q-40 0 -64 23t-24 61q0 20 11 61.5t30 105.5q13 42 23 80.5t10 52.5q0 19 -10 27.5t-32 8.5h-41l8 38q68 0 162 6l9 -12q-42 -117 -70.5 -214t-28.5 -124q0 -18 7 -26.5t23 -8.5
q28 0 82.5 81t112.5 209l17 96l9 3l60 -9l7 -8q-24 -80 -48.5 -186.5t-36.5 -188.5l3 -4q7 0 20 9.5t59 49.5l12 -1zM216 805l9 6q18 -10 79 -44t120 -65l-6 -24l-8 -5q-66 25 -127.5 46.5t-78.5 27.5l-4 10zM183 566q-9 11 -9 27q0 22 16.5 38.5t38.5 16.5q17 0 26.5 -11
t9.5 -27q0 -22 -16.5 -38.5t-39.5 -16.5q-17 0 -26 11zM343 566q-9 11 -9 27q0 22 16.5 38.5t38.5 16.5q17 0 26.5 -11t9.5 -27q0 -22 -16.5 -38.5t-39.5 -16.5q-17 0 -26 11z" />
    <glyph glyph-name="Gcaron" unicode="&#x1e6;" horiz-adv-x="640" 
d="M543 301q25 2 32 3l1 -20q-30 -20 -40 -89q-5 -32 -9.5 -70t-4.5 -52l1 -30l-6 -8q0 -1 -31.5 -13.5t-78 -23t-100.5 -10.5q-78 0 -137.5 32.5t-92 92.5t-32.5 140q0 110 49 200.5t134 142.5t189 52q35 0 73.5 -5t65.5 -10.5t34 -7.5l3 -6l-9.5 -28.5t-17.5 -59
t-18 -76.5l-43 -4q1 6 5 26.5t4 32.5q0 84 -131 84q-73 0 -130 -39t-89 -110t-32 -163q0 -114 51 -181.5t139 -67.5q35 0 65 8.5t50 19t20 11.5l15 126q1 8 1 20q0 21 -10 27.5t-38 6.5h-67l-1 4l14 47q1 0 36.5 -2t84.5 -2q26 0 51 2zM399 704h-13l-120 111l16 22l10 1
l109 -65l125 65l9 -1l12 -22z" />
    <glyph glyph-name="gcaron" unicode="&#x1e7;" horiz-adv-x="444" 
d="M1.5 -222.5q-37.5 18.5 -60.5 48t-21 59.5l2 5q55 44 187 122l1 9q-24 14 -37.5 48t-13.5 80q0 73 32.5 145.5t83.5 119t102 46.5l102 -16l11 25l5 1l31 -15l8 -9q-70 -130 -79 -208q-3 -28 -10 -144q-4 -73 -6 -94q-7 -57 -48 -113t-99 -92t-112 -36q-41 0 -78.5 18.5z
M236 163q48 76 111 212q-62 31 -101 31q-29 0 -56.5 -30.5t-44.5 -79t-17 -100.5q0 -43 11.5 -76t26.5 -33q22 0 70 76zM222 -136.5q45 46.5 55 125.5l25 207l-8 2q-46 -85 -75 -124t-66 -66q-27 -19 -68 -46q-45 -29 -65.5 -44.5t-20.5 -24.5q0 -17 17.5 -34.5t44 -29.5
t52.5 -12q64 0 109 46.5zM166 742q47 -48 110 -101q10 8 17 12q9 6 45.5 33t72.5 56l8 -1l13 -23q-47 -44 -96.5 -94.5t-63.5 -65.5h-13q-11 15 -47.5 65.5t-72.5 94.5l19 23z" />
    <glyph glyph-name="uni01EA" unicode="&#x1ea;" horiz-adv-x="665" 
d="M167 22.5q-57 34.5 -89.5 95t-32.5 136.5q0 108 46 198.5t124.5 143t171.5 52.5q73 0 131.5 -34.5t92 -95t33.5 -136.5q0 -108 -46.5 -198.5t-126.5 -143t-175 -52.5q-72 0 -129 34.5zM437 75q56 40 88 110.5t32 157.5q0 75 -23.5 131.5t-66.5 87.5t-99 31
q-68 0 -123 -40t-86.5 -110.5t-31.5 -157.5q0 -75 23 -131.5t64.5 -87.5t96.5 -31q70 0 126 40zM391.5 -223.5q-15.5 -11.5 -38.5 -25.5t-46 -22q-44 0 -70 22t-26 61q0 40 31.5 78t103.5 104l20 18h41q-57 -54 -82.5 -80.5t-37.5 -48.5t-12 -47q0 -21 13.5 -34.5
t35.5 -13.5q16 0 33.5 5t29 10.5t14.5 7.5l10 -19q-4 -4 -19.5 -15.5z" />
    <glyph glyph-name="uni01EB" unicode="&#x1eb;" horiz-adv-x="406" 
d="M65 33q-31 45 -31 119q0 81 31.5 153t84 115.5t111.5 43.5q53 0 83.5 -39.5t30.5 -109.5q0 -87 -31 -162t-84 -120t-114 -45q-50 0 -81 45zM245 71q26 28 40.5 77.5t14.5 111.5q0 67 -21.5 105.5t-59.5 38.5q-32 0 -58 -26.5t-40.5 -72.5t-14.5 -103q0 -70 22.5 -114.5
t57.5 -44.5q33 0 59 28zM236.5 -193.5q-15.5 -11.5 -38.5 -25.5t-46 -22q-44 0 -70 22t-26 61q0 40 31.5 78t103.5 104l20 18h41q-57 -54 -82.5 -80.5t-37.5 -48.5t-12 -47q0 -21 13.5 -34.5t35.5 -13.5q16 0 33.5 5t29 10.5t14.5 7.5l10 -19q-4 -4 -19.5 -15.5z" />
    <glyph glyph-name="Aringacute" unicode="&#x1fa;" horiz-adv-x="556" 
d="M482.5 58.5q17.5 -14.5 59.5 -19.5l2 -3l-11 -39q-11 0 -41.5 1.5t-59.5 1.5q-46 0 -88.5 -4t-54.5 -6l-2 7l8 36q38 3 57.5 8t27 14.5t7.5 27.5q0 12 -4 38l-18 113q-24 1 -100 1q-43 0 -107 -8l-49 -108q-14 -29 -14 -46q0 -19 12.5 -27.5t40.5 -8.5h56v-3l-10 -41
q-12 1 -52 4t-80 3q-35 0 -65 -1t-40 -2l13 45q29 3 47.5 19.5t38.5 58.5l248 511l56 17h8q0 -7 30.5 -200t59.5 -337q7 -38 24.5 -52.5zM266 271q47 0 91 6l-44 267h-7l-125 -273h85zM284.611 685.943q-15.3164 16.668 -15.3164 44.5996q0 36.9404 23.876 61.7188
q23.877 24.7773 59.917 24.7773q30.6338 0 45.0498 -17.1191t14.416 -42.3477q0 -35.1387 -23.876 -61.7178q-23.877 -26.5801 -60.8184 -26.5801q-27.9307 0 -43.248 16.6689zM367.954 712.072q13.0645 8.55957 13.0645 31.9854q0 17.1191 -10.3613 27.4805
t-29.2822 10.3613q-19.8223 0 -31.085 -10.8115q-11.2627 -10.8125 -11.2627 -29.7334t12.1641 -28.3809q12.1631 -9.46094 26.5791 -9.46094q17.1191 0 30.1836 8.55957zM390.752 856.623q-55.3477 -19.3496 -114.745 -41.8486l-7.19922 4.5l-5.40039 21.5996
q53.0977 27.8984 107.996 58.4971q54.8975 30.5986 71.0967 39.5986l8.09961 -5.39941l14.3994 -43.1992l-3.59961 -8.99902q-15.2998 -5.39941 -70.6475 -24.749z" />
    <glyph glyph-name="aringacute" unicode="&#x1fb;" horiz-adv-x="461" 
d="M354 69.5q13 9.5 59 49.5l12 -1l13 -24q-67 -63 -96 -84.5t-48 -21.5q-14 0 -23 7.5t-9 19.5q0 22 43 210l-6 2q-49 -90 -94 -147.5t-93 -91.5q-38 0 -59 35.5t-21 98.5q0 81 33.5 160t87 128.5t108.5 49.5l100 -16l9 25l5 1l31 -15l8 -12q-24 -80 -47.5 -187.5
t-35.5 -191.5l3 -4q7 0 20 9.5zM183.5 111q33.5 42 73 112t74.5 150q-23 14 -51 23.5t-47 9.5q-34 0 -64 -33t-48.5 -87.5t-18.5 -114.5q0 -44 9 -73t22 -29q17 0 50.5 42zM225.611 523.943q-15.3164 16.668 -15.3164 44.5996q0 36.9404 23.876 61.7188
q23.877 24.7773 59.917 24.7773q30.6338 0 45.0498 -17.1191t14.416 -42.3477q0 -35.1387 -23.876 -61.7178q-23.877 -26.5801 -60.8184 -26.5801q-27.9307 0 -43.248 16.6689zM308.954 550.072q13.0645 8.55957 13.0645 31.9854q0 17.1191 -10.3613 27.4805
t-29.2822 10.3613q-19.8223 0 -31.085 -10.8115q-11.2627 -10.8125 -11.2627 -29.7334t12.1641 -28.3809q12.1631 -9.46094 26.5791 -9.46094q17.1191 0 30.1836 8.55957zM331.752 694.623q-55.3477 -19.3496 -114.745 -41.8486l-7.19922 4.5l-5.40039 21.5996
q53.0977 27.8984 107.996 58.4971q54.8975 30.5986 71.0967 39.5986l8.09961 -5.39941l14.3994 -43.1992l-3.59961 -8.99902q-15.2998 -5.39941 -70.6475 -24.749z" />
    <glyph glyph-name="AEacute" unicode="&#x1fc;" horiz-adv-x="778" 
d="M340 60q27 22 27 57v36l-2 124l-96 -8l-89 -9l-84 -140q-13 -21 -17 -31t-4 -20q0 -17 11 -23.5t38 -6.5h54l-11 -46q-12 1 -53 4t-79 3q-20 0 -39.5 -1.5t-26.5 -2.5l-2 34q3 3 13.5 14.5t26 31.5t31.5 45l291 458q-3 16 -22 16q-10 0 -20 -1t-13 -1l-2 4l13 43
q14 -1 56.5 -2t96.5 -1q117 0 181.5 2.5t106.5 9.5l2 -6q-2 -6 -8.5 -27t-16 -59t-17.5 -79l-47 -4q2 6 5.5 26.5t3.5 36.5q0 23 -11 33.5t-40.5 14t-94.5 3.5q-43 0 -56 -6.5t-13 -24.5l2 -230l116 11l90 13l4 -5l-19 -52l-83 -2l-108 -9l6 -171q1 -37 17.5 -52.5
t56.5 -15.5q73 0 105.5 8t48.5 32t31 82l44 5l3 -5q-5 -14 -20 -64.5t-27 -102.5l-5 -6q2 2 -108.5 4.5t-182.5 2.5q-46 0 -88.5 -4t-54.5 -6l-1 7l6 38q47 3 74 25zM364 321l-1 219h-9l-141 -230l80 5zM546 804q-50 -41 -103 -88l-9 2l-20 19q45 49 91 103t59 70l10 -2
l38 -41l-1 -11q-15 -11 -65 -52z" />
    <glyph glyph-name="aeacute" unicode="&#x1fd;" horiz-adv-x="587" 
d="M524 133l15 -24q-29 -53 -73.5 -87t-87.5 -34q-54 0 -85 44t-31 121v10q-76 -124 -150 -175q-38 0 -59 35.5t-21 100.5q0 80 34 158.5t87 128t108 49.5l156 -17q35 21 72 21q38 0 58.5 -20.5t20.5 -57.5q0 -63 -55 -108t-183 -88q-4 -64 15.5 -103t54.5 -39q30 0 60 23.5
t50 62.5zM182.5 111.5q33.5 42.5 73 114.5t75.5 157q-24 10 -52 16.5t-49 6.5q-32 0 -61.5 -33.5t-48 -87.5t-18.5 -112q0 -43 8.5 -73.5t20.5 -30.5q18 0 51.5 42.5zM457 406q-26 0 -51.5 -23.5t-45 -63.5t-26.5 -87q87 27 125 57t38 71q0 46 -40 46zM442 609
q-50 -41 -103 -88l-9 2l-20 19q45 49 91 103t59 70l10 -2l38 -41l-1 -11q-15 -11 -65 -52z" />
    <glyph glyph-name="Oslashacute" unicode="&#x1fe;" horiz-adv-x="663" 
d="M609.5 521.5q34.5 -61.5 34.5 -139.5q0 -108 -46.5 -198.5t-126.5 -143t-175 -52.5q-54 0 -102 20l-57 -106l-27 6l-2 10l56 106q-55 34 -87 94.5t-32 135.5q0 108 46 198.5t124.5 143t171.5 52.5q50 0 95 -17l39 77l29 -7l3 -12l-38 -73q60 -33 94.5 -94.5zM245 553
q-55 -40 -86.5 -110.5t-31.5 -157.5q0 -65 17.5 -117t50.5 -85l257 489q-38 21 -84 21q-68 0 -123 -40zM437 75q56 40 88 110.5t32 157.5q0 68 -20 121.5t-56 86.5l-259 -490q40 -26 89 -26q70 0 126 40zM372.5 749.5q-61.5 -21.5 -127.5 -46.5l-8 5l-6 24q59 31 120 65
t79 44l9 -6l16 -48l-4 -10q-17 -6 -78.5 -27.5z" />
    <glyph glyph-name="oslashacute" unicode="&#x1ff;" horiz-adv-x="406" 
d="M375 315q0 -87 -31 -162t-84 -120t-114 -45q-22 0 -44 11l-51 -97l-27 6l-2 10l53 102q-20 21 -30.5 55t-10.5 77q0 81 31.5 153t84 115.5t111.5 43.5q24 0 41 -7l43 82l29 -7l3 -12l-44 -82q42 -39 42 -123zM161 377.5q-26 -26.5 -40.5 -72.5t-14.5 -103q0 -55 14 -95
l144 278q-19 19 -45 19q-32 0 -58 -26.5zM245 71q26 28 40.5 77.5t14.5 111.5q0 53 -14 89l-146 -280q18 -26 46 -26q33 0 59 28zM302 629q-50 -41 -103 -88l-9 2l-20 19q45 49 91 103t59 70l10 -2l38 -41l-1 -11q-15 -11 -65 -52z" />
    <glyph glyph-name="uni0200" unicode="&#x200;" horiz-adv-x="556" 
d="M482.5 58.5q17.5 -14.5 59.5 -19.5l2 -3l-11 -39q-11 0 -41.5 1.5t-59.5 1.5q-46 0 -88.5 -4t-54.5 -6l-2 7l8 36q38 3 57.5 8t27 14.5t7.5 27.5q0 12 -4 38l-18 113q-24 1 -100 1q-43 0 -107 -8l-49 -108q-14 -29 -14 -46q0 -19 12.5 -27.5t40.5 -8.5h56v-3l-10 -41
q-12 1 -52 4t-80 3q-35 0 -65 -1t-40 -2l13 45q29 3 47.5 19.5t38.5 58.5l248 511l56 17h8q0 -7 30.5 -200t59.5 -337q7 -38 24.5 -52.5zM266 271q47 0 91 6l-44 267h-7l-125 -273h85zM341 737.5q-49 25.5 -63 32.5l-3 9l22 43l9 4q14 -11 61 -47.5t92 -69.5l-9 -21l-8 -5
q-52 29 -101 54.5zM201 728.5q-49 25.5 -63 32.5l-3 9l22 42l9 5q14 -11 56.5 -44t96.5 -74l-10 -21l-7 -4q-52 29 -101 54.5z" />
    <glyph glyph-name="uni0201" unicode="&#x201;" horiz-adv-x="461" 
d="M354 69.5q13 9.5 59 49.5l12 -1l13 -24q-67 -63 -96 -84.5t-48 -21.5q-14 0 -23 7.5t-9 19.5q0 22 43 210l-6 2q-49 -90 -94 -147.5t-93 -91.5q-38 0 -59 35.5t-21 98.5q0 81 33.5 160t87 128.5t108.5 49.5l100 -16l9 25l5 1l31 -15l8 -12q-24 -80 -47.5 -187.5
t-35.5 -191.5l3 -4q7 0 20 9.5zM183.5 111q33.5 42 73 112t74.5 150q-23 14 -51 23.5t-47 9.5q-34 0 -64 -33t-48.5 -87.5t-18.5 -114.5q0 -44 9 -73t22 -29q17 0 50.5 42zM162.5 632q-46.5 35 -59.5 45l-2 9l33 38l9 3q13 -14 56 -61.5t84 -89.5l-16 -18l-9 -2
q-49 41 -95.5 76zM290.5 632q-46.5 35 -59.5 45l-2 9l33 38l9 3q13 -14 56 -61.5t84 -89.5l-16 -18l-9 -2q-49 41 -95.5 76z" />
    </font>
</defs>
</svg>
